<svg width="371" height="369" viewBox="0 0 371 369" fill="none" xmlns="http://www.w3.org/2000/svg">
<g clip-path="url(#clip0_100_1307)">
<path d="M117.922 79.0489C83.94 76.0341 68.089 66.7758 58.2798 105.169C58.2798 105.169 44.527 108.651 43.1047 119.191C39.1309 148.876 89.3111 166.005 110.82 164.19C132.359 162.358 118.357 105.956 117.922 79.0489Z" fill="#F15A29"/>
<g style="mix-blend-mode:multiply">
<path d="M77.5426 131.853C85.5284 113.694 79.6445 93.6895 89.24 76.1962C100.402 77.1818 117.922 79.0489 117.922 79.0489C118.357 105.956 132.359 162.358 110.82 164.19C95.9593 165.437 67.4816 157.674 52.5393 142.983C63.1609 144.077 72.9563 142.274 77.5124 131.87L77.5426 131.853Z" fill="#BCBEC0"/>
</g>
<g style="mix-blend-mode:multiply">
<path d="M101.386 136.145C109.464 133.979 116.415 129.367 122.12 123.502C123.845 144.418 123.097 163.136 110.826 164.167C92.0087 165.768 51.3921 152.884 44.0325 129.832C61.7989 138.437 82.4983 141.216 101.386 136.145Z" fill="#BCBEC0"/>
</g>
<g style="mix-blend-mode:multiply">
<path d="M104.439 77.6642C111.781 78.4048 117.922 79.0492 117.922 79.0492C118.063 113.745 138.832 176.411 95.3444 163.081C88.0577 135.133 92.3701 104.292 104.463 77.6707L104.439 77.6642Z" fill="#BCBEC0"/>
</g>
<g style="mix-blend-mode:multiply">
<path d="M71.1857 79.8889C73.8231 77.42 76.9127 75.7357 80.4113 75.5627C83.5984 75.4071 117.929 79.0255 117.929 79.0255C118.14 91.8407 115.332 107.403 109.974 120.391C109.106 100.37 107.735 86.1708 71.1857 79.8889Z" fill="#BCBEC0"/>
</g>
<path d="M64.2399 110.068C64.8959 110.195 65.1007 109.156 64.4144 109.046C64.3668 109.033 60.2877 108.234 58.7507 104.94C58.4568 104.326 57.4908 104.777 57.8085 105.398C59.5936 109.192 64.0365 110.064 64.2335 110.092L64.2399 110.068Z" fill="black"/>
<g style="mix-blend-mode:multiply">
<path d="M57.247 115.025L62.6778 109.416C63.9549 108.005 66.342 109.67 65.4726 111.37L62.0387 118.385C61.6471 119.17 60.661 119.412 59.952 118.915C59.004 118.072 55.6353 116.727 57.247 115.025ZM59.2829 117.231C61.5336 118.834 62.9539 116.799 60.6904 115.244C58.4397 113.642 57.0194 115.676 59.2829 117.231Z" fill="#A7A9AC"/>
</g>
<path d="M60.2634 117.293L62.4257 109.781C62.9204 107.954 65.7929 108.299 65.7875 110.207L66.0497 118.02C66.0694 118.891 65.3269 119.556 64.461 119.448C63.2159 119.137 59.6292 119.54 60.2396 117.287L60.2634 117.293ZM63.088 118.287C65.8285 118.647 66.1375 116.185 63.3841 115.872C60.6436 115.512 60.3346 117.974 63.088 118.287Z" fill="black"/>
<path d="M60.5942 117.204L62.7565 109.692C63.2512 107.865 66.1237 108.21 66.1183 110.119L66.3805 117.931C66.4002 118.802 65.6577 119.467 64.7919 119.36C63.5467 119.048 59.96 119.452 60.5704 117.198L60.5942 117.204ZM63.4124 118.222C66.153 118.582 66.462 116.12 63.7085 115.807C60.968 115.447 60.659 117.91 63.4124 118.222Z" fill="#E6E7E8"/>
<g style="mix-blend-mode:multiply">
<path d="M62.0791 114.271L63.4015 109.765C63.6971 108.674 65.4829 108.877 65.5035 110.029L65.6855 114.738C65.6999 115.251 65.2315 115.659 64.712 115.595C63.9735 115.395 61.7064 115.647 62.1029 114.277L62.0791 114.271Z" fill="#D1D3D4"/>
</g>
<g style="mix-blend-mode:multiply">
<path d="M65.154 115.001L64.9719 110.292C64.9658 109.654 64.2806 109.163 63.6492 109.323C64.236 108.667 65.4966 109.11 65.4797 110.022L65.6618 114.732C65.6716 115.167 65.3718 115.519 64.9457 115.582C65.086 115.441 65.1676 115.234 65.1475 115.025L65.154 115.001Z" fill="#939598"/>
</g>
<path d="M74.2205 87.9428C74.8765 88.0695 75.0813 87.03 74.395 86.9205C74.3474 86.9076 70.2683 86.1085 68.7313 82.8147C68.4374 82.2004 67.4714 82.6518 67.7891 83.2726C69.5742 87.0665 74.017 87.9386 74.214 87.9665L74.2205 87.9428Z" fill="black"/>
<g style="mix-blend-mode:multiply">
<path d="M67.2275 92.8992L72.6584 87.2906C73.9354 85.8794 76.3226 87.5445 75.4532 89.2443L72.0193 96.2595C71.6277 97.0447 70.6416 97.287 69.9326 96.7894C68.9846 95.947 65.6159 94.6018 67.2275 92.8992ZM69.2635 95.1058C71.5142 96.7084 72.9345 94.6739 70.671 93.1187C68.4203 91.516 67 93.5506 69.2635 95.1058Z" fill="#A7A9AC"/>
</g>
<path d="M70.2505 95.1438L72.4127 87.6315C72.9075 85.8047 75.78 86.1497 75.7745 88.0581L76.0367 95.8704C76.0565 96.7416 75.314 97.4063 74.4481 97.2992C73.203 96.9874 69.6163 97.3912 70.2267 95.1374L70.2505 95.1438ZM73.0686 96.1616C75.8092 96.5218 76.1182 94.059 73.3648 93.7463C70.6242 93.3861 70.3152 95.8489 73.0686 96.1616Z" fill="black"/>
<path d="M70.5748 95.0789L72.7371 87.5666C73.2318 85.7397 76.1043 86.0847 76.0989 87.9931L76.3611 95.8055C76.3808 96.6767 75.6383 97.3414 74.7724 97.2342C73.5273 96.9225 69.9406 97.3263 70.551 95.0724L70.5748 95.0789ZM73.393 96.0967C76.1335 96.4569 76.4425 93.9941 73.6891 93.6813C70.9486 93.3211 70.6396 95.784 73.393 96.0967Z" fill="#E6E7E8"/>
<g style="mix-blend-mode:multiply">
<path d="M72.0597 92.1451L73.3821 87.6394C73.6777 86.548 75.4635 86.7515 75.4841 87.903L75.6661 92.6124C75.6805 93.1256 75.2121 93.5335 74.6926 93.4692C73.9541 93.2692 71.687 93.5211 72.0835 92.1515L72.0597 92.1451Z" fill="#D1D3D4"/>
</g>
<g style="mix-blend-mode:multiply">
<path d="M75.1584 92.8824L74.9763 88.1729C74.9702 87.5347 74.285 87.0435 73.6536 87.2036C74.2404 86.5476 75.501 86.9909 75.4841 87.903L75.6662 92.6124C75.676 93.048 75.3762 93.3997 74.9501 93.4626C75.0904 93.3223 75.172 93.1152 75.152 92.9061L75.1584 92.8824Z" fill="#939598"/>
</g>
<path d="M116.916 79.7445L81.1527 80.4745C73.1055 80.638 66.709 73.7618 67.4676 65.7676C68.1572 58.5949 74.4025 53.2833 81.6248 53.7113L128.001 56.4666L116.892 79.738L116.916 79.7445Z" fill="#A97C50"/>
<path d="M68.2775 64.6627C65.5977 82.0172 91.2689 85.2259 94.8654 69.1128C97.125 53.1215 71.2339 47.8925 68.2775 64.6627Z" fill="#3C2415"/>
<path d="M77.7281 77.9173C73.4686 76.8402 68.5068 74.5798 67.7648 70.0498C72.0295 76.0176 83.0753 81.0207 87.8474 71.2357C93.64 61.9308 82.0834 57.6807 76.1892 58.5801C72.1054 59.9697 72.2555 66.4021 73.7377 69.4264C74.5535 70.946 77.2453 71.675 79.836 71.0779C81.5734 70.9881 85.4517 68.0913 83.0118 65.3934C81.0644 63.8983 77.3146 66.3206 77.0128 65.1694C76.3033 63.7294 85.5727 61.8852 84.9306 67.4664C84.8934 72.7021 75.0825 74.3743 72.6379 69.9943C71.2371 67.425 71.1904 63.1597 72.5543 60.295C74.8128 54.6932 85.4345 57.3914 89.2562 62.0678C93.9239 68.2467 85.2024 80.2471 77.7043 77.9109L77.7281 77.9173Z" fill="#A97C50"/>
<g style="mix-blend-mode:multiply">
<path d="M94.3926 73.3138C103.229 73.8224 112.109 73.3241 120.689 71.8534L116.916 79.7443L84.3437 80.3964C88.5088 79.4617 92.3036 76.8734 94.3926 73.3138Z" fill="#D1D3D4"/>
</g>
<g style="mix-blend-mode:multiply">
<path d="M98.4841 54.7119L128.025 56.4728L116.916 79.7443L99.947 80.0892C104.591 71.7211 103.769 61.8218 98.4841 54.7119Z" fill="#BCBEC0"/>
</g>
<path d="M239.577 206.699C251.682 207.507 262.865 206.716 262.073 203.598C260.007 200.085 239.188 209.93 218.254 196.214C206.283 188.49 198.611 175.182 195.423 156.646C195.272 155.79 194.456 155.213 193.598 155.362C192.739 155.512 192.161 156.323 192.313 157.179C196.647 185.549 214.189 204.331 239.57 206.723L239.577 206.699Z" fill="black"/>
<path d="M99.4495 97.882C69.923 214.843 243.803 261.906 277.301 146.046C306.827 29.0852 132.948 -17.9778 99.4495 97.882Z" fill="#2590FE"/>
<path d="M190.706 144.419C193.334 144.061 195.954 143.828 198.614 144.014C202.712 143.799 207.601 143.214 211.703 142.796C215.007 134.371 212.438 136.4 221.344 133.821C234.953 130.682 230.857 131.737 241.392 138.155L246.928 136.217L251.767 133.172C250.773 125.417 251.242 128.217 256.895 131.607L260.485 130.72L261.169 122.247L253.474 120.164C253.403 120.144 253.308 120.119 253.249 120.052L250.257 117.128C249.27 118.694 248.679 120.877 246.985 121.844C246.035 121.765 245.069 121.555 244.106 121.523C243.814 121.469 243.61 121.185 243.663 120.894L244.675 115.081L240.937 110.377C240.902 110.316 240.844 110.25 240.839 110.172L239.673 105.604C238.183 104.309 235.968 103.327 235.238 101.398C235.238 101.398 235.238 101.398 235.232 101.421C234.029 99.1602 232.411 96.6341 230.235 95.2298C223.45 95.7352 226.406 97.0958 221.837 91.6825C221.661 89.5974 222.922 87.1123 222.074 85.0493C220.59 83.4503 223.574 80.3623 224.426 78.9126C224.521 78.658 233.236 75.7468 233.423 75.6194C233.592 75.5632 233.776 75.6386 233.863 75.7895L238.525 84.5387L246.257 87.8041L250.133 84.0663C247.167 81.9898 243.867 80.2046 241.44 77.4592C240.72 75.5837 241.16 73.4874 241.297 71.5638C241.336 70.7594 249.407 76.7394 249.613 76.6422C249.684 76.6616 259.163 76.1218 259.228 76.1649C259.973 76.3411 269.04 78.9241 269.505 78.7189C277.913 94.3139 281.852 112.34 280.099 130.71C279.138 130.577 277.01 129.466 276.132 129.024C275.68 129.182 275.492 123.835 275.388 123.653C274.613 123.494 273.339 123.099 272.795 123.69C272.588 125.212 273.311 126.885 273.78 128.362C274.389 128.756 268.983 133.047 268.882 133.325L268.118 135.487C268.382 135.737 262.109 138.698 261.992 138.845C261.902 139.177 256.917 137.572 256.683 137.585L249.468 139.96L243.502 142.826C243.306 143.079 240.046 141.992 239.765 141.992C238.917 147.009 241.575 152.49 239.212 157.249C236.899 159.373 234.285 161.186 231.937 163.249C230.126 165.026 227.904 166.435 225.437 167.142C224.539 167.434 223.586 166.896 223.123 167.942C221.912 170.339 220.885 173.091 219.531 175.449C217.49 178.64 219.799 180.029 219.042 183.389C218.477 186.139 215.805 187.223 216.29 190.436C216.293 190.615 216.209 190.923 216.117 191.077C215.113 192.613 214.011 193.944 212.907 195.377C213.531 196.564 212.125 197.508 211.565 198.349C210.329 199.797 209.338 201.286 207.976 202.725C207.12 203.716 205.578 204.596 204.309 203.616C203.273 203.005 202.036 202.568 201.368 201.445C200.453 199.822 201.753 198.137 202.444 196.719C203.662 194.299 205.198 191.837 206.065 189.297C204.982 188.29 202.099 185.905 200.909 184.921C200.637 184.695 200.682 184.248 200.984 184.076C202.551 183.201 205.278 181.342 203.62 179.442C197.673 172.509 198.115 178.053 198.45 167.754C190.432 163.087 194.65 166.394 194.617 156.886C194.769 154.814 193.492 153.959 192.654 152.331C191.544 149.917 190.963 147.341 190.491 144.742C190.475 144.611 190.561 144.481 190.693 144.466L190.706 144.419ZM193.098 54.7675L194.126 50.9715C190.208 44.3846 188.224 45.1969 196.24 44.7703L201.273 44.5034C201.351 44.4991 201.422 44.5184 201.511 44.5679C202.962 45.7248 205.924 48.004 207.405 49.1436C210.108 48.9842 212.827 48.5746 215.486 48.4798C217.167 49.8263 220.552 52.5257 222.239 53.8484L225.653 51.1568C225.72 51.0986 225.804 51.0705 225.882 51.0661C228.128 50.9868 232.668 50.841 234.907 50.7854C235.189 50.7852 235.418 50.9748 235.443 51.2616L236.274 57.4454C236.469 57.5747 241.734 59.0004 241.626 59.3023L243.425 62.3868C243.453 62.4708 245.445 65.7859 245.295 65.7709C245.406 66.8705 243.176 66.4194 242.593 66.5923C238.752 65.1958 233.374 62.7717 229.626 61.222L225.039 65.8875L221.935 71.5914C221.142 72.0642 217.956 70.514 216.798 70.3532L212.12 68.9335C211.174 67.3277 210.217 65.668 209.267 63.9846C206.765 62.0846 203.201 59.2861 200.694 57.3085C199.585 56.7788 192.629 55.8375 193.074 54.7611L193.098 54.7675ZM104.396 138.438C104.409 138.39 104.933 136.928 104.952 136.857C104.922 136.212 108.687 137.792 109.235 137.94C113.741 145.756 112.943 142.942 111.149 151.929C108.492 149.275 105.479 146.523 103.079 143.582C102.647 143.006 104.249 139.264 104.402 138.414L104.396 138.438ZM138.307 44.8443L149.102 49.8304C149.197 49.8562 158.289 46.3085 158.092 46.9426C159.322 48.0652 164.772 53.3356 165.983 54.249C167.05 55.1236 169.843 57.459 170.952 58.3704C171.355 58.5814 171.045 60.7639 171.104 61.111C171.448 61.6369 165.919 63.832 165.699 64.078L164.686 69.6099L175.327 72.2369C175.47 72.2756 175.6 72.3618 175.67 72.4825L178.436 77.2805C178.553 77.4141 180.089 84.9603 180.146 85.1284C180.225 85.4044 179.992 85.6978 179.704 85.7218L173.177 86.2205C173.075 86.2184 172.973 86.2164 172.891 86.1431L164.863 80.7604L152.998 78.5914C152.998 78.5914 150.673 82.9275 150.697 82.9339C150.635 83.0698 150.466 83.126 150.306 83.0572L140.267 78.3013L137.905 84.9448C138.001 84.9706 149.03 87.9574 149.112 88.0307L151.547 90.3707C163.233 86.0232 158.602 85.9404 170.733 89.2003C173.591 91.2985 178.895 95.7905 181.216 98.4562L183.985 104.376C184.02 104.436 184.024 104.514 184.005 104.585C184.005 104.585 182.365 110.736 182.358 110.76C182.313 110.926 182.141 117.322 182.031 117.445L178.123 124.51C178.097 124.605 178 124.68 177.892 124.702L168.762 127.45C168.466 127.599 154.265 123.575 153.984 123.575L151.357 127.422C151.271 127.551 146.157 132.176 146.047 132.299L144.62 141.819C144.592 142.015 139.414 153.676 139.37 153.842C139.582 154.002 134.649 156.638 134.569 156.744C134.358 157.145 134.338 159.864 133.696 159.971L127.552 162.356C126.854 163.236 119.613 151.548 119.238 151.421C119.162 151.324 119.123 151.186 119.114 151.031L119.132 143.6L117.439 136.444L114.83 133.802C114.689 133.662 114.615 133.464 114.643 133.267L116.339 118.601L109.103 104.061C109.033 103.941 109.024 103.785 109.063 103.643C108.665 102.186 120.532 106.138 120.865 105.948L129.753 93.9926L120.719 101.859C120.555 101.993 120.298 102 120.133 101.853C119.987 101.636 108.724 91.5826 108.669 91.3131C108.619 91.1212 108.718 90.9443 108.91 90.8946L120.442 87.7785L122.994 83.453L117.068 83.147L105.677 85.4608L104.033 85.0157C111.415 68.145 123.539 54.3415 138.368 44.8098L138.307 44.8443Z" fill="#5DDDDB"/>
<path opacity="0.2" d="M262.124 154.694C284.405 82.1427 202.275 13.9877 135.065 46.9967C246.51 -25.2941 345.371 146.4 226.508 205.579C243.379 193.698 256.322 176.118 262.124 154.694Z" fill="white"/>
<path d="M139.696 271.222C139.982 271.3 140.284 271.127 140.337 270.836C139.948 270.196 150.765 226.193 149.267 225.966C148.981 225.888 148.696 226.091 148.649 226.359C148.997 226.962 138.306 270.973 139.696 271.222Z" fill="black"/>
<path d="M167.99 244.634C168.324 244.725 168.676 244.464 168.64 244.123L168.399 231.605C168.399 230.943 167.328 230.933 167.345 231.625L167.586 244.143C167.6 244.376 167.752 244.57 167.966 244.628L167.99 244.634Z" fill="black"/>
<path d="M170.062 232.922L154.841 230.404L123.765 219.11L124.478 216.477L170.911 229.79L170.062 232.922Z" fill="black"/>
<path d="M170.601 229.706C164.92 231.045 127.109 217.622 124.979 216.612C124.979 216.612 125.935 212.135 148.398 218.6C160.519 222.087 171.72 225.858 170.607 229.682L170.601 229.706Z" fill="#8B5644"/>
<path d="M170.601 229.706C164.92 231.045 127.108 217.622 124.978 216.612C124.978 216.612 126.25 212.577 147.929 220.332C159.821 224.571 164.158 223.097 170.601 229.706Z" fill="#684133"/>
<path d="M180.541 290.815C182.256 291.279 183.132 288.613 181.451 287.929C121.32 261.28 136.094 271.495 182.58 236.362C184.155 235.363 182.648 232.714 181.01 233.849L133.107 266.663C132.664 266.976 132.397 267.489 132.446 268.062C132.478 268.606 132.804 269.102 133.285 269.308C133.595 269.392 180.266 290.791 180.541 290.815Z" fill="black"/>
<path d="M132.923 273.667C133.749 273.355 133.586 274.712 134.369 274.465C134.537 274.409 134.687 274.424 134.847 274.493C135.001 274.586 135.118 274.719 135.151 274.881C135.346 275.672 136.415 274.841 136.597 275.68C136.763 276.387 137.534 275.807 137.892 276.184C138.074 276.36 138.062 276.688 138.311 276.806C138.548 276.972 138.809 276.763 139.047 276.828C139.584 276.922 139.507 277.869 140.181 277.644C140.873 277.449 140.843 278.129 141.203 278.404C141.564 278.579 142.044 278.225 142.305 278.677C142.582 279.542 142.931 279.102 143.551 279.269C143.924 279.498 143.928 280.237 144.524 280.017C145.534 279.781 145.06 281.155 146.234 280.786C146.407 280.807 146.591 280.882 146.672 281.057C146.943 281.945 147.329 281.464 147.918 281.649C148.291 281.877 148.295 282.617 148.891 282.396C149.901 282.161 149.427 283.535 150.577 283.159C151.187 283.171 151.078 284.236 151.789 283.971C152.103 283.852 152.482 284.056 152.571 284.386C152.644 284.686 152.982 284.854 153.241 284.746C154.06 284.458 153.904 285.791 154.687 285.545C155.379 285.35 155.324 286.023 155.708 286.305C156.016 286.49 156.357 286.175 156.652 286.408C156.918 286.557 156.863 286.949 157.16 287.08C157.468 287.266 157.809 286.95 158.104 287.183C158.37 287.332 158.315 287.724 158.612 287.856C159.052 288.026 159.616 287.643 159.819 288.31C159.985 289.017 160.756 288.436 161.114 288.813C161.629 290.124 162.16 288.918 162.688 289.8C162.822 290.625 163.606 289.997 164.005 290.411C164.531 291.776 165.172 290.447 165.631 291.488C165.704 291.788 166.042 291.956 166.301 291.848C167.12 291.56 166.964 292.893 167.747 292.647C168.439 292.452 168.384 293.125 168.768 293.407C169.208 293.577 169.771 293.195 169.975 293.861C170.113 294.484 170.761 294.074 171.14 294.279C171.437 294.41 171.393 294.856 171.689 294.988C171.973 295.166 172.308 294.875 172.592 295.054C172.913 295.192 172.845 295.631 173.141 295.763C173.425 295.942 173.76 295.65 174.044 295.829C174.417 296.057 174.421 296.797 175.018 296.576C175.686 296.375 175.679 297.061 176.039 297.337C176.479 297.507 177.043 297.125 177.246 297.791C177.464 298.589 178.492 297.721 178.691 298.59C178.829 299.213 179.447 298.82 179.833 299.001C180.533 299.343 179.949 300.459 179.262 300.069C178.918 299.925 179.016 299.467 178.689 299.353C178.399 299.198 178.088 299.496 177.81 299.294C177.49 299.156 177.575 298.746 177.285 298.591C176.983 298.382 176.666 298.704 176.365 298.495C176.044 298.357 176.13 297.947 175.839 297.792C175.406 297.598 174.758 298.009 174.615 297.308C174.447 296.702 173.853 297.101 173.467 296.921C173.123 296.776 173.221 296.319 172.894 296.205C172.603 296.05 172.293 296.348 172.015 296.145C171.694 296.008 171.78 295.598 171.489 295.443C171.08 295.255 170.384 295.653 170.265 294.958C170.058 294.215 168.941 295.033 168.82 294.16C168.774 294.045 168.705 293.925 168.592 293.869C168.29 293.66 167.973 293.981 167.672 293.772C167.351 293.635 167.437 293.225 167.146 293.07C166.845 292.861 166.528 293.182 166.226 292.973C165.906 292.836 165.991 292.426 165.701 292.271C165.399 292.062 165.082 292.383 164.781 292.174C164.436 292.03 164.534 291.573 164.207 291.459C163.917 291.304 163.606 291.602 163.329 291.399C162.984 291.255 163.082 290.798 162.755 290.684C162.465 290.529 162.154 290.827 161.877 290.624C161.532 290.48 161.63 290.023 161.303 289.909C161.013 289.753 160.732 290.034 160.425 289.849C160.104 289.711 160.189 289.301 159.899 289.146C159.598 288.937 159.28 289.259 158.979 289.05C158.635 288.906 158.733 288.448 158.406 288.334C158.115 288.179 157.805 288.477 157.527 288.275C157.183 288.131 157.281 287.673 156.954 287.559C156.663 287.404 156.353 287.702 156.075 287.5C155.731 287.355 155.829 286.898 155.502 286.784C155.211 286.629 154.901 286.927 154.623 286.724C154.278 286.58 154.377 286.123 154.05 286.009C153.759 285.854 153.448 286.152 153.171 285.949C152.826 285.805 152.925 285.348 152.598 285.234C152.307 285.079 151.996 285.376 151.719 285.174C151.374 285.03 151.473 284.572 151.146 284.458C151.033 284.402 150.907 284.394 150.769 284.433C149.984 284.781 150.046 283.422 149.323 283.634C148.66 283.913 148.621 283.113 148.248 282.884C147.958 282.729 147.647 283.027 147.369 282.825C147.049 282.687 147.134 282.277 146.844 282.122C146.542 281.913 146.225 282.235 145.924 282.026C145.603 281.888 145.688 281.478 145.398 281.323C145.097 281.114 144.779 281.436 144.478 281.227C144.157 281.089 144.243 280.679 143.952 280.524C143.651 280.315 143.334 280.637 143.032 280.428C142.712 280.29 142.797 279.88 142.507 279.725C142.205 279.516 141.888 279.838 141.587 279.629C141.242 279.485 141.341 279.027 141.014 278.913C140.723 278.758 140.412 279.056 140.135 278.854C139.79 278.709 139.889 278.252 139.562 278.138C139.271 277.983 138.96 278.281 138.683 278.079C138.338 277.934 138.437 277.477 138.11 277.363C137.819 277.208 137.508 277.506 137.231 277.303C136.886 277.159 136.985 276.702 136.658 276.588C136.367 276.433 136.087 276.713 135.779 276.528C135.434 276.384 135.533 275.927 135.205 275.813C134.915 275.658 134.604 275.955 134.327 275.753C134.006 275.615 134.092 275.205 133.801 275.05C133.5 274.841 133.183 275.163 132.881 274.954C132.561 274.816 132.652 274.383 132.332 274.245L132.573 273.826C132.709 273.889 132.859 273.904 132.973 273.858L132.923 273.667Z" fill="black"/>
<path d="M197.645 273.827L191.424 271.684L181.842 270.056L187.713 274.244L197.645 273.827Z" fill="#414042"/>
<path d="M187.171 274.453L197.028 276.104L197.645 273.827L187.787 272.176L187.171 274.453Z" fill="#FFB617"/>
<path d="M181.225 272.334L187.171 274.454L187.788 272.176L181.842 270.056L181.225 272.334Z" fill="black"/>
<path d="M185.294 291.771C185.961 291.951 186.671 291.405 186.606 290.7L185.422 272.223C185.352 270.88 183.225 270.991 183.319 272.341C183.68 272.897 183.765 292.222 185.27 291.764L185.294 291.771Z" fill="url(#paint0_linear_100_1307)"/>
<path d="M183.687 271.549C184.153 271.624 184.511 272.002 184.556 272.497L185.739 290.975C185.757 291.285 185.626 291.581 185.389 291.796C184.917 291.745 184.572 291.321 184.544 290.855L183.361 272.378C183.343 272.067 183.474 271.772 183.681 271.573L183.687 271.549Z" fill="black"/>
<path d="M185.212 278.099C197.676 279.565 196.732 303.348 183.076 301.942C170.612 300.476 171.556 276.693 185.212 278.099ZM178.7 284.867C180.157 285.72 183.094 289.036 183.982 285.661C184.013 284.319 185.905 279.789 183.282 279.843C181.244 280.004 176.341 282.343 178.7 284.867ZM186.487 282.265C186.332 283.878 184.538 288.612 187.526 288.53L190.849 288.157C194.669 287.46 187.648 277.791 186.487 282.265ZM192.473 292.264C192.839 289.307 189.264 290.707 187.725 290.723C184.825 291.236 187.278 295.491 187.739 297.093C189.659 300.389 192.18 294.196 192.473 292.264ZM186.04 297.983C185.377 296.657 184.546 291.416 182.135 293.615C181.197 294.812 177.755 297.139 179.813 298.792C181.459 300.078 186.75 301.689 186.034 298.006L186.04 297.983ZM178.418 294.594C179.648 293.17 183.032 290.776 180.644 288.831L177.749 286.774C174.22 284.698 175.325 297.424 178.394 294.588L178.418 294.594Z" fill="black"/>
<path d="M128.305 267.68L194.417 294.241C196.995 287.555 193.799 279.814 186.721 277.719L136.851 262.558C132.793 261.306 129.812 264.192 128.288 267.649L128.305 267.68Z" fill="#760046"/>
<path opacity="0.5" d="M193.928 292.836C195.631 286.549 191.999 280.039 185.738 278.14C184.409 278.137 132.109 260.714 132.09 263.051C133.43 259.518 184.183 277.744 186.721 277.719C193.775 279.807 196.995 287.555 194.417 294.241L193.633 293.927L193.928 292.836Z" fill="white"/>
<path d="M136.502 262.998C143.447 264.828 141.498 277.313 133.956 275.423C127 273.539 128.828 261.124 136.502 262.998Z" fill="black"/>
<path d="M129.837 268.069C128.773 273.128 135.666 275.53 136.988 270.082C138.113 264.886 131.15 262.465 129.837 268.069Z" fill="url(#paint1_linear_100_1307)"/>
<path d="M130.116 268.17C129.33 271.828 134.331 273.564 135.272 269.617C136.119 265.925 131.029 264.139 130.116 268.17Z" fill="url(#paint2_linear_100_1307)"/>
<path d="M136.763 230.219C181.4 227.69 186.785 304.958 141.878 307.821C97.2413 310.35 91.8562 233.082 136.763 230.219ZM107.931 270.311C111.522 314.548 169.745 311.421 167.579 266.83C163.988 222.593 105.765 225.72 107.931 270.311Z" fill="#231F20"/>
<path d="M167.579 266.83C166.27 244.754 145.906 228.748 126.644 236.901C127.759 234.86 129.123 232.937 130.646 231.185C161.206 222.196 184.556 264.094 168.603 290.052C166.285 290.112 163.911 290.004 161.517 289.686C165.817 283.44 168.138 275.436 167.555 266.824L167.579 266.83Z" fill="#414042"/>
<path d="M173.275 264.018C171.448 264.44 169.468 264.668 167.367 264.685C165.808 251.938 158.077 241.491 147.924 237.061C150.519 236.261 153.554 235.912 156.813 236.056C165.417 242.053 171.681 252.153 173.275 264.018Z" fill="#808285"/>
<path d="M137.515 233.58C178.618 231.164 182.564 303.077 141.827 305.745C100.723 308.161 96.7772 236.248 137.515 233.58ZM110.982 271.035C114.206 312.474 167.366 308.688 165.501 267.516C162.277 226.077 109.118 229.863 110.982 271.035Z" fill="black"/>
<path d="M135.622 233.297C176.761 230.941 181.277 302.448 140.163 305.09C99.0486 307.452 94.5085 235.939 135.622 233.297ZM109.089 270.471C112.368 311.518 165.817 308.269 163.868 267.124C160.589 226.078 107.14 229.327 109.089 270.471Z" fill="url(#paint3_linear_100_1307)"/>
<path d="M135.843 231.065C179.637 228.537 184.456 304.684 140.687 307.499C96.8941 310.027 92.0748 233.88 135.843 231.065ZM107.583 270.649C111.065 314.348 167.971 310.889 165.898 267.088C162.417 223.39 105.51 226.848 107.583 270.649Z" fill="black"/>
<path d="M171.98 286.739C189.847 239.553 128.093 199.732 103.814 251.523C106.03 252.403 108.503 251.392 109.484 249.188C134.447 207.615 183.508 246.341 168.057 285.269L171.95 286.756L171.98 286.739Z" fill="#EC008C"/>
<g style="mix-blend-mode:multiply">
<path d="M135.141 227.335C164.541 225.366 182.663 261.264 171.98 286.739L168.087 285.252C179.648 257.952 154.422 220.053 124.162 234.548C123.58 233.295 123.12 231.974 122.811 230.566C126.657 228.73 130.82 227.616 135.141 227.335Z" fill="#BCBEC0"/>
</g>
<path d="M180.583 292.456C182.441 292.959 183.366 290.205 181.548 289.458C116.069 261.03 132.474 271.737 182.128 235.859C183.848 234.796 182.103 232.083 180.411 233.229L128.987 266.77C128.52 267.076 128.241 267.637 128.29 268.211C128.339 268.784 128.689 269.286 129.211 269.53C129.568 269.626 180.277 292.45 180.6 292.486L180.583 292.456Z" fill="#F466BA"/>
<g style="mix-blend-mode:multiply">
<path d="M128.493 268.876C128.794 268.143 179.851 235.394 180.382 234.85C181.127 234.364 182.14 234.588 182.599 235.349C130.073 273.71 115.105 261.1 182.301 291.775C181.894 292.429 181.034 292.68 180.357 292.344C179.674 291.751 128.81 269.879 128.5 268.852L128.493 268.876Z" fill="#BCBEC0"/>
</g>
<g style="mix-blend-mode:multiply">
<path d="M174.111 237.328L180.388 233.222C182.079 232.076 183.831 234.766 182.105 235.852L175.119 240.403C174.213 239.597 173.993 238.519 174.087 237.322L174.111 237.328Z" fill="#A7A9AC"/>
</g>
<path d="M131.502 270.226C132.736 270.204 133.713 269.144 133.562 267.906C133.295 265.211 128.839 265.71 129.208 268.408C129.337 269.538 130.369 270.352 131.502 270.226Z" fill="#BF8920"/>
<path d="M129.208 268.408C129.479 270.9 132.886 270.499 132.561 268.017C132.314 265.531 128.883 265.926 129.208 268.408Z" fill="#FFB72B"/>
<g style="mix-blend-mode:multiply">
<path d="M129.633 268.065C129.406 269.658 131.615 270.282 131.946 268.589C132.3 266.902 129.853 266.214 129.633 268.065Z" fill="black"/>
</g>
<path d="M180.424 292.947C216.488 297.341 201.611 254.554 242.136 253.331C243.292 253.313 244.237 252.372 244.216 251.221C244.196 250.069 243.25 249.125 242.094 249.143C226.075 249.287 211.694 258.864 205.484 273.581C202.413 283.318 193.385 290.218 183.075 289.107L183.383 224.051C183.386 222.906 182.47 221.945 181.291 221.956C180.142 221.951 179.173 222.885 179.193 224.037L178.875 290.924C178.869 291.89 179.519 292.702 180.424 292.947Z" fill="#F466BA"/>
<g style="mix-blend-mode:multiply">
<path d="M209.362 275.217C205.406 287.464 193.341 295.478 180.424 292.947C179.519 292.702 178.876 291.866 178.875 290.924L179.179 225.128C179.55 224.796 180.039 224.597 180.578 224.59C181.751 224.602 180.719 225.01 180.716 226.155L180.408 291.211C190.761 292.258 201.83 286.318 204.771 276.215C210.981 261.497 225.338 251.914 241.381 251.777C242.225 251.776 242.94 252.25 243.286 252.955C228.675 253.658 215.074 261.205 209.369 275.194L209.362 275.217Z" fill="#BCBEC0"/>
</g>
<g style="mix-blend-mode:multiply">
<path d="M232.849 250.332C235.837 249.588 238.939 249.18 242.111 249.174C244.836 249.122 244.882 253.387 242.154 253.361C238.873 253.39 235.674 253.873 232.599 254.746C231.382 252.914 231.898 251.577 232.849 250.332Z" fill="#A7A9AC"/>
</g>
<g style="mix-blend-mode:multiply">
<path d="M181.315 221.963C182.488 221.975 183.41 222.912 183.4 224.081L183.318 240.153C181.785 240.527 180.401 240.254 179.118 239.703L179.193 224.037C179.197 222.892 180.142 221.951 181.315 221.963Z" fill="#A7A9AC"/>
</g>
<path d="M182.054 268.611C209.873 276.069 216.282 244.471 242.887 248.009C244.851 248.311 245.305 245.124 243.292 244.91C215.958 240.665 209.557 272.138 182.87 265.598C180.953 265.028 180.088 268.13 182.048 268.635L182.054 268.611Z" fill="#F466BA"/>
<g style="mix-blend-mode:multiply">
<path d="M182.433 267.212C208.876 274.653 217.646 239.059 244.122 247.604C231.325 246.991 222.519 251.558 214.155 258.842C205.993 265.188 194.106 274.243 181.002 267.588C181.379 267.232 181.927 267.1 182.451 267.242L182.433 267.212Z" fill="#BCBEC0"/>
</g>
<g style="mix-blend-mode:multiply">
<path d="M233.732 244.994C235.248 244.87 245.122 243.343 244.612 246.642C244.506 247.505 243.729 248.109 242.863 248.002C239.352 247.561 236.219 247.705 233.33 248.272C232.826 247.016 232.918 245.92 233.701 245.012L233.732 244.994Z" fill="#A7A9AC"/>
</g>
<path d="M175.077 288.24C173.375 296.412 184.496 300.289 186.622 291.494C188.453 283.128 177.178 279.158 175.077 288.24Z" fill="url(#paint4_linear_100_1307)"/>
<path d="M175.571 288.399C174.306 294.295 182.364 297.114 183.882 290.752C185.179 284.737 177.08 281.881 175.571 288.399Z" fill="url(#paint5_linear_100_1307)"/>
<path d="M178.703 292.787C183.074 292.697 182.718 286.082 178.359 286.506C176.479 286.557 174.977 288.136 175.205 290.032C175.4 291.765 176.988 292.985 178.703 292.787Z" fill="#603913"/>
<path d="M175.205 290.032C175.679 293.852 180.747 293.264 180.328 289.433C179.854 285.612 174.785 286.2 175.205 290.032Z" fill="#8B5E3C"/>
<g style="mix-blend-mode:multiply">
<path d="M175.838 289.49C175.487 291.916 178.881 292.886 179.378 290.296C179.946 287.725 176.195 286.658 175.838 289.49Z" fill="black"/>
</g>
<path d="M178.008 308.667C178.675 308.848 179.385 308.302 179.321 307.597L178.137 289.119C178.066 287.776 175.939 287.888 176.034 289.237C176.395 289.794 176.479 309.119 177.984 308.661L178.008 308.667Z" fill="url(#paint6_linear_100_1307)"/>
<path d="M176.378 288.439C176.843 288.514 177.201 288.892 177.246 289.387L178.43 307.865C178.448 308.175 178.317 308.471 178.079 308.686C177.607 308.635 177.262 308.211 177.235 307.745L176.051 289.268C176.033 288.957 176.164 288.662 176.371 288.463L176.378 288.439Z" fill="black"/>
<path d="M181.212 307.599L175.021 305.439L165.433 303.836L171.311 307.999L181.212 307.599Z" fill="#414042"/>
<path d="M170.762 308.233L180.595 309.877L181.212 307.599L171.379 305.955L170.762 308.233Z" fill="#FFB617"/>
<path d="M164.816 306.113L170.762 308.233L171.379 305.955L165.433 303.836L164.816 306.113Z" fill="black"/>
<path d="M178.767 233.445L183.363 233.85C184.109 233.924 184.748 233.359 184.816 232.639C184.889 231.895 184.32 231.257 183.597 231.188L179.002 230.784C178.256 230.709 177.617 231.275 177.549 231.995C177.476 232.739 178.044 233.377 178.767 233.445Z" fill="black"/>
<path d="M166.226 221.314C163.605 226.742 195.155 238.265 196.641 232.403C199.261 226.976 167.704 215.476 166.226 221.314Z" fill="#3C2415"/>
<path d="M197.452 229.313C195.512 223.541 189.341 219.706 176.954 216.351C173.157 215.832 168.14 213.964 165.976 218.649C164.975 220.645 165.936 223.044 167.892 223.472C167.892 223.472 179.58 223.836 188.137 229.438L190.364 231.034C191.433 231.808 199.078 233.98 197.459 229.289L197.452 229.313Z" fill="#8B5644"/>
<path d="M166.648 217.584C168.902 214.171 173.758 215.97 176.954 216.351C186.054 218.153 193.114 223.427 193.114 223.427C195.186 224.37 200.171 231.169 196.149 232.143C190.365 213.846 173.643 224.8 166.642 217.607L166.648 217.584Z" fill="#A27869"/>
<path d="M190.21 230.942C185.746 227.314 179.203 225.134 174.52 224.299C171.907 219.975 191.882 223.068 190.21 230.942Z" fill="#684133"/>
<path d="M165.082 244.611C165.511 244.727 165.927 244.228 165.677 243.83L157.091 229.46C156.952 229.218 156.618 229.128 156.376 229.266C156.134 229.404 156.044 229.736 156.184 229.978C156.502 230.217 164.58 244.577 165.064 244.581L165.082 244.611Z" fill="black"/>
<path d="M130.644 268.771C130.953 268.855 131.269 268.635 131.298 268.337C130.848 267.732 137.487 222.445 135.975 222.366C135.676 222.336 135.415 222.545 135.392 222.819C135.752 223.375 129.366 268.578 130.644 268.771Z" fill="black"/>
<g style="mix-blend-mode:multiply">
<path d="M147.966 158.258C150.884 150.696 100.926 132.838 87.5875 100.425C85.7259 95.5914 90.0062 93.2873 93.621 91.3633C96.1898 96.7954 153.206 155.527 152.711 157.353C150.733 164.661 107.552 171.251 81.1752 154.788L83.75 150.85C98.7003 153.804 146.168 162.915 147.966 158.258Z" fill="#A7A9AC"/>
</g>
<path d="M147.927 155.854C148.604 154.204 103.462 113.56 89.3307 100.031C87.1782 97.971 87.2595 94.5552 89.4806 92.5848C91.6284 90.6963 94.9097 90.9483 96.7487 93.127C109.274 108.055 153.777 154.459 153.34 156.072C151.974 162.909 100.929 168.235 80.8039 153.516C79.7191 151.006 82.0423 148.376 84.6736 149.14C106.584 155.379 146.175 159.963 147.91 155.824L147.927 155.854Z" fill="#D7DF23"/>
<path d="M90.5567 95.881C89.6931 98.8812 94.4335 100.165 95.2019 97.139C96.0655 94.1388 91.325 92.855 90.5567 95.881Z" fill="black"/>
<path d="M82.2991 151.96C81.697 154.089 85.0558 154.998 85.5864 152.85C86.1885 150.721 82.8297 149.812 82.2991 151.96Z" fill="black"/>
<g style="mix-blend-mode:multiply">
<path d="M146.678 154.803C147.531 154.957 148.102 155.774 147.949 156.624C143.754 180.138 148.507 198.181 164.945 210.654C145.62 207.331 140.495 176.123 144.859 156.042C145.013 155.192 145.831 154.624 146.684 154.779L146.678 154.803Z" fill="#D1D3D4"/>
</g>
<path d="M196.705 201.481C208.844 201.127 219.879 199.277 218.787 196.231C216.382 192.931 196.621 204.718 174.464 193.064C161.819 186.507 152.882 174.003 147.927 155.854C147.691 155.026 146.833 154.514 146.002 154.747C145.172 154.981 144.66 155.835 144.896 156.663C151.957 184.499 171.208 201.502 196.705 201.481Z" fill="black"/>
<path d="M247.205 310.523C248.392 311.048 267.108 264.219 267.724 263.928C267.849 263.656 267.723 263.367 267.45 263.242C266.104 262.547 247.529 309.516 246.865 309.795C246.734 310.09 246.902 310.416 247.211 310.499L247.205 310.523Z" fill="black"/>
<path d="M255.886 210.301L267.897 212.306C271.668 212.92 272.63 207.196 268.841 206.552L256.83 204.547C255.237 204.294 253.721 205.36 253.47 206.947C253.219 208.535 254.292 210.048 255.886 210.301Z" fill="#754C29"/>
<path d="M271.24 209.875C271.006 211.493 269.484 212.583 267.873 212.299L255.862 210.294C254.245 210.035 253.154 208.492 253.459 206.894L271.246 209.852L271.24 209.875Z" fill="#3C2415"/>
<path d="M253.47 206.947C252.855 210.728 258.607 211.675 259.246 207.9C259.854 204.144 254.108 203.173 253.47 206.947Z" fill="#603913"/>
<path d="M254.204 207.07C253.71 209.839 258.065 210.56 258.488 207.772C258.982 205.003 254.627 204.281 254.204 207.07Z" fill="black"/>
<path d="M244.779 220.815C251.078 220.688 255.236 217.23 254.03 210.639C254.056 207.615 257.396 210.201 257.914 207.718C258.018 203.748 250.146 206.098 250.888 210.908C251.758 216.008 249.486 217.124 244.89 217.764C243.287 218.017 243.212 220.467 244.779 220.815Z" fill="#F466BA"/>
<g style="mix-blend-mode:multiply">
<path d="M246.229 219.145C249.537 218.92 252.638 216.628 252.256 213.036C251.602 209.879 254.375 206.531 257.918 207.235C257.837 209.989 255.612 208.291 254.539 209.325C254.168 209.657 253.985 210.143 254.023 210.662C255.213 217.223 251.219 220.547 244.994 220.873C244.907 220.06 245.418 219.307 246.253 219.152L246.229 219.145Z" fill="#BCBEC0"/>
</g>
<path d="M247.038 312.082C248.557 312.519 250.087 311.023 249.606 309.493L247.518 302.001C246.528 290.834 247.323 281.856 247.954 274.617C248.646 263.752 250.005 257.321 242.556 253.292C239.962 252.768 239.086 256.758 241.654 257.377C245.233 260.969 244.408 265.431 243.759 274.245C243.101 281.68 242.307 290.938 243.354 302.554C243.37 302.685 243.386 302.817 243.431 302.931L245.569 310.615C245.777 311.359 246.348 311.895 247.038 312.082Z" fill="#3B0023"/>
<path d="M245.471 300.402C254.203 302.716 251.745 318.399 242.284 316.041C233.542 313.673 235.831 298.046 245.471 300.402Z" fill="black"/>
<path d="M237.069 306.785C235.73 313.145 244.401 316.156 246.048 309.319C247.48 302.805 238.696 299.739 237.069 306.785Z" fill="url(#paint7_linear_100_1307)"/>
<path d="M237.444 306.912C236.455 311.508 242.741 313.694 243.904 308.738C244.96 304.084 238.555 301.865 237.444 306.912Z" fill="url(#paint8_linear_100_1307)"/>
<path d="M245.481 266.944C292.688 264.271 298.397 346.007 250.897 349.008C203.689 351.68 197.98 269.945 245.481 266.944ZM214.989 309.387C218.784 356.176 280.356 352.86 278.064 305.715C274.269 258.926 212.697 262.242 214.989 309.387Z" fill="#231F20"/>
<path d="M278.064 305.715C276.689 282.373 255.121 265.429 234.761 274.048C235.939 271.872 237.376 269.867 239.003 268.016C271.314 258.508 296.032 302.814 279.159 330.279C276.686 330.348 274.193 330.208 271.666 329.905C276.188 323.312 278.668 314.816 278.064 305.715Z" fill="#414042"/>
<path d="M284.093 302.713C282.181 303.163 280.07 303.406 277.843 303.414C276.202 289.931 268.022 278.88 257.275 274.187C260.032 273.355 263.229 272.973 266.668 273.115C275.768 279.45 282.387 290.129 284.069 302.706L284.093 302.713Z" fill="#808285"/>
<path d="M246.276 270.521C289.771 267.963 293.945 344.037 250.841 346.853C207.346 349.411 203.172 273.337 246.276 270.521ZM218.213 310.133C221.609 353.961 277.866 349.97 275.885 306.398C272.489 262.57 216.225 266.584 218.213 310.133Z" fill="black"/>
<path d="M244.289 270.212C287.794 267.708 292.593 343.365 249.112 346.156C205.607 348.66 200.808 273.003 244.289 270.212ZM216.201 309.537C219.658 352.949 276.199 349.519 274.15 306.005C270.693 262.593 214.153 266.023 216.201 309.537Z" fill="url(#paint9_linear_100_1307)"/>
<path d="M244.512 267.878C290.821 265.217 295.936 345.747 249.645 348.719C203.336 351.381 198.22 270.85 244.512 267.878ZM214.611 309.743C218.303 355.969 278.487 352.303 276.306 305.977C272.614 259.751 212.43 263.417 214.611 309.743Z" fill="black"/>
<path d="M208.527 300.303C211.088 300.666 213.37 298.941 213.795 296.332C217.846 280.24 230.315 268.847 245.329 268.074C266.008 266.773 270.897 284.599 277.455 279.55C256.192 250.338 212.494 264.504 208.527 300.303Z" fill="#EC008C"/>
<path opacity="0.5" d="M244.799 263.703C257.298 262.963 269.209 268.735 277.478 279.556C276.992 279.934 276.437 280.191 275.859 280.34C261.92 261.566 234.373 259.81 219.054 276.721C225.635 269.132 234.684 264.325 244.769 263.72L244.799 263.703Z" fill="white"/>
<g style="mix-blend-mode:multiply">
<path d="M243.126 263.836C241.745 265.066 240.737 266.805 240.197 268.798C212.235 275.843 217.472 302.013 208.526 300.303C211.389 280.477 225.483 265.73 243.126 263.836Z" fill="#BCBEC0"/>
</g>
<path d="M242.934 218.66C243.104 215.956 247.383 216.3 247.111 219.002L246.783 223.14L242.595 222.745L242.91 218.654L242.934 218.66Z" fill="black"/>
<path d="M246.807 223.147L245.275 242.493L241.087 242.097L242.619 222.751L246.807 223.147Z" fill="#F466BA"/>
<path d="M237.281 255.963C237.879 254.699 238.943 253.791 240.219 253.423L241.111 242.104L245.299 242.499C244.937 243.649 244.88 256.697 243.462 257.026C242.657 257.827 241.631 256.989 241.09 257.759C234.409 273.368 235.541 292.035 242.488 307.641C243.195 309.183 241.595 310.939 240.012 310.46C230.296 296.013 230.513 271.701 237.305 255.97L237.281 255.963Z" fill="#F466BA"/>
<g style="mix-blend-mode:multiply">
<path d="M236.466 257.933C237.207 255.765 238.059 254.035 240.195 253.417C240.835 252.47 241.778 216.132 244.254 216.904C244.558 217.292 244.728 217.796 244.682 218.344L241.796 254.869C240.311 256.198 239.07 255.022 237.936 258.738C232.002 274.04 233.305 291.887 240.011 306.971C240.464 308.036 239.95 309.272 238.858 309.714C231.369 293.655 230.153 274.354 236.466 257.933Z" fill="#BCBEC0"/>
</g>
<path d="M239.066 309.796C240.3 309.774 241.277 308.714 241.126 307.477C240.859 304.781 236.403 305.281 236.772 307.978C236.901 309.108 237.933 309.922 239.066 309.796Z" fill="#BF8920"/>
<path d="M236.796 307.984C237.067 310.477 240.474 310.075 240.149 307.594C239.878 305.101 236.471 305.503 236.796 307.984Z" fill="#FFB72B"/>
<g style="mix-blend-mode:multiply">
<path d="M237.197 307.635C236.97 309.229 239.179 309.852 239.51 308.159C239.864 306.473 237.417 305.784 237.197 307.635Z" fill="black"/>
</g>
<path d="M239.92 219.499L243.684 220.518C245.631 221.071 246.49 217.993 244.506 217.482C238.767 216.488 233.318 213.382 232.898 207.004C232.666 203.987 230.413 201.544 227.423 201.065L221.152 200.054C220.292 199.923 219.498 200.497 219.344 201.347C219.215 202.203 219.792 202.996 220.645 203.151L226.917 204.162C232.28 205.13 227.226 215.578 239.927 219.475L239.92 219.499Z" fill="#F466BA"/>
<g style="mix-blend-mode:multiply">
<path d="M219.321 201.621C219.411 201.289 225.995 202.563 226.324 202.575C236.441 205.06 226.504 215.789 243.407 218.992C244.098 219.179 244.565 219.815 244.558 220.5C237.323 220.12 230.142 214.916 229.733 207.267C229.618 205.708 228.45 204.45 226.887 204.179L220.615 203.168C219.834 203.033 219.295 202.378 219.291 201.638L219.321 201.621Z" fill="#BCBEC0"/>
</g>
<path d="M213.208 203.327L225.219 205.332C226.812 205.585 228.329 204.519 228.579 202.932C228.83 201.344 227.757 199.831 226.164 199.578L214.153 197.573C212.559 197.32 211.043 198.386 210.792 199.974C210.541 201.561 211.615 203.074 213.208 203.327Z" fill="#754C29"/>
<path d="M228.586 202.908C228.353 204.525 226.83 205.616 225.22 205.332L213.208 203.327C211.591 203.067 210.501 201.524 210.806 199.926L228.593 202.884L228.586 202.908Z" fill="#3C2415"/>
<path d="M210.793 199.974C210.178 203.754 215.93 204.701 216.569 200.927C217.177 197.17 211.431 196.2 210.793 199.974Z" fill="#603913"/>
<path d="M211.867 200.163C211.44 202.492 215.134 203.11 215.489 200.761C215.915 198.432 212.221 197.814 211.867 200.163Z" fill="#8B5E3C"/>
<path d="M240.78 243.516L245.375 243.92C246.122 243.995 246.761 243.43 246.828 242.71C246.901 241.966 246.333 241.328 245.61 241.259L241.014 240.855C240.268 240.78 239.629 241.346 239.562 242.066C239.488 242.81 240.057 243.448 240.78 243.516Z" fill="black"/>
<path d="M242.184 224.263L246.779 224.667C247.526 224.742 248.165 224.177 248.232 223.456C248.306 222.712 247.737 222.074 247.014 222.006L242.419 221.602C241.672 221.527 241.033 222.092 240.966 222.813C240.892 223.557 241.461 224.195 242.184 224.263Z" fill="black"/>
<path d="M238.367 308.13C239.662 308.633 254.172 261.76 254.777 261.414C254.854 261.13 254.727 260.841 254.448 260.74C253.07 260.163 238.643 307.11 238.015 307.449C237.937 307.733 238.081 308.052 238.367 308.13Z" fill="black"/>
<path d="M253.722 257.946L259.892 235.349L232.65 229.728L230.658 253.89L251.798 260.99L274.46 265.395L253.722 257.946Z" fill="#1E120B"/>
<path d="M282.01 245.922L274.886 265.994L253.176 259.962L259.886 235.372L282.01 245.922ZM255.842 256.915L256.723 257.154L257.057 255.92L256.152 255.675C256.158 255.651 255.818 256.909 255.818 256.909L255.842 256.915ZM275.271 259.758L274.212 259.42L273.845 260.492L274.904 260.83L275.295 259.764L275.271 259.758ZM275.46 259.249L275.857 258.16L274.805 257.798L274.407 258.887L275.467 259.225L275.46 259.249ZM276.023 257.644L276.426 256.531L275.35 256.163L274.94 257.3L276.016 257.668L276.023 257.644ZM276.615 256.022L277.025 254.885L275.955 254.494L275.539 255.654L276.615 256.022ZM277.214 254.376L277.631 253.216L276.543 252.794L276.12 253.978L277.19 254.37L277.214 254.376ZM277.813 252.73L278.236 251.546L277.149 251.124L276.72 252.332L277.807 252.754L277.813 252.73ZM278.425 251.037L278.861 249.806L277.756 249.354L277.32 250.585L278.408 251.007L278.425 251.037ZM279.037 249.344L279.48 248.089L278.381 247.613L277.939 248.868L279.044 249.32L279.037 249.344ZM274.691 261.332L273.656 261.001L273.295 262.049L274.344 262.333L274.722 261.315L274.691 261.332ZM271.768 259.853L272.141 258.758L270.963 258.387L270.583 259.507L271.762 259.877L271.768 259.853ZM270.418 260.022L270.045 261.118L271.212 261.434C271.206 261.458 271.573 260.386 271.573 260.386L270.418 260.022ZM272.337 258.225L272.717 257.105L271.545 256.712L271.159 257.855L272.337 258.225ZM272.906 256.596L273.298 255.429L272.109 255.005L271.716 256.172L272.912 256.572L272.906 256.596ZM273.487 254.92L273.91 253.736L272.721 253.312L272.322 254.503L273.511 254.927L273.487 254.92ZM274.069 253.244L274.498 252.036L273.292 251.582L272.88 252.82L274.093 253.251L274.069 253.244ZM274.664 251.521L275.099 250.289L273.899 249.811L273.481 251.073L274.687 251.527L274.664 251.521ZM275.258 249.798L275.7 248.542L274.483 248.034L274.058 249.32L275.282 249.804L275.258 249.798ZM275.866 248.027L276.321 246.724L275.103 246.216L274.648 247.519L275.866 248.027ZM269.948 259.87L268.746 259.493L268.366 260.613L269.581 260.942C269.575 260.965 269.948 259.87 269.948 259.87ZM270.12 259.33L270.5 258.211L269.274 257.828L268.887 258.971L270.089 259.348L270.12 259.33ZM270.689 257.702L271.075 256.559L269.855 256.152L269.463 257.319L270.689 257.702ZM271.246 256.02L271.639 254.853L270.402 254.416L270.003 255.606L271.223 256.013L271.246 256.02ZM271.828 254.344L272.234 253.129L271.003 252.669L270.598 253.883L271.835 254.32L271.828 254.344ZM272.399 252.614L272.811 251.376L271.557 250.909L271.138 252.171L272.369 252.631L272.399 252.614ZM272.993 250.89L273.412 249.629L272.164 249.138L271.739 250.423L272.993 250.89ZM272.784 247.32L272.353 248.629L273.601 249.12L274.05 247.84L272.784 247.32ZM274.208 247.349L274.67 246.022L273.411 245.478L272.973 246.811L274.239 247.331L274.208 247.349ZM268.246 259.358L266.996 258.968L266.64 260.094L267.879 260.43C267.872 260.453 268.252 259.334 268.252 259.334L268.246 259.358ZM268.417 258.819L268.804 257.675L267.554 257.286L267.185 258.459L268.435 258.849L268.417 258.819ZM268.999 257.143L269.392 255.976L268.125 255.556L267.726 256.747L268.993 257.166L268.999 257.143ZM269.557 255.46L269.956 254.27L268.695 253.826L268.29 255.041L269.557 255.46ZM270.121 253.754L270.533 252.516L269.255 252.043L268.843 253.281L270.128 253.73L270.121 253.754ZM270.698 252L271.117 250.739L269.815 250.259L269.39 251.544L270.668 252.018L270.698 252ZM271.008 246.609L270.57 247.942L271.866 248.446L272.297 247.137L270.984 246.603L271.008 246.609ZM272.479 246.651L272.924 245.295L271.617 244.737L271.173 246.094L272.486 246.628L272.479 246.651ZM270.435 248.44L270.004 249.75L271.299 250.253L271.724 248.968L270.429 248.464L270.435 248.44ZM266.526 258.816L265.229 258.413L264.866 259.563L266.153 259.911C266.146 259.935 266.502 258.809 266.502 258.809L266.526 258.816ZM266.698 258.276L267.09 257.11L265.8 256.684L265.431 257.857L266.728 258.259L266.698 258.276ZM267.232 256.588L267.631 255.397L266.316 254.965L265.934 256.185L267.225 256.611L267.232 256.588ZM267.796 254.881L268.202 253.667L266.893 253.211L266.505 254.455L267.82 254.888L267.796 254.881ZM268.373 253.128L268.785 251.89L267.46 251.403L267.065 252.672L268.397 253.134L268.373 253.128ZM263.464 243.497L263.072 244.944C263.049 244.938 264.552 245.523 264.552 245.523L264.992 244.089L263.495 243.48L263.464 243.497ZM265.12 243.614L265.566 242.156L264.052 241.517L263.647 243.012C263.623 243.005 265.12 243.614 265.12 243.614ZM262.877 245.477L262.491 246.9C262.468 246.894 263.954 247.449 263.954 247.449L264.38 246.062L262.877 245.477ZM265.577 243.814L267.027 244.411L267.466 242.976L265.999 242.35L265.553 243.808L265.577 243.814ZM265.442 244.313L265.009 245.723L266.465 246.296L266.892 244.909L265.442 244.313ZM264.844 246.239L264.417 247.626L265.856 248.168L266.276 246.805L264.844 246.239ZM264.276 248.148L263.856 249.511L265.277 250.023L265.69 248.683L264.252 248.141L264.276 248.148ZM263.714 250.033L263.307 251.348L264.734 251.837L265.135 250.545L263.714 250.033ZM267.514 244.594L268.916 245.177L269.373 243.773L267.954 243.159L267.514 244.594ZM267.349 245.109L266.922 246.496L268.306 247.049L268.75 245.692L267.349 245.109ZM266.757 247.011L266.337 248.375L267.727 248.904L268.165 247.571L266.781 247.018L266.757 247.011ZM266.178 248.866L265.77 250.182L267.144 250.681L267.551 249.366L266.16 248.836L266.178 248.866ZM265.599 250.721L265.198 252.013L266.578 252.489L266.972 251.221L265.599 250.721ZM269.373 245.377L270.733 245.924L271.184 244.543L269.83 243.973L269.379 245.353L269.373 245.377ZM269.214 245.869L268.794 247.232L270.13 247.772L270.568 246.439L269.208 245.893L269.214 245.869ZM268.605 247.741L268.191 249.08L269.534 249.597L269.965 248.288L268.629 247.748L268.605 247.741ZM268.032 249.572L267.631 250.864L268.957 251.351L269.382 250.065L268.039 249.549L268.032 249.572ZM264.729 258.278L263.384 257.863L263.015 259.036L264.349 259.397C264.342 259.421 264.705 258.271 264.705 258.271L264.729 258.278ZM264.9 257.739L265.275 256.542L263.937 256.103L263.562 257.3L264.907 257.715L264.9 257.739ZM265.447 256.002L265.829 254.782L264.466 254.336L264.078 255.581L265.417 256.02L265.447 256.002ZM266.018 254.273L266.406 253.028L265.05 252.559L264.655 253.827L266.018 254.273ZM262.89 257.704L261.497 257.275L261.169 258.485C261.146 258.479 262.521 258.877 262.521 258.877L262.89 257.704ZM263.061 257.164L263.443 255.944L262.057 255.492L261.675 256.713L263.068 257.141L263.061 257.164ZM263.608 255.428L263.996 254.184L262.593 253.702L262.198 254.97L263.584 255.422L263.608 255.428ZM264.168 253.644L264.563 252.376L263.135 251.888L262.734 253.18L264.138 253.662L264.168 253.644ZM261.003 257.116L259.563 256.675L259.229 257.909C259.205 257.903 260.628 258.313 260.628 258.313L261.003 257.116ZM261.175 256.577L261.563 255.333L260.129 254.868L259.789 256.125C259.765 256.119 261.205 256.56 261.205 256.56L261.175 256.577ZM261.704 254.811L262.099 253.542L260.648 253.047L260.294 254.352C260.271 254.346 261.704 254.811 261.704 254.811ZM259.063 256.54L257.575 256.086L257.234 257.343L258.705 257.767L259.039 256.533L259.063 256.54ZM260.789 252.526L262.24 253.02L262.641 251.728L261.173 251.203L260.813 252.532L260.789 252.526ZM262.813 251.189L263.22 249.873L261.752 249.348L261.386 250.701C261.362 250.694 262.83 251.219 262.83 251.219L262.813 251.189ZM263.368 249.328L263.788 247.965L262.302 247.409L261.923 248.809C261.9 248.803 263.368 249.328 263.368 249.328ZM260.685 251.02L259.169 250.482L258.803 251.835L260.302 252.343L260.662 251.014L260.685 251.02ZM260.851 250.505L261.217 249.153C261.241 249.159 259.731 248.597 259.731 248.597L259.358 249.973L260.851 250.505ZM261.412 248.62L261.791 247.22C261.815 247.227 260.288 246.635 260.288 246.635L259.902 248.058L261.412 248.62ZM261.98 246.711L262.366 245.288C262.39 245.294 260.845 244.672 260.845 244.672L260.453 246.119L261.98 246.711ZM262.531 244.772L262.929 243.301C262.953 243.307 261.415 242.662 261.415 242.662L261.01 244.156L262.531 244.772ZM263.118 242.792L263.523 241.297C263.547 241.304 261.991 240.628 261.991 240.628L261.58 242.146L263.118 242.792ZM263.712 240.788L264.177 239.259L262.611 238.529L262.174 240.143L263.729 240.818L263.712 240.788ZM264.193 240.995L265.707 241.634L266.153 240.176L264.634 239.459L264.217 241.001L264.193 240.995ZM266.182 241.865L267.649 242.491L268.075 241.104L266.628 240.407L266.188 241.841L266.182 241.865ZM268.112 242.667L269.531 243.281L269.939 241.965L268.533 241.304L268.112 242.667ZM269.965 243.475L271.343 244.052L271.755 242.813L270.396 242.165L269.995 243.457L269.965 243.475ZM271.776 244.245L273.106 244.809L273.499 243.642L272.181 243.031L271.776 244.245ZM273.54 245.003L274.822 245.554L275.196 244.458L273.926 243.86L273.54 245.003ZM275.262 245.724L276.497 246.262L276.851 245.238L275.629 244.652L275.262 245.724ZM273.375 260.339L273.772 259.25L272.642 258.893L272.268 259.989L273.399 260.346L273.375 260.339ZM272.049 260.515L271.682 261.587L272.802 261.89C272.795 261.914 273.156 260.866 273.156 260.866L272.025 260.509L272.049 260.515ZM273.937 258.735L274.341 257.622L273.193 257.234L272.813 258.354L273.944 258.711L273.937 258.735ZM274.5 257.13L274.91 255.993L273.768 255.582L273.382 256.725L274.53 257.113L274.5 257.13ZM275.099 255.484L275.515 254.324L274.35 253.906L273.951 255.097L275.093 255.508L275.099 255.484ZM275.674 253.832L276.097 252.648L274.938 252.206L274.509 253.414L275.674 253.832ZM276.286 252.139L276.716 250.931L275.539 250.459L275.103 251.691L276.262 252.132L276.286 252.139ZM276.874 250.439L277.31 249.207L276.134 248.736L275.692 249.991L276.868 250.463L276.874 250.439ZM277.499 248.698L277.948 247.419L276.754 246.918L276.305 248.197L277.475 248.692L277.499 248.698ZM278.1 246.951L278.435 245.998L277.254 245.449L276.906 246.45L278.1 246.951ZM271.51 262.126L271.276 262.801L272.396 263.105L272.624 262.453L271.504 262.15L271.51 262.126ZM271.017 261.967L269.849 261.651C269.856 261.627 269.615 262.326 269.615 262.326L270.783 262.642L271.017 261.967ZM269.379 261.498L268.164 261.169C268.171 261.145 267.93 261.844 267.93 261.844L269.121 262.167L269.355 261.492L269.379 261.498ZM267.701 260.993L266.462 260.657C266.468 260.634 266.222 261.356 266.222 261.356L267.46 261.692L267.701 260.993ZM265.968 260.498L264.682 260.15C264.688 260.126 264.459 260.879 264.459 260.879L265.745 261.227L265.992 260.505L265.968 260.498ZM264.194 259.967L262.86 259.606C262.867 259.582 262.631 260.358 262.631 260.358L263.965 260.72L264.194 259.967ZM262.367 259.446L260.985 259.072C260.991 259.048 260.779 259.831 260.779 259.831L262.161 260.206L262.39 259.453L262.367 259.446ZM260.474 258.883L259.044 258.496C259.051 258.472 258.832 259.279 258.832 259.279L260.262 259.666L260.498 258.889L260.474 258.883ZM258.533 258.306L257.056 257.906C257.063 257.883 256.838 258.713 256.838 258.713L258.315 259.113L258.533 258.306ZM259.241 255.977L259.581 254.719C259.605 254.726 258.124 254.248 258.124 254.248L257.777 255.529L259.241 255.977ZM259.753 254.18L260.106 252.875C260.13 252.882 258.631 252.374 258.631 252.374L258.271 253.703L259.753 254.18ZM256.313 255.082L257.218 255.327C257.211 255.351 257.558 254.07 257.558 254.07L256.618 253.764L256.265 255.069L256.313 255.082ZM256.814 253.232L257.754 253.537L258.114 252.208L257.174 251.903L256.814 253.232ZM257.298 251.351L258.279 251.693L258.645 250.341L257.664 249.998L257.291 251.375L257.298 251.351ZM257.818 249.429L258.847 249.784L259.226 248.384L258.203 248.006L257.824 249.405L257.818 249.429ZM258.321 247.477L259.367 247.862L259.753 246.439L258.689 246.023L258.297 247.471L258.321 247.477ZM258.854 245.508L259.942 245.93L260.334 244.483L259.246 244.061L258.848 245.532L258.854 245.508ZM259.37 243.509L260.499 243.967L260.904 242.472L259.775 242.014L259.364 243.532L259.37 243.509ZM259.923 241.468L261.099 241.94L261.51 240.421L260.34 239.926L259.923 241.468ZM260.458 239.398L261.675 239.906L262.119 238.269C262.143 238.275 260.92 237.69 260.92 237.69L260.464 239.374L260.458 239.398ZM278.868 246.191L278.533 247.145L279.632 247.621L279.954 246.715L278.868 246.191ZM274.142 262.89L273.094 262.606L272.872 263.234L273.921 263.517L274.142 262.89ZM256.29 258.565L256.521 257.711L255.664 257.478L255.432 258.332L256.29 258.565Z" fill="#1E120B"/>
<path d="M257.118 241.345L251.605 261.701L229.902 254.321L232.626 229.722L257.118 241.345ZM231.922 251.583L232.76 251.887L232.932 250.686L232.046 250.369L231.922 251.583ZM251.354 255.547L250.213 255.136L249.93 256.18L251.072 256.591L251.354 255.547ZM251.489 255.049L251.785 253.958L250.65 253.523L250.354 254.614L251.496 255.025L251.489 255.049ZM251.92 253.459L252.222 252.344L251.063 251.903L250.754 253.042L251.913 253.483L251.92 253.459ZM252.363 251.822L252.678 250.66L251.501 250.189L251.187 251.351L252.369 251.799L252.363 251.822ZM252.813 250.162L253.134 248.975L251.934 248.498L251.606 249.708L252.806 250.185L252.813 250.162ZM253.275 248.453L253.609 247.22L252.392 246.712L252.051 247.969L253.275 248.453ZM253.744 246.722L254.091 245.44L252.85 244.926L252.496 246.231L253.738 246.745L253.744 246.722ZM254.233 244.918L254.592 243.59L253.334 243.045L252.974 244.374L254.239 244.895L254.233 244.918ZM250.937 257.089L249.819 256.685L249.543 257.705L250.667 258.086L250.943 257.066L250.937 257.089ZM247.76 255.414L248.049 254.347C248.025 254.34 246.794 253.88 246.794 253.88L246.547 254.984L247.76 255.414ZM246.412 255.482L246.177 256.539L247.39 256.969L247.672 255.925C247.648 255.919 246.435 255.488 246.435 255.488L246.412 255.482ZM248.142 253.812L248.444 252.697C248.421 252.69 247.166 252.223 247.166 252.223L246.912 253.351L248.142 253.812ZM248.555 252.192L248.864 251.053C248.84 251.047 247.568 250.55 247.568 250.55L247.301 251.725L248.555 252.192ZM248.958 250.518L249.279 249.332C249.255 249.326 247.96 248.822 247.96 248.822L247.679 250.045L248.951 250.542L248.958 250.518ZM249.366 248.821L249.7 247.587C249.676 247.581 248.364 247.047 248.364 247.047L248.077 248.294L249.373 248.797L249.366 248.821ZM249.794 247.052L250.141 245.771C250.117 245.765 248.78 245.224 248.78 245.224L248.481 246.519L249.794 247.052ZM250.252 245.266L250.605 243.962C250.581 243.955 249.227 243.385 249.227 243.385L248.915 244.726L250.252 245.266ZM250.699 243.427L251.065 242.074C251.041 242.068 249.67 241.467 249.67 241.467L249.345 242.856L250.699 243.427ZM245.924 255.299L244.664 254.856L244.422 255.936L245.659 256.373L245.894 255.316L245.924 255.299ZM246.035 254.794L246.283 253.69L245.029 253.223L244.781 254.327L246.042 254.771L246.035 254.794ZM246.418 253.192L246.672 252.064L245.394 251.591L245.134 252.742L246.412 253.216L246.418 253.192ZM246.79 251.536L247.057 250.36L245.762 249.857L245.488 251.056L246.79 251.536ZM247.199 249.838L247.479 248.615L246.159 248.105L245.903 249.335L247.222 249.845L247.199 249.838ZM247.59 248.111L247.883 246.84L246.546 246.3L246.277 247.577L247.62 248.093L247.59 248.111ZM247.994 246.336L248.293 245.042L246.939 244.471L246.657 245.795L248.017 246.342L247.994 246.336ZM247.345 242.595L247.05 243.966L248.428 244.543L248.74 243.202L247.362 242.625L247.345 242.595ZM248.84 242.643L249.165 241.254L247.77 240.647L247.462 242.066L248.864 242.65L248.84 242.643ZM244.17 254.697L242.885 254.247L242.668 255.334L243.928 255.777L244.17 254.697ZM244.287 254.168L244.535 253.064L243.233 252.584L243.003 253.719L244.287 254.168ZM244.653 252.536L244.913 251.384L243.588 250.898L243.344 252.079L244.646 252.559L244.653 252.536ZM245.001 250.873L245.274 249.674L243.931 249.157L243.681 250.363L245.007 250.849L245.001 250.873ZM245.362 249.162L245.618 247.933L244.251 247.41L243.988 248.663L245.331 249.18L245.362 249.162ZM245.759 247.411L246.028 246.134L244.644 245.581L244.368 246.882L245.729 247.428L245.759 247.411ZM245.421 241.768L245.143 243.17L246.545 243.753L246.84 242.382L245.414 241.792L245.421 241.768ZM246.957 241.853L247.265 240.434L245.822 239.814L245.532 241.263L246.957 241.853ZM245.026 243.698L244.761 245.053L246.146 245.606L246.428 244.282L245.026 243.698ZM242.398 254.064L241.066 253.601L240.842 254.712L242.15 255.168L242.368 254.081L242.398 254.064ZM242.492 253.529L242.722 252.395L241.396 251.908L241.183 253.073L242.515 253.536L242.492 253.529ZM242.833 251.89L243.076 250.708L241.727 250.215L241.507 251.404L242.857 251.897L242.833 251.89ZM243.17 250.173L243.42 248.968L242.053 248.445L241.821 249.681L243.188 250.203L243.17 250.173ZM243.538 248.439L243.8 247.186L242.416 246.633L242.171 247.916L243.561 248.446L243.538 248.439ZM237.344 238.359L237.119 239.851L238.681 240.503L238.93 239.017L237.344 238.359ZM239.017 238.506L239.255 236.966L237.652 236.277L237.408 237.841L238.993 238.5L239.017 238.506ZM237.043 240.416L236.83 241.861L238.375 242.483L238.611 241.044L237.049 240.392L237.043 240.416ZM239.522 238.719L241.084 239.371L241.339 237.862L239.76 237.179L239.498 238.713L239.522 238.719ZM239.428 239.254L239.186 240.716L240.707 241.332L240.973 239.876L239.435 239.23L239.428 239.254ZM239.116 241.258L238.886 242.672L240.383 243.281L240.637 241.873L239.116 241.258ZM238.792 243.207L238.576 244.575L240.055 245.153L240.296 243.793L238.799 243.183L238.792 243.207ZM238.482 245.109L238.278 246.429L239.74 246.978L239.968 245.665L238.488 245.086L238.482 245.109ZM241.565 239.578L243.079 240.217L243.352 238.738L241.82 238.068L241.565 239.578ZM241.471 240.113L241.205 241.569L242.702 242.178L242.986 240.752L241.495 240.119L241.471 240.113ZM241.141 242.086L240.894 243.471L242.368 244.074L242.638 242.695L241.165 242.093L241.141 242.086ZM240.801 244.006L240.566 245.343L241.998 245.909L242.256 244.578L240.807 243.982L240.801 244.006ZM240.473 245.878L240.245 247.191L241.659 247.727L241.905 246.444L240.473 245.878ZM243.584 240.43L245.051 241.057L245.341 239.608L243.851 238.975L243.578 240.454L243.584 240.43ZM243.467 240.959L243.183 242.384L244.632 242.981L244.91 241.579L243.443 240.952L243.467 240.959ZM243.096 242.896L242.825 244.274L244.257 244.84L244.521 243.485L243.072 242.889L243.096 242.896ZM242.737 244.785L242.479 246.116L243.887 246.675L244.163 245.375L242.731 244.809L242.737 244.785ZM240.578 253.418L239.229 252.926L239.022 254.067L240.354 254.529L240.554 253.412L240.578 253.418ZM240.672 252.884L240.885 251.719L239.512 251.22L239.299 252.384L240.648 252.877L240.672 252.884ZM240.996 251.214L241.216 250.026L239.825 249.497L239.599 250.709L240.972 251.208L240.996 251.214ZM241.309 249.491L241.542 248.255L240.127 247.719L239.912 248.985L241.303 249.515L241.309 249.491ZM238.718 252.736L237.32 252.231L237.138 253.378L238.517 253.853L238.724 252.713L238.718 252.736ZM238.805 252.225L239.018 251.061L237.597 250.548L237.401 251.743L238.798 252.249L238.805 252.225ZM239.112 250.526L239.338 249.314L237.899 248.771L237.691 250.014L239.112 250.526ZM239.407 248.772L239.622 247.506L238.16 246.958L237.945 248.224L239.384 248.766L239.407 248.772ZM236.827 252.071L235.406 251.559L235.24 252.737L236.644 253.219L236.827 252.071ZM236.92 251.537L237.116 250.342L235.671 249.823L235.493 251.048L236.914 251.56L236.92 251.537ZM237.179 249.824L237.388 248.582L235.926 248.033L235.741 249.282L237.186 249.8L237.179 249.824ZM234.888 251.394L233.419 250.869L233.247 252.07L234.699 252.565L234.864 251.387L234.888 251.394ZM235.996 247.492L237.482 248.047L237.703 246.757L236.224 246.178L236.026 247.475L235.996 247.492ZM237.767 246.24L237.977 244.896L236.45 244.304L236.239 245.648L237.743 246.233L237.767 246.24ZM238.064 244.385L238.288 242.994L236.743 242.372L236.543 243.77L238.071 244.361L238.064 244.385ZM235.682 246.006L234.155 245.415L233.975 246.741L235.484 247.303L235.682 246.006ZM235.776 245.472L235.962 244.121L234.411 243.523L234.218 244.897L235.746 245.489L235.776 245.472ZM236.056 243.587L236.256 242.189L234.663 241.554L234.481 242.982L236.056 243.587ZM236.325 241.648L236.538 240.203L234.928 239.538L234.733 241.013L236.325 241.648ZM236.631 239.668L236.863 238.152L235.236 237.457L235.028 238.979L236.638 239.644L236.631 239.668ZM236.927 237.634L237.147 236.064L235.503 235.339L235.299 236.939L236.927 237.634ZM237.241 235.529L237.481 233.888L235.802 233.102L235.573 234.798L237.241 235.529ZM237.746 235.743L239.373 236.438L239.617 234.874L237.986 234.101L237.752 235.719L237.746 235.743ZM239.847 236.668L241.427 237.351L241.693 235.895L240.103 235.159L239.865 236.698L239.847 236.668ZM241.932 237.564L243.463 238.233L243.734 236.855L242.192 236.132L241.925 237.587L241.932 237.564ZM243.944 238.44L245.435 239.073L245.71 237.772L244.215 237.062L243.944 238.44ZM245.94 239.286L247.383 239.906L247.645 238.653L246.191 237.979L245.916 239.279L245.94 239.286ZM247.887 240.119L249.307 240.732L249.574 239.557L248.167 238.896L247.911 240.125L247.887 240.119ZM249.787 240.939L251.159 241.54L251.455 240.448C251.431 240.442 250.048 239.787 250.048 239.787L249.787 240.939ZM249.443 255.997L249.732 254.93L248.519 254.499L248.23 255.567C248.253 255.573 249.443 255.997 249.443 255.997ZM248.136 256.102L247.853 257.146C247.877 257.152 249.042 257.57 249.042 257.57L249.319 256.549L248.129 256.125L248.136 256.102ZM249.86 254.455L250.156 253.364L248.925 252.903L248.623 254.018C248.647 254.025 249.86 254.455 249.86 254.455ZM250.273 252.835L250.582 251.697L249.327 251.23L249.019 252.368C249.043 252.375 250.273 252.835 250.273 252.835ZM250.693 251.192L251.008 250.029L249.736 249.532L249.415 250.718C249.439 250.725 250.693 251.192 250.693 251.192ZM251.125 249.501L251.453 248.291L250.164 247.764L249.83 248.997C249.853 249.004 251.125 249.501 251.125 249.501ZM251.564 247.786L251.904 246.529L250.592 245.995L250.251 247.253C250.275 247.259 251.564 247.786 251.564 247.786ZM252.022 246L252.375 244.696L251.045 244.132L250.692 245.437C250.716 245.443 252.028 245.977 252.028 245.977L252.022 246ZM252.51 244.197L252.876 242.845L251.522 242.275L251.156 243.627C251.18 243.633 252.51 244.197 252.51 244.197ZM252.988 242.34L253.264 241.32L251.923 240.702L251.634 241.77C251.657 241.776 252.988 242.34 252.988 242.34ZM247.742 257.65L247.569 258.291L248.74 258.685L248.914 258.044L247.748 257.627L247.742 257.65ZM247.255 257.467L246.065 257.044L245.886 257.708C245.909 257.714 247.105 258.114 247.105 258.114L247.278 257.474L247.255 257.467ZM245.548 256.878L244.311 256.441L244.131 257.105C244.155 257.112 245.398 257.525 245.398 257.525L245.578 256.861L245.548 256.878ZM243.817 256.282L242.556 255.839L242.418 256.54L243.685 256.959L243.865 256.295L243.817 256.282ZM242.063 255.679L240.754 255.223L240.609 255.948L241.9 256.374L242.039 255.673L242.063 255.679ZM240.267 255.04L238.935 254.578L238.814 255.309L240.146 255.771L240.291 255.047L240.267 255.04ZM238.417 254.412L237.037 253.937L236.91 254.691L238.266 255.16L238.387 254.429L238.417 254.412ZM236.55 253.754L235.146 253.272L235.036 254.057L236.44 254.539L236.567 253.784L236.55 253.754ZM234.635 253.082L233.184 252.587L233.074 253.372L234.501 253.861L234.611 253.076L234.635 253.082ZM234.982 250.859L235.16 249.634L233.667 249.102L233.513 250.334L234.982 250.859ZM235.223 249.116L235.415 247.844L233.905 247.282L233.737 248.561L235.223 249.116ZM232.116 249.828L233.002 250.144L233.163 248.889L232.253 248.566L232.116 249.828ZM232.293 248.042L233.226 248.372L233.394 247.093L232.443 246.733L232.293 248.042ZM232.512 246.192L233.487 246.558L233.667 245.232L232.669 244.859L232.53 246.222L232.512 246.192ZM232.715 244.312L233.737 244.69L233.93 243.317L232.867 242.901L232.715 244.312ZM232.913 242.353L233.976 242.769L234.158 241.341L233.054 240.889L232.889 242.347L232.913 242.353ZM233.117 240.372L234.222 240.824L234.417 239.348L233.264 238.884L233.111 240.395L233.117 240.372ZM233.341 238.318L234.517 238.79L234.731 237.244L233.537 236.742L233.371 238.301L233.341 238.318ZM233.577 236.218L234.795 236.726L234.998 235.126L233.739 234.581L233.553 236.212L233.577 236.218ZM233.809 234.04L235.068 234.584L235.303 232.866L234.01 232.261L233.809 234.04ZM253.721 241.52L253.451 242.517L254.71 243.061L254.973 242.089L253.727 241.497L253.721 241.52ZM250.525 258.608L249.425 258.233L249.258 258.85L250.358 259.225L250.525 258.608ZM232.58 253.213L232.69 252.428L231.852 252.125L231.759 252.94L232.58 253.213Z" fill="#635044"/>
<path d="M282.01 245.922L275.012 266.003L251.599 261.725L257.111 241.369L281.986 245.915L282.01 245.922ZM257.786 258.231L258.101 257.069L256.616 256.794L256.301 257.957L257.786 258.231ZM256.19 258.461L255.875 259.624L257.337 259.892L257.651 258.73L256.19 258.461ZM258.243 256.547L258.557 255.384L257.072 255.11L256.757 256.272L258.243 256.547ZM258.669 254.88L258.983 253.717L257.474 253.436L257.159 254.598L258.669 254.88ZM259.118 253.219L259.433 252.057L257.9 251.769L257.585 252.931L259.118 253.219ZM259.574 251.535L259.889 250.372L258.356 250.084L258.042 251.247L259.574 251.535ZM260.024 249.874L260.339 248.711L258.782 248.417L258.468 249.58L260.024 249.874ZM260.457 248.183L260.771 247.02L259.215 246.726L258.9 247.889L260.457 248.183ZM260.906 246.522L261.221 245.36L259.641 245.059L259.326 246.221L260.906 246.522ZM259.767 258.564L260.082 257.402L258.621 257.133L258.306 258.296L259.767 258.564ZM258.165 258.818L257.85 259.98L259.287 260.242L259.602 259.08L258.165 258.818ZM260.217 256.903L260.532 255.741L259.047 255.466L258.732 256.629L260.217 256.903ZM260.691 255.249L261.006 254.087L259.52 253.812L259.205 254.974L260.691 255.249ZM261.14 253.588L261.455 252.426L259.946 252.145L259.631 253.307L261.14 253.588ZM261.597 251.904L261.911 250.741L260.402 250.46L260.088 251.623L261.597 251.904ZM262.07 250.25L262.385 249.087L260.852 248.799L260.537 249.962L262.07 250.25ZM262.52 248.589L262.835 247.426L261.278 247.132L260.963 248.295L262.52 248.589ZM262.976 246.904L263.291 245.742L261.734 245.448L261.419 246.61L262.976 246.904ZM263.456 245.226L263.765 244.088L262.184 243.787L261.882 244.902L263.463 245.203L263.456 245.226ZM263.372 247.521L263.057 248.683L264.59 248.971L264.905 247.809L263.372 247.521ZM265.046 247.287L265.361 246.124L263.828 245.836L263.513 246.999L265.046 247.287ZM262.898 249.175L262.583 250.338L264.092 250.619L264.407 249.456L262.898 249.175ZM262.442 250.86L262.127 252.022L263.612 252.297L263.927 251.134L262.442 250.86ZM261.992 252.52L261.677 253.683L263.163 253.958L263.477 252.795L261.992 252.52ZM261.519 254.175L261.204 255.337L262.665 255.606L262.98 254.443L261.519 254.175ZM261.062 255.859L260.748 257.022L262.209 257.29L262.524 256.128L261.062 255.859ZM260.589 257.513L260.274 258.676L261.712 258.938L262.026 257.775L260.589 257.513ZM260.139 259.174L259.824 260.337L261.262 260.599L261.577 259.436L260.139 259.174ZM263.963 245.338L265.519 245.632L265.828 244.494L264.271 244.199L263.963 245.338ZM265.418 247.897L265.103 249.059L266.612 249.341L266.927 248.178C266.951 248.184 265.418 247.897 265.418 247.897ZM267.085 247.686L267.4 246.524C267.424 246.53 265.891 246.242 265.891 246.242L265.576 247.405L267.085 247.686ZM264.944 249.551L264.629 250.713L266.115 250.988L266.429 249.826C266.453 249.832 264.944 249.551 264.944 249.551ZM264.464 251.229L264.149 252.391L265.635 252.666L265.949 251.504C265.973 251.51 264.464 251.229 264.464 251.229ZM263.991 252.883L263.676 254.046L265.137 254.314L265.452 253.152C265.476 253.158 263.991 252.883 263.991 252.883ZM263.517 254.538L263.202 255.7L264.64 255.962L264.955 254.8C264.978 254.806 263.517 254.538 263.517 254.538ZM263.037 256.216L262.722 257.378L264.16 257.64L264.475 256.478C264.498 256.484 263.037 256.216 263.037 256.216ZM262.587 257.876L262.272 259.039L263.686 259.294L264.001 258.132C264.025 258.138 262.587 257.876 262.587 257.876ZM262.114 259.531L261.799 260.693L263.213 260.949L263.527 259.786C263.551 259.793 262.114 259.531 262.114 259.531ZM266.033 245.72L267.589 246.015L267.904 244.852C267.928 244.859 266.371 244.564 266.371 244.564L266.056 245.727L266.033 245.72ZM267.464 248.272L267.149 249.435C267.125 249.429 268.634 249.71 268.634 249.71L268.949 248.547C268.973 248.554 267.464 248.272 267.464 248.272ZM269.131 248.062L269.446 246.899C269.47 246.906 267.961 246.625 267.961 246.625L267.646 247.787C267.622 247.781 269.131 248.062 269.131 248.062ZM266.984 249.95L266.669 251.113C266.645 251.107 268.13 251.381 268.13 251.381L268.445 250.219C268.469 250.225 266.984 249.95 266.984 249.95ZM266.486 251.598L266.171 252.761C266.148 252.754 267.633 253.029 267.633 253.029L267.948 251.867C267.971 251.873 266.486 251.598 266.486 251.598ZM266.013 253.253L265.698 254.415C265.674 254.409 267.135 254.677 267.135 254.677L267.45 253.515C267.474 253.521 266.013 253.253 266.013 253.253ZM265.515 254.9L265.2 256.063C265.177 256.057 266.638 256.325 266.638 256.325L266.953 255.162C266.977 255.169 265.515 254.9 265.515 254.9ZM265.035 256.579L264.72 257.741C264.697 257.735 266.134 257.997 266.134 257.997L266.449 256.834C266.473 256.841 265.035 256.579 265.035 256.579ZM264.538 258.226L264.223 259.389C264.199 259.382 265.613 259.638 265.613 259.638L265.928 258.475C265.952 258.482 264.538 258.226 264.538 258.226ZM264.064 259.881L263.756 261.019C263.732 261.013 265.146 261.269 265.146 261.269L265.454 260.13C265.478 260.136 264.064 259.881 264.064 259.881ZM268.096 246.126L269.629 246.414L269.95 245.228C269.974 245.234 268.441 244.947 268.441 244.947L268.126 246.109L268.096 246.126ZM274.64 250.853L275.026 249.709L273.541 249.434L273.179 250.584L274.664 250.859L274.64 250.853ZM273.02 251.076L272.657 252.225L274.119 252.494L274.505 251.351L273.044 251.082L273.02 251.076ZM275.185 249.218L275.571 248.074L274.086 247.8L273.724 248.949L275.209 249.224L275.185 249.218ZM272.997 257.487L274.411 257.742L274.79 256.623L273.377 256.367L272.997 257.487ZM272.838 257.979L272.458 259.098L273.848 259.347L274.228 258.228L272.814 257.972L272.838 257.979ZM272.293 259.614L271.913 260.733L273.303 260.982L273.683 259.863L272.293 259.614ZM271.748 261.248L271.368 262.368L272.734 262.611L273.114 261.491L271.724 261.242L271.748 261.248ZM273.936 252.979L272.475 252.711L272.112 253.86L273.55 254.122L273.93 253.003L273.936 252.979ZM271.954 254.352L271.598 255.478L273.035 255.74L273.415 254.621L271.977 254.359L271.954 254.352ZM271.432 255.994L271.076 257.12L272.49 257.375L272.87 256.256L271.432 255.994ZM270.911 257.635L270.555 258.761L271.969 259.016L272.349 257.897L270.935 257.641L270.911 257.635ZM273.169 248.824L273.532 247.675L272.023 247.394L271.66 248.543L273.169 248.824ZM271.525 249.041L271.163 250.191L272.648 250.466L273.011 249.316L271.525 249.041ZM270.366 259.27L270.01 260.396L271.4 260.645L271.78 259.526L270.366 259.27ZM269.851 260.888L269.495 262.014L270.885 262.263L271.265 261.143L269.875 260.894L269.851 260.888ZM272.483 250.981L270.998 250.706L270.635 251.856L272.097 252.125L272.459 250.975L272.483 250.981ZM270.5 252.354L270.138 253.504L271.599 253.772L271.962 252.623L270.5 252.354ZM269.979 253.996L269.617 255.145L271.054 255.407L271.417 254.258L269.955 253.989L269.979 253.996ZM269.458 255.637L269.095 256.787L270.533 257.049L270.889 255.923L269.451 255.661L269.458 255.637ZM268.961 257.285L268.604 258.411L270.018 258.666L270.374 257.541L268.937 257.279L268.961 257.285ZM268.439 258.926L268.083 260.052L269.497 260.308L269.853 259.182L268.439 258.926ZM267.924 260.544L267.568 261.67L268.958 261.919L269.314 260.793L267.924 260.544ZM271.171 248.462L271.533 247.312L270.024 247.031L269.71 248.193C269.686 248.187 271.195 248.468 271.195 248.468L271.171 248.462ZM269.503 248.672L269.188 249.835C269.165 249.828 270.65 250.103 270.65 250.103L271.012 248.953L269.503 248.672ZM269.006 250.32L268.691 251.482C268.667 251.476 270.129 251.744 270.129 251.744L270.491 250.595L269.006 250.32ZM268.508 251.968L268.194 253.13C268.17 253.124 269.631 253.392 269.631 253.392L269.994 252.243L268.508 251.968ZM268.005 253.639L267.69 254.802C267.666 254.795 269.104 255.057 269.104 255.057L269.466 253.908L268.005 253.639ZM267.507 255.287L267.192 256.45C267.169 256.443 268.606 256.705 268.606 256.705L268.969 255.556L267.507 255.287ZM266.986 256.929L266.671 258.091C266.647 258.085 268.061 258.34 268.061 258.34L268.417 257.214L266.98 256.952L266.986 256.929ZM266.489 258.576L266.18 259.715C266.156 259.709 267.57 259.964 267.57 259.964L267.926 258.838L266.512 258.583L266.489 258.576ZM265.998 260.201L265.689 261.339C265.665 261.333 267.055 261.582 267.055 261.582L267.411 260.456L265.998 260.201ZM270.166 246.509L271.699 246.796L272.068 245.623L270.535 245.335L270.213 246.522L270.166 246.509ZM272.205 246.908L273.714 247.19L274.09 245.992L272.557 245.705L272.182 246.902L272.205 246.908ZM274.227 247.278L275.737 247.559L276.142 246.345L274.633 246.063L274.258 247.26L274.227 247.278ZM276.638 251.215L277.018 250.096L275.557 249.828L275.171 250.971L276.632 251.239L276.638 251.215ZM274.379 259.465L275.429 259.648L275.809 258.528L274.735 258.339L274.355 259.459L274.379 259.465ZM277.183 249.58L277.57 248.437L276.084 248.162L275.698 249.306L277.183 249.58ZM275.304 256.711L274.924 257.83L275.998 258.019L276.377 256.9L275.304 256.711ZM276.566 256.391L276.946 255.271L275.849 255.076L275.469 256.195L276.543 256.384L276.566 256.391ZM277.129 254.786L277.509 253.667L276.411 253.471L276.031 254.591L277.129 254.786ZM277.698 253.158L278.078 252.038L276.956 251.836L276.576 252.956L277.674 253.151L277.698 253.158ZM278.267 251.529L278.646 250.41L277.525 250.208L277.145 251.327L278.267 251.529ZM275.27 260.14L274.22 259.957L273.84 261.077L274.89 261.259L275.27 260.14ZM276.07 252.844L276.449 251.724L274.988 251.456L274.602 252.599L276.039 252.861L276.07 252.844ZM276.243 247.671L277.728 247.946L278.134 246.731L276.625 246.45L276.219 247.664L276.243 247.671ZM277.69 249.692L278.812 249.894L279.191 248.775L278.046 248.566L277.66 249.709L277.69 249.692ZM274.701 261.768L273.651 261.586L273.271 262.705L274.297 262.881L274.677 261.762L274.701 261.768ZM275.524 254.479L275.904 253.359L274.467 253.097L274.087 254.217L275.524 254.479ZM273.928 254.709L273.548 255.828L274.962 256.084L275.342 254.964L273.904 254.702L273.928 254.709ZM272.599 263.109L271.233 262.866L270.948 263.731L272.314 263.974L272.599 263.109ZM270.696 262.772L269.33 262.529L269.051 263.37L270.417 263.613L270.696 262.772ZM268.817 262.441L267.427 262.192L267.202 263.022C267.178 263.016 268.545 263.258 268.545 263.258L268.823 262.417L268.817 262.441ZM266.89 262.097L265.5 261.848L265.275 262.679C265.252 262.672 266.641 262.921 266.641 262.921L266.866 262.091L266.89 262.097ZM264.987 261.76L263.573 261.505L263.355 262.311L264.745 262.561L264.97 261.73L264.987 261.76ZM263.06 261.417L261.646 261.161L261.428 261.968L262.818 262.217L263.036 261.41L263.06 261.417ZM261.103 261.09L259.666 260.828L259.454 261.611L260.867 261.867L261.086 261.06L261.103 261.09ZM259.152 260.74L257.715 260.478L257.503 261.261L258.94 261.523L259.152 260.74ZM257.202 260.39L255.764 260.128L255.559 260.888L257.02 261.156L257.232 260.373L257.202 260.39ZM261.362 244.838L261.664 243.723L260.06 243.415L259.758 244.53L261.362 244.838ZM257.313 247.612L258.411 247.807L258.725 246.645L257.634 246.425L257.319 247.588L257.313 247.612ZM257.178 248.11L256.863 249.272L257.961 249.468L258.276 248.305L257.178 248.11ZM256.722 249.794L256.407 250.957L257.528 251.159L257.843 249.996L256.722 249.794ZM256.272 251.455L255.957 252.618L257.103 252.826L257.417 251.663L256.272 251.455ZM255.816 253.14L255.501 254.302L256.67 254.517L256.985 253.354L255.816 253.14ZM255.36 254.824L255.045 255.987L256.238 256.208L256.553 255.045L255.36 254.824ZM254.91 256.485L254.595 257.647L255.812 257.875L256.127 256.712L254.91 256.485ZM257.769 245.927L258.837 246.14L259.151 244.977L258.084 244.765L257.763 245.951L257.769 245.927ZM255.677 258.373L254.46 258.146L254.145 259.308L255.369 259.512L255.683 258.35L255.677 258.373ZM258.225 244.243L259.269 244.449L259.564 243.358L258.514 243.175L258.219 244.266L258.225 244.243ZM278.671 246.826L278.259 248.064L279.404 248.272L279.84 247.04L278.695 246.832L278.671 246.826ZM274.139 263.373L273.112 263.197L272.827 264.062L273.847 264.262L274.156 263.403L274.139 263.373ZM255.045 260.8L255.251 260.04L254.004 259.83L253.798 260.589L255.039 260.823L255.045 260.8Z" fill="#8A7C73"/>
<path d="M221.447 194.15C221.447 194.15 225.908 194.67 227.469 201.179C227.78 202.486 227.023 204.904 226.043 205.122C221.71 206.113 216.973 202.36 218.92 200.647C219.663 199.982 218.325 198.219 215.3 197.68C214.345 197.523 215.957 194.878 217.81 194.362C220.078 193.728 221.429 194.12 221.429 194.12L221.447 194.15Z" fill="#FBB09E"/>
<path d="M264.206 201.197C264.206 201.197 268.668 201.717 270.229 208.226C270.54 209.533 269.783 211.951 268.803 212.169C264.47 213.16 259.733 209.407 261.68 207.694C262.422 207.029 261.085 205.266 258.06 204.727C257.105 204.57 258.716 201.925 260.569 201.409C262.838 200.775 264.189 201.167 264.189 201.167L264.206 201.197Z" fill="#FBB09E"/>
<path d="M265.225 158.819C263.69 164.489 277.006 168.095 278.518 162.418C280.053 156.748 266.737 153.142 265.225 158.819Z" fill="#F6A8AD"/>
<path d="M209.983 143.859C208.448 149.529 221.764 153.135 223.276 147.458C224.811 141.788 211.495 138.182 209.983 143.859Z" fill="#F6A8AD"/>
<path d="M260.057 144.763C258.616 150.179 264.929 151.888 266.441 146.492C267.882 141.076 261.57 139.367 260.057 144.763Z" fill="#3C2415"/>
<path d="M258.39 138.455C257.581 141.444 261.225 139.222 264.751 140.177C268.276 141.132 270.302 144.889 271.111 141.9C273.019 134.853 260.346 131.421 258.414 138.461L258.39 138.455Z" fill="#3C2415"/>
<path d="M233.639 137.609C232.198 143.024 238.511 144.734 240.023 139.338C241.464 133.922 235.152 132.212 233.639 137.609Z" fill="#3C2415"/>
<path d="M231.948 131.294C231.139 134.283 234.783 132.062 238.309 133.016C241.834 133.971 243.86 137.728 244.669 134.739C246.577 127.693 233.904 124.261 231.972 131.3L231.948 131.294Z" fill="#3C2415"/>
<path d="M245.265 154.916C248.217 156.479 250.799 156.949 253.728 155.578C246.094 175.741 230.135 165.181 238.596 147.533C239.563 150.952 242.296 153.322 245.247 154.886L245.265 154.916Z" fill="#3C2415"/>
<path d="M247.943 164.477C241.842 169.726 236.077 164.956 236.307 157.405C240.522 158.928 244.816 161.39 247.943 164.477Z" fill="#ED1C24"/>
<g style="mix-blend-mode:multiply">
<path d="M235.653 105.152C240.132 106.364 244.097 107.489 246.467 109.124L258.687 112.433C264.197 112.576 285.785 116.512 282.987 123.445C277.765 136.495 257.388 136.019 254.372 120.152C254.017 118.35 252.6 116.973 250.805 116.614C249.161 116.169 247.451 116.725 246.321 117.972C235.531 130.151 217.984 120.357 219.955 106.375C221.298 101.417 227.744 103.01 235.653 105.152Z" fill="#D1D3D4"/>
</g>
<path d="M241.61 101.188C246.208 102.433 250.292 103.59 252.727 105.268L265.257 108.661C270.994 108.814 293.333 112.903 290.153 120.114C284.519 133.46 263.842 132.674 260.809 116.497C260.412 114.658 258.947 113.268 257.098 112.92C255.383 112.455 253.563 113.134 252.467 114.441C241.278 126.869 223.299 116.499 225.561 102.291C227.023 97.3649 233.606 99.0203 241.634 101.194L241.61 101.188Z" fill="black"/>
<path d="M262.562 113.61C261.367 118.023 265.128 126.605 272.108 128.495C279.087 130.385 286.665 124.874 287.86 120.461C289.055 116.048 283.418 114.394 276.438 112.504C269.458 110.614 263.757 109.197 262.562 113.61Z" fill="#F7941D"/>
<path opacity="0.5" d="M268.257 114.389C266.304 113.86 264.399 113.624 262.544 113.58C263.733 109.191 269.435 110.608 276.414 112.498C289.568 115.194 291.899 120.842 281.433 127.2C281.262 121.883 275.88 116.453 268.233 114.382L268.257 114.389Z" fill="white"/>
<path d="M227.258 104.05C226.063 108.462 229.825 117.044 236.804 118.934C243.784 120.824 251.362 115.313 252.557 110.901C253.752 106.488 248.114 104.834 241.135 102.944C234.155 101.053 228.453 99.6367 227.258 104.05Z" fill="#F7941D"/>
<path opacity="0.5" d="M232.954 104.828C231 104.299 229.096 104.063 227.241 104.019C228.43 99.6303 234.131 101.047 241.111 102.937C254.264 105.633 256.596 111.281 246.129 117.64C245.959 112.322 240.577 106.892 232.93 104.822L232.954 104.828Z" fill="white"/>
<path d="M277.824 115.884C277.233 117.405 286.166 119.824 286.424 118.213C287.014 116.692 278.081 114.273 277.824 115.884Z" fill="white"/>
<path d="M242.282 106.259C241.691 107.78 250.625 110.199 250.882 108.588C251.473 107.067 242.54 104.648 242.282 106.259Z" fill="white"/>
</g>
<defs>
<linearGradient id="paint0_linear_100_1307" x1="182.405" y1="291.014" x2="187.532" y2="272.081" gradientUnits="userSpaceOnUse">
<stop stop-color="#E6E7E8"/>
<stop offset="0.1" stop-color="#E0E1E2"/>
<stop offset="0.2" stop-color="#D1D2D3"/>
<stop offset="0.4" stop-color="#B7B8B9"/>
<stop offset="0.5" stop-color="#949595"/>
<stop offset="0.7" stop-color="#666767"/>
<stop offset="0.9" stop-color="#303030"/>
<stop offset="1"/>
</linearGradient>
<linearGradient id="paint1_linear_100_1307" x1="132.343" y1="272.975" x2="134.483" y2="265.074" gradientUnits="userSpaceOnUse">
<stop/>
<stop offset="1" stop-color="#E6E7E8"/>
</linearGradient>
<linearGradient id="paint2_linear_100_1307" x1="131.942" y1="271.72" x2="133.484" y2="266.026" gradientUnits="userSpaceOnUse">
<stop stop-color="#E6E7E8"/>
<stop offset="1"/>
</linearGradient>
<linearGradient id="paint3_linear_100_1307" x1="128.561" y1="303.654" x2="147.232" y2="234.709" gradientUnits="userSpaceOnUse">
<stop stop-color="#E6E7E8"/>
<stop offset="1"/>
</linearGradient>
<linearGradient id="paint4_linear_100_1307" x1="179.143" y1="296.166" x2="182.6" y2="283.402" gradientUnits="userSpaceOnUse">
<stop/>
<stop offset="1" stop-color="#E6E7E8"/>
</linearGradient>
<linearGradient id="paint5_linear_100_1307" x1="178.499" y1="294.107" x2="180.986" y2="284.925" gradientUnits="userSpaceOnUse">
<stop stop-color="#E6E7E8"/>
<stop offset="1"/>
</linearGradient>
<linearGradient id="paint6_linear_100_1307" x1="175.119" y1="307.91" x2="180.246" y2="288.978" gradientUnits="userSpaceOnUse">
<stop stop-color="#E6E7E8"/>
<stop offset="0.1" stop-color="#E0E1E2"/>
<stop offset="0.2" stop-color="#D1D2D3"/>
<stop offset="0.4" stop-color="#B7B8B9"/>
<stop offset="0.5" stop-color="#949595"/>
<stop offset="0.7" stop-color="#666767"/>
<stop offset="0.9" stop-color="#303030"/>
<stop offset="1"/>
</linearGradient>
<linearGradient id="paint7_linear_100_1307" x1="240.235" y1="312.939" x2="242.921" y2="303.022" gradientUnits="userSpaceOnUse">
<stop/>
<stop offset="1" stop-color="#E6E7E8"/>
</linearGradient>
<linearGradient id="paint8_linear_100_1307" x1="239.72" y1="311.348" x2="241.654" y2="304.207" gradientUnits="userSpaceOnUse">
<stop stop-color="#E6E7E8"/>
<stop offset="1"/>
</linearGradient>
<linearGradient id="paint9_linear_100_1307" x1="236.816" y1="344.634" x2="256.561" y2="271.727" gradientUnits="userSpaceOnUse">
<stop stop-color="#E6E7E8"/>
<stop offset="1"/>
</linearGradient>
<clipPath id="clip0_100_1307">
<rect width="310" height="307" fill="white" transform="matrix(-0.975406 -0.220414 -0.220414 0.975406 370.872 69.0258)"/>
</clipPath>
</defs>
</svg>
