<?xml version="1.0" encoding="UTF-8"?>
<svg xmlns="http://www.w3.org/2000/svg" xmlns:xlink="http://www.w3.org/1999/xlink" viewBox="0 0 272.2 345.9">
  <defs>
    <style>
      .cls-1 {
        fill: #8cd3f5;
      }

      .cls-2, .cls-3 {
        fill: #f9ceb2;
      }

      .cls-4 {
        fill: #a5d49c;
      }

      .cls-5 {
        fill: #9e4c0b;
      }

      .cls-6, .cls-7 {
        fill: #fbd1b5;
      }

      .cls-8, .cls-9, .cls-10 {
        fill: #f7c22f;
      }

      .cls-11, .cls-12, .cls-13, .cls-14, .cls-15, .cls-16, .cls-17, .cls-18, .cls-19, .cls-7, .cls-3, .cls-20, .cls-21, .cls-10, .cls-22, .cls-23, .cls-24 {
        mix-blend-mode: multiply;
      }

      .cls-11, .cls-12, .cls-25 {
        fill: #a6a6a6;
      }

      .cls-11, .cls-26 {
        opacity: .4;
      }

      .cls-27 {
        fill: url(#linear-gradient-2);
      }

      .cls-28 {
        fill: #a04907;
      }

      .cls-29 {
        fill: #b87e47;
      }

      .cls-30, .cls-31, .cls-18 {
        fill: #0072a5;
      }

      .cls-32 {
        fill: #cb4a78;
      }

      .cls-13 {
        fill: url(#radial-gradient-2);
      }

      .cls-13, .cls-33, .cls-34, .cls-22 {
        opacity: .7;
      }

      .cls-14, .cls-35, .cls-36 {
        fill: #f182a3;
      }

      .cls-14, .cls-18, .cls-37, .cls-38, .cls-39, .cls-24 {
        opacity: .5;
      }

      .cls-15, .cls-40 {
        fill: #d5d7d8;
      }

      .cls-41 {
        fill: #8e4715;
      }

      .cls-42 {
        fill: #ae611b;
      }

      .cls-43 {
        fill: #a6b22a;
      }

      .cls-44 {
        fill: #f99e4b;
      }

      .cls-45 {
        fill: #f6c648;
      }

      .cls-46 {
        fill: #0a010b;
      }

      .cls-47, .cls-48, .cls-39 {
        fill: #fff;
      }

      .cls-26 {
        fill: #cee6d2;
      }

      .cls-26, .cls-35, .cls-31, .cls-48, .cls-33, .cls-37, .cls-9, .cls-49, .cls-34, .cls-50, .cls-39 {
        mix-blend-mode: screen;
      }

      .cls-51 {
        fill: #a0a427;
      }

      .cls-16 {
        fill: #c82c2c;
      }

      .cls-17 {
        fill: #b90c00;
      }

      .cls-52 {
        fill: #b8a997;
      }

      .cls-53 {
        fill: #ff6c34;
      }

      .cls-54 {
        fill: #982c2c;
      }

      .cls-55 {
        fill: #231f20;
      }

      .cls-56, .cls-37 {
        fill: #fdc24a;
      }

      .cls-57 {
        isolation: isolate;
      }

      .cls-58 {
        fill: #7c2803;
      }

      .cls-59 {
        fill: #574e81;
      }

      .cls-60 {
        fill: #00bbd3;
      }

      .cls-61, .cls-33 {
        fill: #a93b00;
      }

      .cls-62 {
        fill: #7d78b3;
      }

      .cls-63 {
        fill: #24326b;
      }

      .cls-64 {
        fill: #16b790;
      }

      .cls-65 {
        fill: #f32c2c;
      }

      .cls-66 {
        fill: #b3b42a;
      }

      .cls-67 {
        fill: #8f559d;
      }

      .cls-68 {
        fill: #ffcd52;
      }

      .cls-69 {
        fill: #ff7858;
      }

      .cls-70 {
        fill: #734e27;
      }

      .cls-7 {
        opacity: .8;
      }

      .cls-71 {
        fill: #4f4f4f;
      }

      .cls-72, .cls-50 {
        fill: #fad6be;
      }

      .cls-73 {
        fill: #ee863e;
      }

      .cls-74 {
        fill: #f27893;
      }

      .cls-75 {
        fill: #386887;
      }

      .cls-76 {
        fill: #faa41a;
      }

      .cls-77 {
        fill: #fffaf7;
      }

      .cls-78 {
        fill: url(#linear-gradient);
      }

      .cls-20 {
        opacity: .3;
      }

      .cls-21 {
        opacity: .6;
      }

      .cls-22 {
        fill: url(#radial-gradient);
      }

      .cls-23 {
        fill: #efc2a7;
      }

      .cls-79 {
        fill: #e8e1d9;
      }

      .cls-80 {
        fill: #364887;
      }

      .cls-81 {
        fill: #de9028;
      }
    </style>
    <linearGradient id="linear-gradient" x1="83.8" y1="365.9" x2="259.2" y2="362.9" gradientTransform="translate(17.6 -52.1) rotate(4.2) scale(1 .7)" gradientUnits="userSpaceOnUse">
      <stop offset=".1" stop-color="#e5b785"/>
      <stop offset=".7" stop-color="#deae79"/>
      <stop offset=".8" stop-color="#daa974"/>
      <stop offset="1" stop-color="#d19b67"/>
      <stop offset="1" stop-color="#ce9662"/>
    </linearGradient>
    <linearGradient id="linear-gradient-2" x1="114.9" y1="397.7" x2="109.2" y2="576.1" gradientTransform="translate(17.6 -52.1) rotate(4.2) scale(1 .7)" gradientUnits="userSpaceOnUse">
      <stop offset=".2" stop-color="#deae79"/>
      <stop offset=".4" stop-color="#daa974"/>
      <stop offset=".6" stop-color="#d29c67"/>
      <stop offset=".7" stop-color="#ce9662"/>
    </linearGradient>
    <radialGradient id="radial-gradient" cx="-870.5" cy="-1682.3" fx="-870.5" fy="-1682.3" r="15.4" gradientTransform="translate(-1221.8 1412.4) rotate(-161.4) scale(1 -1)" gradientUnits="userSpaceOnUse">
      <stop offset=".1" stop-color="#f6a0a0"/>
      <stop offset="1" stop-color="#fff"/>
    </radialGradient>
    <radialGradient id="radial-gradient-2" cx="2285.4" cy="100.2" fx="2285.4" fy="100.2" r="11.3" gradientTransform="translate(-1695.5 1501.5) rotate(-40.3)" xlink:href="#radial-gradient"/>
  </defs>
  <g class="cls-57">
    <g id="Layer_2" data-name="Layer 2">
      <g id="Layer_1-2" data-name="Layer 1">
        <g>
          <polygon class="cls-11" points="235.9 314.2 161.5 294.2 63.6 318.2 132.9 345.9 235.9 314.2"/>
          <g>
            <g>
              <path class="cls-64" d="M63.7,172.9c.4,0,.8-.2,1-.7.2-.6,0-1.2-.6-1.5l-48.5-21.4c0,0-.1,0-.2,0-.2,0-4.7-1.3-4.5-5.7.1-5.3,0-45.2,0-46.9,0-.6-.5-1.1-1.1-1.1h0c-.6,0-1.1.5-1.1,1.1,0,.4.1,41.6,0,46.8-.1,4.8,3.9,7.2,6.1,7.8l48.5,21.3c.1,0,.3,0,.4,0Z"/>
              <path class="cls-60" d="M71.8,154.4c.4,0,.8-.3,1-.7.2-.6,0-1.2-.6-1.4l-27.8-11.8s0,0-.1,0c-.2,0-4.7-1.3-4.5-5.7.1-5.3,0-99.1,0-103.1,0-.6-.5-1.1-1.1-1.1h0c-.6,0-1.1.5-1.1,1.1,0,1,.1,97.8,0,103-.1,4.8,3.9,7.2,6.1,7.8l27.7,11.7c.1,0,.3,0,.4,0Z"/>
              <path class="cls-74" d="M17,52.6c0-.6.5-1.1,1.1-1.1h0c.6,0,1.1.5,1.1,1.1,0,2.5.1,60.7,0,65.9-.1,4.3,4.4,5.6,4.5,5.7,0,0,0,0,.1,0l6.3,2.4v2.4l-7-2.7c-2.2-.6-6.3-3-6.1-7.8.1-5.2,0-65.3,0-65.9Z"/>
              <g>
                <path class="cls-53" d="M43,113c.1,0,.3,0,.4,0l11.2-4.3c2.2-.6,6.3-3,6.1-7.8-.1-5.2,0-46.4,0-46.8,0-.6-.5-1.1-1.1-1.1h0c-.6,0-1.1.5-1.1,1.1,0,1.7-.1,41.6,0,46.9.1,4.4-4.5,5.6-4.5,5.7,0,0,0,0-.1,0l-11.2,4.3c-.6.2-.9.9-.6,1.4.2.4.6.7,1,.7Z"/>
                <path class="cls-44" d="M75.9,145.7c.4,0,.8-.3,1-.7.2-.6,0-1.2-.6-1.4l-27.8-11.8s0,0-.2,0c-.2,0-4.7-1.3-4.5-5.7.1-5.3,0-45.2,0-46.9,0-.6-.5-1.1-1.1-1.1h0c-.6,0-1.1.5-1.1,1.1,0,.4.1,41.6,0,46.8-.1,4.8,3.9,7.2,6.1,7.8l27.8,11.7c.1,0,.3,0,.4,0Z"/>
              </g>
              <path class="cls-81" d="M49.5,56.3c0,5.4,4.4,9.8,9.8,9.8s9.8-4.4,9.8-9.8-4.4-9.8-9.8-9.8-9.8,4.4-9.8,9.8Z"/>
              <path class="cls-76" d="M8.2,52.1c0,5.4,4.4,9.8,9.8,9.8s9.8-4.4,9.8-9.8-4.4-9.8-9.8-9.8-9.8,4.4-9.8,9.8Z"/>
              <path class="cls-68" d="M33.6,79.3c0,5.4,4.4,9.8,9.8,9.8s9.8-4.4,9.8-9.8-4.4-9.8-9.8-9.8-9.8,4.4-9.8,9.8Z"/>
              <path class="cls-1" d="M28.8,31.1c0,5.4,4.4,9.8,9.8,9.8s9.8-4.4,9.8-9.8-4.4-9.8-9.8-9.8-9.8,4.4-9.8,9.8Z"/>
              <path class="cls-4" d="M0,92.6c0,5.4,4.4,9.8,9.8,9.8s9.8-4.4,9.8-9.8-4.4-9.8-9.8-9.8S0,87.2,0,92.6Z"/>
              <path class="cls-67" d="M29.4,105.5c0-.6.5-1.1,1.1-1.1h0c.6,0,1.1.5,1.1,1.1,0,1.3.1,32.3,0,37.5-.1,4.3,4.4,5.6,4.5,5.7,0,0,.1,0,.2,0l21.8,9.2s0,0,0,0l9.6,4.1c.6.2.8.9.6,1.4-.2.4-.6.7-1,.7s-.3,0-.4,0l-11.3-4.9h0l-20-8.5c-2.2-.6-6.2-3-6.1-7.8.1-5.2,0-37.1,0-37.5Z"/>
              <path class="cls-62" d="M20,109.1c0,5.4,4.4,9.8,9.8,9.8s9.8-4.4,9.8-9.8-4.4-9.8-9.8-9.8-9.8,4.4-9.8,9.8Z"/>
            </g>
            <path class="cls-47" d="M5.1,89.5h0c0,.1,0,.2,0,.3,0,.2,0,.5.1.7.3,1.1.9,2.1,1.3,2.9.1.2.2.4.3.5.7,1.2.8,2.5.8,2.6h0c-.1.2-.2.3-.2.4s0,.2.2.4c-.1.1-.2.3-.2.4s0,.3.2.4c-.2.2-.2.3-.2.4s0,.3.3.5c0,0,.1,0,.2.1.4.1,1.2.2,2.1.2s1.7,0,2.1-.2c.1,0,.2,0,.2-.1.2-.1.3-.3.3-.5s0-.3-.3-.4c.2-.1.3-.3.3-.4s0-.3-.2-.4c.1-.1.2-.2.2-.4s0-.2-.2-.3c0,0,0,0,0,0h0c0-.2.2-1.4.8-2.5,0-.2.2-.3.3-.5.5-.7,1.1-1.8,1.3-2.9,0-.2.1-.5.1-.7,0-.1,0-.2,0-.3h0c0-.3,0-.5,0-.8-.4-2.2-2.5-3.8-5-3.8s-4.6,1.6-5,3.8c0,.2,0,.5,0,.8ZM12.4,96.9c0,0,0,.1-.2.2,0,0-.1,0-.2,0-.3,0-1.1.1-1.9.1s-1.6,0-2-.1c0,0-.1,0-.2,0-.1,0-.2-.1-.2-.2s0,0,0-.1c.2.1.8.2,2.2.2s2-.1,2.2-.2c0,0,0,0,0,.1ZM12.4,97.7c0,0,0,.1-.2.2,0,0-.1,0-.2,0-.3,0-1.1.1-1.9.1s-1.6,0-2-.1c0,0-.1,0-.2,0-.1,0-.2-.1-.2-.2s0,0,0-.1c.2.1.8.2,2.2.2s2-.1,2.2-.2c0,0,0,0,0,.1ZM9.3,96.6c-.1-.8-.6-4.1-1-5.9.2-.2.4-.4.5-.6l.4.9.8-1.1.8,1,.7-1.2c.1.3.3.7.6,1-.4,1.8-.8,5-.9,5.8-.3,0-.6,0-1,0s-.6,0-.9,0ZM7.8,98.5s0,0,0-.1c.2.1.8.2,2.2.2s2-.1,2.2-.2c0,0,0,0,0,.1,0,0,0,.1-.2.2,0,0-.1,0-.2,0-.3,0-1.1.1-1.9.1s-1.6,0-2-.1c0,0-.1,0-.2,0-.1,0-.2-.1-.2-.2ZM5.4,89.5c0-.3,0-.5,0-.7.4-2,2.4-3.5,4.7-3.5s4.3,1.5,4.7,3.5c0,.2,0,.5,0,.7h0c0,.1,0,.2,0,.3,0,.2,0,.5-.1.7-.3,1-.9,2-1.3,2.8-.1.2-.2.4-.3.5-.6,1.1-.8,2.3-.8,2.6-.1,0-.4.1-.9.1.2-1.6.5-4.1.8-5.5,0,0,.1,0,.2.1.2,0,.4,0,.5,0,.4-.3.4-.7.4-1,0-.3-.3-.5-.5-.6-.1,0-.3,0-.5.3,0,.1-.2.4-.2.7-.2-.3-.4-.8-.5-1v-.3c0,0-.8,1.3-.8,1.3l-.7-1-.7,1-.5-1.1v.3c-.2.2-.3.5-.6.7,0-.4-.1-.6-.2-.8-.1-.3-.4-.5-.7-.5-.3,0-.5.1-.6.3,0,.2-.1.5.3,1,.3.3.6.5.9.4,0,0,.1,0,.2,0,.3,1.7.8,4.8,1,5.7-.5,0-.9,0-1-.1h0c0,0,0,0,0,0,0-.4-.2-1.5-.8-2.5,0-.2-.2-.3-.3-.5-.4-.7-1-1.7-1.3-2.8,0-.2,0-.4-.1-.7,0-.1,0-.2,0-.3ZM7.8,90.6c-.2,0-.4,0-.6-.3-.3-.3-.4-.6-.3-.7,0-.1.2-.2.3-.2.2,0,.4,0,.5.3,0,.1.1.4.2.9,0,0,0,0-.1,0ZM12.5,89.9c0,0,.1-.2.2-.2s0,0,0,0c.1,0,.2.2.3.4,0,.2,0,.6-.3.8,0,0-.2,0-.3,0,0,0-.2,0-.2-.2,0-.4.2-.7.3-.8Z"/>
            <path class="cls-47" d="M52.6,56.3c0,3.8,3.1,6.9,6.9,6.9s6.9-3.1,6.9-6.9-3.1-6.9-6.9-6.9-6.9,3.1-6.9,6.9ZM59.5,62.8c-1.5,0-2.9-.5-4-1.4.7-.4.7-1,.8-1.7.2-.6.6,0,.9.1.3.2.6.3.9.4.8.3,1,.6,1.5-.2.2-.3.6-.8.4-1.1-.3-.5-.9-.5-1.4-.6-.5,0-1.5,0-1.6-.8,0-.4,0-.7-.1-1.1-.1-.5-.6-.9-1.1-1.2-.8-.6-1.6-1.1-2.3-1.6.3-.8.8-1.4,1.4-2,0,0,0,0,0,0,.1,0,.2,0,.4,0,.1,0,.5,1.1.6,1.3.4.6,1.1.9,1.9.8.4,0,.7-1,1-1.2.4-.4.9-.7,1.5-.9.2,0,.4,0,.3-.3,0-.5.2-.9.4-1.4,2.3.6,4.2,2.5,4.7,4.9-.6-.2-1.3-.4-1.3.5,0,.6,0,1.4-.7,1.7-.4.2-.8.4-1.2.6-.6.4-.4.8,0,1.2.4.4.7.6.7,1.2,0,.3,0,.3,0,.7,0,.2.2.3.1.6,0,0,0,0,0,0-1.1.9-2.5,1.4-4.1,1.4Z"/>
            <g>
              <path class="cls-48" d="M13.4,46.5v10.6h9.2v-10.6h-9.2ZM21.6,47.2c0-.2.1-.3.3-.3s.3.1.3.3-.1.3-.3.3-.3-.1-.3-.3ZM20.3,47.2c0-.2.1-.3.3-.3s.3.1.3.3-.1.3-.3.3-.3-.1-.3-.3ZM19,47.2c0-.2.1-.3.3-.3s.3.1.3.3-.1.3-.3.3-.3-.1-.3-.3ZM17.7,47.2c0-.2.1-.3.3-.3s.3.1.3.3-.1.3-.3.3-.3-.1-.3-.3ZM16.4,47.2c0-.2.1-.3.3-.3s.3.1.3.3-.1.3-.3.3-.3-.1-.3-.3ZM15,47.2c0-.2.1-.3.3-.3s.3.1.3.3-.1.3-.3.3-.3-.1-.3-.3ZM13.7,47.2c0-.2.1-.3.3-.3s.3.1.3.3-.1.3-.3.3-.3-.1-.3-.3Z"/>
              <path class="cls-47" d="M21.8,47.2c0,0,0,.1.1.1h0c0,0,.1,0,.1-.1v-1.2c0,0,0-.1-.1-.1h0c0,0-.1,0-.1.1v1.2Z"/>
              <path class="cls-47" d="M17.8,47.2c0,0,0,.1.1.1h0c0,0,.1,0,.1-.1v-1.2c0,0,0-.1-.1-.1h0c0,0-.1,0-.1.1v1.2Z"/>
              <path class="cls-47" d="M15.2,47.2c0,0,0,.1.1.1h0c0,0,.1,0,.1-.1v-1.2c0,0,0-.1-.1-.1h0c0,0-.1,0-.1.1v1.2Z"/>
              <path class="cls-47" d="M13.9,47.2c0,0,0,.1.1.1h0c0,0,.1,0,.1-.1v-1.2c0,0,0-.1-.1-.1h0c0,0-.1,0-.1.1v1.2Z"/>
              <path class="cls-47" d="M16.5,47.2c0,0,0,.1.1.1h0c0,0,.1,0,.1-.1v-1.2c0,0,0-.1-.1-.1h0c0,0-.1,0-.1.1v1.2Z"/>
              <path class="cls-47" d="M19.2,47.2c0,0,0,.1.1.1h0c0,0,.1,0,.1-.1v-1.2c0,0,0-.1-.1-.1h0c0,0-.1,0-.1.1v1.2Z"/>
              <path class="cls-47" d="M20.5,47.2c0,0,0,.1.1.1h0c0,0,.1,0,.1-.1v-1.2c0,0,0-.1-.1-.1h0c0,0-.1,0-.1.1v1.2Z"/>
            </g>
            <g>
              <path class="cls-47" d="M31.7,30.7c0,3.8,3.1,6.9,6.9,6.9s6.9-3.1,6.9-6.9-3.1-6.9-6.9-6.9-6.9,3.1-6.9,6.9ZM32.4,30.7c0-3.4,2.8-6.2,6.2-6.2s6.2,2.8,6.2,6.2-2.8,6.2-6.2,6.2-6.2-2.8-6.2-6.2Z"/>
              <path class="cls-47" d="M38.7,25.4c-.2,0-.4-.2-.4-.4s.2-.4.4-.4.4.2.4.4-.2.4-.4.4Z"/>
              <path class="cls-47" d="M38.7,36c.2,0,.4.2.4.4s-.2.4-.4.4-.4-.2-.4-.4.2-.4.4-.4Z"/>
              <path class="cls-47" d="M33,30.4c.2,0,.4.2.4.4s-.2.4-.4.4-.4-.2-.4-.4.2-.4.4-.4Z"/>
              <path class="cls-47" d="M44.3,30.4c.2,0,.4.2.4.4s-.2.4-.4.4-.4-.2-.4-.4.2-.4.4-.4Z"/>
              <path class="cls-47" d="M35.8,26c0,0-.2,0-.3,0,0,0,0-.2,0-.3,0,0,.2,0,.3,0,0,0,0,.2,0,.3Z"/>
              <path class="cls-47" d="M41.5,35.4c0,0,.2,0,.3,0,0,0,0,.2,0,.3,0,0-.2,0-.3,0,0,0,0-.2,0-.3Z"/>
              <path class="cls-47" d="M33.7,33.5c0,0,.2,0,.3,0,0,0,0,.2,0,.3,0,0-.2,0-.3,0,0,0,0-.2,0-.3Z"/>
              <path class="cls-47" d="M43.4,27.6c0,0,.2,0,.3,0,0,0,0,.2,0,.3,0,0-.2,0-.3,0,0,0,0-.2,0-.3Z"/>
              <path class="cls-47" d="M33.8,27.8c0,0,.1.2,0,.3,0,0-.2.1-.3,0,0,0-.1-.2,0-.3,0,0,.2-.1.3,0Z"/>
              <path class="cls-47" d="M43.7,33.3c0,0,.1.2,0,.3,0,0-.2.1-.3,0,0,0-.1-.2,0-.3,0,0,.2-.1.3,0Z"/>
              <path class="cls-47" d="M36,35.5c0,0,.1.2,0,.3,0,0-.2.1-.3,0,0,0-.1-.2,0-.3s.2-.1.3,0Z"/>
              <path class="cls-47" d="M41.5,25.6c0,0,.1.2,0,.3,0,0-.2.1-.3,0s-.1-.2,0-.3c0,0,.2-.1.3,0Z"/>
              <path class="cls-47" d="M35.2,30.6c0,0,0,.1,0,.1l1.1.5s0,0,0,0,0,0,0,0c0,0,0,0,0-.1v-.3h1.3c0,.4.4.7.8.7s.8-.3.8-.8-.2-.7-.6-.7v-2.2h.3c0,0,.1,0,.1,0,0,0,0,0,0-.1l-.5-1.1c0,0,0,0-.1,0,0,0-.1,0-.1,0l-.5,1.1s0,.1,0,.1c0,0,0,0,.1,0h.3v2.2c-.2,0-.4.2-.5.4h-1.4v-.3c0,0,0-.1,0-.1,0,0-.1,0-.1,0l-1.1.5c0,0,0,0,0,.1ZM38.7,27.7v2.2s0,0,0,0,0,0,0,0v-2.2s0,0,0,0h-.4s0,0,0,0c0,0,0,0,0,0l.5-1.1s0,0,0,0,0,0,0,0l.5,1.1h0s0,0,0,0h-.4s0,0,0,0ZM35.4,30.6s0,0,0,0l1.1-.5h0s0,0,0,0v.4s0,0,0,0h1.4s0,0,0,.1h-1.4s0,0,0,0v.4s0,0,0,0h0s0,0,0,0l-1.1-.5s0,0,0,0Z"/>
            </g>
          </g>
          <g>
            <g>
              <polygon class="cls-78" points="223 221.5 161.6 205 80.9 224.8 131.8 245.6 223 221.5"/>
              <path class="cls-70" d="M131.8,246.1c0,0-.1,0-.2,0l-50.9-20.8c-.2,0-.3-.3-.3-.5,0-.2.2-.4.4-.4l80.7-19.8c0,0,.2,0,.2,0l61.4,16.5c.2,0,.4.2.4.5,0,.2-.1.4-.4.5l-91.2,24.1s0,0-.1,0ZM82.4,224.9l49.4,20.2,89.3-23.6-59.5-16-79.2,19.4Z"/>
            </g>
            <g>
              <polygon class="cls-27" points="132.4 253.8 131.8 245.6 80.9 224.8 80.9 225.2 82.2 319.4 132.9 341 132.4 253.8"/>
              <path class="cls-70" d="M132.9,341.5c0,0-.1,0-.2,0l-50.6-21.6c-.2,0-.3-.2-.3-.4l-1.3-94.2v-.4c0-.2,0-.3.2-.4s.3-.1.5,0l50.9,20.8c.2,0,.3.2.3.4l.6,8.2.5,87.2c0,.2,0,.3-.2.4,0,0-.2,0-.3,0ZM82.7,319.1l49.7,21.2-.5-86.5-.6-7.8-49.9-20.4,1.3,93.5Z"/>
            </g>
            <g>
              <polygon class="cls-29" points="223 221.9 223 221.5 131.8 245.6 132.4 253.8 132.9 341 223.5 314.1 223 221.9"/>
              <path class="cls-70" d="M132.9,341.5c-.1,0-.2,0-.3,0-.1,0-.2-.2-.2-.4l-.5-87.2-.6-8.1c0-.2.1-.4.4-.5l91.2-24.1c.1,0,.3,0,.4,0,.1,0,.2.2.2.4v.3l.5,92.2c0,.2-.1.4-.3.5l-90.7,27s0,0-.1,0ZM132.3,246l.6,7.8.5,86.6,89.7-26.7-.5-91.5-90.2,23.8Z"/>
            </g>
          </g>
          <path class="cls-42" d="M150.1,233.8c-1.3.6-2.5,1.1-3.8,1.7-1-2.7-2-5.3-3.6-7.7-1.5-2.2-3.7-4.1-5.9-5.6-4.3-2.9-9.1-4.3-14-3.4,0-.1,0-.2-.1-.2-6.9,2.3-13.8,4.8-19.3,9.7-5.3,4.7-8.1,11.7-10.7,18.2-3.1,7.7-5.6,15.7-8.6,23.5-1.1,3-6.4,15.3-7.8,18.5-1.7,3.9-3.6,7.6-5.2,11.5-.7,1.7-1.9,3.3-2.5,5-.5,1.4-.1,1.9,1.1,2.6,1.3.7,3,1.2,4.4,1.8,1.8.9,3.6,1.8,5.4,2.8,0,.5-.1,1.1-.2,1.6,0,.4.4,0,.5-.2,0-.4.1-.8.2-1.1,0,0,0,0,.1,0,.3.2.9-.5.6-.7-.2,0-.3-.2-.5-.3.5-2.3,1.2-4.6,2.3-6.8,1.4-2.9,2.9-5.6,4.6-8.4,3.4-5.5,7-11,10.6-16.4,3.7-5.6,7.4-11.1,10.8-16.8,2.5-4.2,4.5-8.8,7.1-13,.5-.5,1-1,1.6-1.4,1.4-.9,3-1.4,4.5-2,2.9-1.1,5.8-2.2,8.6-3.6,3.2-1.6,6.5-2.8,9.7-4.2,2-.9,3.9-1.8,5.9-2.8,0,0,0,.2,0,.3.1.3.6-.2.5-.5,0,0,0,0,0,0,1.2-.6,2.4-1.2,3.6-1.8.1,0,.3-.5,0-.4Z"/>
          <path class="cls-72" d="M129.8,242.6c-3.2,1.5-6.6,2.8-10,4.1-1.1.4-2,.9-2.8,1.5.5-.6,1-1.3,1.5-1.9.2-.2,0-.5-.2-.2-1.2,1.2-2.2,2.5-3.2,3.8-.4.5-.8.9-1.1,1.5,0,.1,0,.2,0,.3-.2.4-.5.8-.7,1.2-1.5,3-3.1,6-4.8,9-3.5,6.2-7.5,12-11.4,17.9-3.7,5.6-7.4,11.2-10.9,16.9-2.8,4.5-5.6,9.2-6.6,14.5-2.5-1.4-5-2.6-7.6-3.8-.7-.3-1.5-.4-2.1-.8-1.4-.8-.3-2.5.2-3.5.9-1.8,1.7-3.6,2.5-5.4,1.4-3.1,2.8-6.3,4.2-9.4,1-2.3,3.6-8.1,4.1-9.1,4.9-11.7,7.6-19.9,11.4-30,2.5-6.9,5.4-14.4,10.6-19.7,4.9-5,12-7.8,18.5-10.2,1.2-.2,2.4-.4,3.6-.4,1.5,0,3,.3,4.5.7,2.7.6,5.1,2,7.4,3.5,4.7,3.1,7.1,7.6,8.9,12.7-5.3,2.3-10.7,4.5-15.9,6.9Z"/>
          <path class="cls-3" d="M108.8,244.7c-2.7-4.1-6-7.7-9-11.6-3.4,4.8-5.6,10.7-7.6,16.1-.4,1-.7,1.9-1,2.8,3.6,4.2,7.3,8.3,10.7,12.7.9,1.2,1.8,2.3,2.7,3.6,1.3-2.1,2.6-4.2,3.9-6.4,1.7-2.9,3.2-6,4.8-9,0,0,0-.1.1-.2-1.4-2.8-2.9-5.5-4.6-8.1Z"/>
          <path class="cls-50" d="M95.7,242.1c2.6-5.2,5.7-10.3,10.2-14,3.1-2.5,6.5-4.5,9.8-6.6-4.8,2-9.4,4.4-12.9,8-5.2,5.3-8.1,12.8-10.6,19.7-.7,1.9-1.4,3.8-2,5.6,1.8-4.3,3.5-8.6,5.5-12.7Z"/>
          <path class="cls-3" d="M136.8,223c-2.3-1.5-4.7-2.8-7.4-3.5-1.4-.3-3-.7-4.5-.7-1.2,0-2.4.3-3.6.4-2.5.9-5,1.9-7.5,3,1.2-.3,2.5-.4,3.7-.3,3.5.3,7.5,2.7,8.1,6.5.8,5.2-5.2,8.6-9,10.7-2.3,1.3-4.8,2.4-7,4-3.7,2.6-6.6,6-9,9.8-5,7.9-8.6,16.8-12.7,25.2-2.1,4.2-4.2,8.4-6.3,12.6-1.6,3.1-3.2,6.5-6.1,8.6,0,0-.2,0-.3,0-1-.7-1.7-1.7-2.2-2.8-.2.4-.3.7-.5,1.1-.8,1.8-1.6,3.7-2.5,5.4-.5,1-1.7,2.7-.2,3.5.7.4,1.4.5,2.1.8,2.6,1.1,5.1,2.4,7.6,3.8,1-5.2,3.8-10,6.6-14.5,3.5-5.7,7.2-11.3,10.9-16.9,3.9-5.9,7.9-11.8,11.4-17.9,1.7-2.9,3.2-6,4.8-9,.2-.4.4-.8.7-1.2,0,0,0-.2,0-.3.4-.5.7-1,1.1-1.5.9-1.4,2-2.6,3.2-3.8.2-.2.4,0,.2.2-.5.6-1,1.2-1.5,1.9.8-.6,1.8-1.1,2.8-1.5,3.3-1.3,6.7-2.6,10-4.1,5.2-2.4,10.6-4.6,15.9-6.9-1.8-5.1-4.2-9.6-8.9-12.7Z"/>
          <path class="cls-3" d="M123.7,221.5c2.9,1,5.4,3.2,6.9,5.9,2.4,4.1,3.3,8.8,3.3,13.4,3.9-1.7,7.9-3.3,11.8-5-1.8-5.1-4.2-9.6-8.9-12.7-2.3-1.5-4.7-2.8-7.4-3.5-1.4-.3-3-.7-4.5-.7-1.2,0-2.4.3-3.6.4-1.2.4-2.3.9-3.5,1.3,2,0,4,.2,5.8.8Z"/>
          <path class="cls-73" d="M84.6,310.4c0-.8.5-1.3.3-2.1-.1-.7-.9-1.4-1.4-1.8-1.3-1-2.1.1-2.8,1.2,0,0,0,.1,0,.1-.8.3-1.6.6-2.5.4-.9-.1-2-.2-2.7-.8-.4-2.2-1.9-3.7-4.3-4.6-2.5-.9-5-.2-6.2,2.2,0,0,0,0,0,0-6.4,6.6-15.4,7.9-24,10.1-3.3.9-7.2,2.1-9.5,4.8-1.9,2.3-2.2,5.1.4,6.9,2.9,2.1,7.2,2.5,10.6,3.1,4.5.7,9,1,13.6,1,4.5,0,9-.5,13.3-1.8,1.9-.6,3.8-1.5,5.6-2.4,2.4-1.2,4.6-2.2,7.3-2.7,0,0,0,0,0,0,0,0,0,0,0,0,.3,0,.5-.3.7-.5.6-1.7,1-3.5,1.3-5.2.3-1.4.5-2.9.6-4.3,0-1.3-.2-2.6,0-3.8Z"/>
          <path class="cls-47" d="M77.4,324.9c-2,.9-3.9,2-5.9,2.9-4.1,1.7-8.5,2.3-12.9,2.5-4.5.2-9-.1-13.5-.7-3.8-.4-7.6-1-11.1-2.3-1.5-.5-2.9-1.4-3.6-2.8-.3-.7-.3-1.5-.1-2.1,0,.8.7,1.3,1.5,1.9,1.9,1.3,3.9,2.1,6.2,2.8,5,1.4,10.3,1.9,15.4,2,4.9.1,10.1.1,14.8-1.5,2.3-.8,4.5-2.1,6.7-3.1,2.5-1.2,5-1.8,7.7-2.2-.1.5-.3.9-.4,1.4-1.7.3-3.3.7-4.9,1.5Z"/>
          <path class="cls-8" d="M84.1,310.1c-.5,1.4,0,3,0,4.4,0,2.3-.5,4.6-1.1,6.9-4.2.6-7.7,2.2-11.5,4.1-4.4,2.3-9.1,2.9-14.1,3-4.9,0-9.9-.2-14.7-1-2.2-.4-4.3-.9-6.4-1.6-1.4-.5-6-2.2-5.4-4.3,0,0,0,0,0,0,.9-1.5,2.8-2.7,4-3.4,3.5-2,7.7-2.6,11.6-3.5,6.5-1.5,14.3-3.5,18.6-9.1.1,0,.2-.1.3-.2,1.4-2.7,4.1-2.2,6.4-1.2,2.1.9,3,2.7,3.4,4.7.1.3.3.5.4.8,0-.4,0-.9,0-1.3.8.5,1.8.5,2.7.7,1,.1,2.2-.2,2.9-.9,0,0,.2-.4,0-.4,1.6-1.7,3.6.6,2.9,2.5Z"/>
          <path class="cls-9" d="M37,318.1c4.4-1.8,9.1-2.9,13.6-4.3,5-1.5,10.7-3.4,14.2-7.5.8-.9,1.5-2,2.4-2.9-.7.3-1.4.8-1.9,1.7,0,.1-.2.2-.3.2-4.3,5.6-12.1,7.6-18.6,9.1-3.8.9-8.1,1.5-11.6,3.5-1.2.7-3.1,1.9-4,3.4,0,0,0,0,0,0,0,.3,0,.6,0,.8,1.5-2,3.8-3.2,6.2-4.2Z"/>
          <path class="cls-10" d="M81.2,307.6c.1,0,0,.3,0,.4-.8.7-1.9,1-2.9.9-.9-.1-1.9-.2-2.7-.7,0,.4,0,.8,0,1.3-.1-.3-.3-.6-.4-.8-.4-2-1.3-3.8-3.4-4.7-2.1-.9-4.6-1.4-6.1.7,1.3-.5,2.6-.5,3.9,1,.9,1,1.9,2.5,1.4,3.9-.7,1.9,1.8,3,3,4.3,1-1,1.9-2.2,3.2-2.8.2,0,.4,0,.5.2.5,3.2.4,7.5-2.8,9.1-1.9,1-4.1,1.5-6.1,2.2-2.6,1-5.2,2.3-8,2.9-5.3,1.2-10.6,0-15.7-1.4-3-.8-6-1.6-8.9-2.6-1.3-.4-2.3-1.2-3.4-1.9-.7.6-1.3,1.2-1.8,1.9,0,0,0,0,0,0-.6,2.1,4,3.8,5.4,4.3,2.1.7,4.2,1.3,6.4,1.6,4.9.8,9.8,1.1,14.7,1,4.9,0,9.6-.7,14.1-3,3.8-1.9,7.3-3.5,11.5-4.1.6-2.3,1.1-4.6,1.1-6.9,0-1.4-.4-3,0-4.4.7-1.9-1.3-4.2-2.9-2.5Z"/>
          <g>
            <g>
              <path class="cls-42" d="M112.9,217.5c-1.1-3.8-2.9-7.2-4.9-10.5-2-3.4-4.1-6.7-6.7-9.7-2.6-3.2-4.9-6-9-7.2,0,0-.2,0-.2.1-6.1-2-12.3-2.8-18.7-2.9-3.7,0-7.5,0-11.1.7-2.8.5-5.5,1-7.8,2.8-4,3.1-5.1,8.3-5.1,13.1,0,2.7.1,5.6,1.9,7.7,2,2.4,4.4,4.8,6.9,6.8.4.4.8.8,1.2,1.3,1.7,1.9,3.7,3.5,5.5,5.3,3.9,4,7.9,7.8,12,11.5,4,3.6,7.9,7.3,11.8,11,4.1,3.8,7.9,7.9,12.1,11.5,0,0,.2,0,.2,0,1.7.4,3.2-3.3,3.7-4.3,1.1-2.1,2-4.6,2.5-6.9.1,0,.2-.2.1-.3,0,0,0,0,0,0,0-.2,0-.4.1-.5,0-.4-.3-.2-.5,0-3.3-4.5-6.5-9.1-9.4-13.8-3.1-5-6-10.2-9.2-15.1-.8-1.3-1.6-2.5-2.5-3.8,1.4.7,2.9,1.3,4.2,1.8,2.2.9,4.4,1.8,6.7,2.4,4.6,1.1,9.2,2.1,13.9,2.9,2.4.9,2.7-1.7,2.2-3.5Z"/>
              <path class="cls-72" d="M111.6,220.4c0,0,0-.1-.1-.1-4.4-.8-8.8-1.7-13.2-2.8-2.3-.6-4.5-1.5-6.7-2.2-1.1-.4-2.2-.8-3.3-1.3-1-.4-2.2-.8-3.2-1.3-2-2.9-4-5.7-6.2-8.5-1.7-2.2-3.6-4.3-5.6-6.3-2-2-4.5-3-6.6-4.7-.1-.1-.4.2-.3.3,1.9,1.7,4.2,2.8,6,4.6,2,2,3.8,4.2,5.6,6.3,3.7,4.4,7,9.4,10.1,14.3,6.1,9.5,11.2,19.9,18.8,28.3-.5,1.3-.8,2.8-1.2,4.1-.3.9-2.8,7.6-4.4,6.8,0,0,0,0-.1,0-7.7-7.6-15.4-15.2-23.4-22.6-6.2-5.7-11.9-11.8-18.2-17.4,0,0,0-.1,0-.2-2-2.1-4.2-3.9-6.2-6-2.2-2.3-2.8-4.7-3-7.8-.2-5.3,1-10.9,5.8-13.9,2.6-1.6,6.2-1.9,9.2-2.2,3-.3,6.1-.3,9.2-.3,6.4.1,12.9,1,19,3,0,0,0,0,0,0,2.6,1.2,4.5,3.1,6.2,5.6,1.8,2.5,3.8,4.8,5.5,7.4,1.8,2.8,3.4,5.6,5,8.6.7,1.3,1.2,2.7,1.7,4.1.2.7.4,1.4.6,2.2.2,1,0,1.7-.8,1.7Z"/>
              <path class="cls-50" d="M72.4,230.2c-3.9-4.3-8.1-8.3-12.2-12.4-1.9-1.9-3.9-3.9-5.5-6-1.3-1.7-2.7-3.4-3.1-5.5-.9-4.1-.2-8.5,1-12.5-1.9,3-2.5,6.8-2.3,10.5.1,3.1.8,5.5,3,7.8,2,2.1,4.2,3.9,6.2,6,0,0,0,.1,0,.2,5.5,4.9,10.5,10.2,15.8,15.2-.9-1.1-1.9-2.1-2.8-3.2Z"/>
              <path class="cls-3" d="M58.1,207.6c-1.3,1.5-3.1,3.9-5.1,4.4,0,0,0,0,0,0,.8.9,1.7,1.7,2.6,2.5,1.8-1.7,2.8-5,2.5-7Z"/>
              <path class="cls-3" d="M112.4,218.7c-.2-.7-.4-1.5-.6-2.2-.5-1.4-1-2.8-1.7-4.1-1.5-2.9-3.2-5.8-5-8.6-1.7-2.6-3.7-4.9-5.5-7.4-1.7-2.4-3.6-4.4-6.2-5.6,0,0,0,0,0,0-6.1-1.9-12.6-2.8-19-3-3.1,0-6.1,0-9.2.3-3,.3-6.6.6-9.2,2.2-1.5.9-2.7,2.1-3.5,3.4.1,0,.2-.2.3-.2,3-1.8,7-.3,9.8,1.3,3.6,2.1,6.6,5.2,9.6,8.1,6.2,6.3,10.6,13.9,14.9,21.5,2.2,3.9,4.3,7.8,6.6,11.7,1.2,2,2.6,3.8,3.9,5.7.9,1.3,1.8,2.6,2.1,4.2.4,2.4-.7,6.3-2.8,8,1.4,1.3,2.7,2.7,4.1,4,0,0,.1,0,.1,0,1.6.8,4.1-5.9,4.4-6.8.4-1.4.7-2.8,1.2-4.1-7.6-8.4-12.7-18.8-18.8-28.3-3.1-4.9-6.4-9.8-10.1-14.3-1.8-2.2-3.6-4.3-5.6-6.3-1.8-1.8-4.1-2.9-6-4.6-.1-.1.1-.4.3-.3,2.2,1.7,4.7,2.7,6.6,4.7,2,2,3.9,4.1,5.6,6.3,2.2,2.7,4.2,5.6,6.2,8.5,1,.5,2.2.9,3.2,1.3,1.1.5,2.2.9,3.3,1.3,2.3.7,4.4,1.6,6.7,2.2,4.4,1.1,8.7,2,13.2,2.8,0,0,.1,0,.1.1.8,0,1-.7.8-1.7Z"/>
              <path class="cls-3" d="M92.6,226.6c-1.5-2.6-3.1-5.2-4.7-7.7-3.1-4.9-6.4-9.8-10.1-14.3-1.8-2.2-3.6-4.3-5.6-6.3-1-1-2.1-1.7-3.1-2.5-.7-.3-1.3-.7-2-.9,9.1,10,15.6,22.5,25.5,31.7Z"/>
              <path class="cls-3" d="M112.4,218.7c-.2-.7-.4-1.5-.6-2.2-.5-1.4-1-2.8-1.7-4.1-1.5-2.9-3.2-5.8-5-8.6-1.7-2.6-3.7-4.9-5.5-7.4-1.7-2.4-3.6-4.4-6.2-5.6,0,0,0,0,0,0-3.3-1-6.6-1.8-10-2.2,4.3,2.6,8.2,5.9,11.4,9.9,1.8,2.3,3.2,4.8,4.6,7.3.8,1.4,2.5,4.2,1.6,5.9-1,1.9-4.1.6-5.5,0-3.1-1.3-6.2-2.6-9-4.4-3.4-2.2-6.7-4.5-10-6.9-.8-.6-1.6-1.1-2.4-1.7,1.7,1.8,3.3,3.6,4.8,5.5,2.2,2.7,4.2,5.6,6.2,8.5,1,.5,2.2.9,3.2,1.3,1.1.5,2.2.9,3.3,1.3,2.3.7,4.4,1.6,6.7,2.2,4.4,1.1,8.7,2,13.2,2.8,0,0,.1,0,.1.1.8,0,1-.7.8-1.7Z"/>
            </g>
            <path class="cls-73" d="M124.6,253.6c0-1.4-.5-2.8-1.2-4.1-.6-.7-1.2-1.4-1.8-2.1-1.3-1-2.6-2-3.9-3.1-3.6-1.7-7.6-2.1-10.9.5-2.4,1.9-3.6,4.7-5,7.2-1.5,2.7-5.4,2.3-6.5,5.3-.3.9-.1,2,0,2.9.2.9.4,1.8.4,2.7,0,1.1-.6,2.1-.8,3.1-.4,1.9-.8,3.9-1.5,5.7-.6,1.7-1.5,3.3-2.3,5-2,4.3-3.7,11-1.3,15.6.1.5.4,1.1.7,1.6.9,1.2,2.7,1.7,4.1,1.9,1.5.2,2.6-.4,3.7-1.4,3-2.8,5.6-6.2,8-9.5,2.6-3.5,4.4-7.4,6.6-11,2.3-3.8,5.1-7.3,7.9-10.8,2.2-2.9,3.9-5.8,3.7-9.6Z"/>
            <path class="cls-8" d="M92.2,275.8c1.1-2.5,2.2-4.8,2.8-7.4.7-2.7,1.6-5.2,1-8-.4-1.9-.6-3.5,1.5-4.7,1-.6,2.2-.9,3.1-1.6,2.1-1.4,2.9-4.5,4.3-6.5,2.1-3,5.1-4.3,8.6-3.6,1.4.3,2.7.8,3.9,1.4-3.5.3-6,2.9-8.2,5.7-1.3,1.7-2.3,3.7-3.2,5.7-1.1,2.6-2.2,5-3.6,7.4-2.7,4.7-5.2,9.5-8.4,13.9-1.9,2.6-4.1,5.4-4.9,8.5.1-3.8,1.5-7.7,2.9-10.7Z"/>
            <path class="cls-9" d="M93.6,274.2c1.2-2.3,2.4-4.7,3.1-7.2.4-1.4.8-2.9.5-4.4-.2-1-.5-1.9-.7-2.9-.2-1.3-.3-2.3.9-2.9,1.9-.8,3.7-1.8,5.1-3.3,1.6-1.8,2.3-3.7,3-6,0-.2.2-.5.2-.7-.2.3-.4.5-.6.8-1.4,2-2.2,5.1-4.3,6.5-1,.7-2.1,1-3.1,1.6-2.1,1.1-1.8,2.8-1.5,4.7.5,2.8-.3,5.3-1,8-.7,2.7-1.7,5-2.8,7.4-.4.9-.8,1.9-1.2,2.9.9-1.5,1.7-3,2.6-4.5Z"/>
            <path class="cls-10" d="M113.6,243.9c-3.5-.7-6.6.6-8.6,3.6-.8,1.1-1.4,2.6-2.1,3.9,1.5-1.4,3.1-2.8,5.3-2.4.2,0,.3.4.1.5-9.2,8.6-9.3,24.5-18.4,32.7-.3,1.4-.6,2.9-.6,4.3.7-3.2,2.9-5.9,4.9-8.5,3.2-4.4,5.7-9.2,8.4-13.9,1.4-2.4,2.5-4.8,3.6-7.4.8-2,1.9-4,3.2-5.7,2.1-2.7,4.7-5.4,8.2-5.7-1.2-.6-2.5-1.1-3.9-1.4Z"/>
            <path class="cls-47" d="M89.9,289.5c0,.3-.1.7-.2,1-.1-.5-.2-1-.3-1.5,0,0,0,0,0,0,0-1,0-2,.4-3,.3-1.2,1.2-2.4,1.9-3.5,1.2-1.9,2.6-3.8,3.9-5.6,2.4-3.5,4.4-7.3,6.5-11,1.1-1.9,2.2-3.8,3.2-5.8.9-2,1.7-4,2.7-5.9,1.1-2.1,2.4-4,4.2-5.6.8-.7,1.6-1.4,2.4-2,1.1-.8,2.4-.8,3.7-.8.7.4,1.3.8,2,1.2-.2,0-.5-.1-.7-.1-2.9-.3-5.4,2.6-7.1,4.5,0,0,0,.2,0,.3-2,2.3-3.5,5.3-4.8,8-1.7,3.6-3.8,7-5.6,10.5-1,2.1-2.6,3.9-3.9,5.8-1.2,1.7-2.4,3.5-3.7,5.2-.8,1-1.4,2-2.1,3.1,0-.2-1.1,1.5-1.4,2.3-.5,1-.9,2-1,3.1,0,0,0,0,0,0Z"/>
            <path class="cls-40" d="M123.6,257.4c-.8,3.1-3.4,5.7-5.3,8.2-2,2.5-3.9,5-5.5,7.7-1.7,2.7-3.1,5.5-4.7,8.3-1.9,3.1-4.2,5.9-6.6,8.7-1,1.2-2,2.3-3.1,3.4-1.8,1.9-4,1.7-6.2.6-2.5-1.3-2-4.2-1.1-6.8.5-1.1,1.2-2.1,1.9-3.2,1.1-1.6,2.1-3.2,3.3-4.8,2.2-3,4.4-6.1,6.3-9.3,1.8-3.1,3.4-6.4,5.1-9.6,1.8-3.3,3.3-7,5.8-9.9,0,0,0-.1,0-.2,2-2,4.4-4,7.2-2.6,3.1,1.6,3.5,6.6,2.7,9.5Z"/>
            <path class="cls-15" d="M122,250.5c-1,0-2,0-2.9.4-2,.8-3.6,2.4-4.9,4.1-2.7,3.8-4.7,8.1-7.1,12.1-3,5-6.2,9.8-9.3,14.7-2.2,3.6-6.1,7.1-6.7,11.4.3.4.7.8,1.2,1,2.2,1.1,4.4,1.3,6.2-.6,1.1-1.1,2.1-2.2,3.1-3.4,2.3-2.7,4.7-5.6,6.6-8.7,1.6-2.7,3.1-5.6,4.7-8.3,1.6-2.7,3.5-5.2,5.5-7.7,1.9-2.4,4.5-5.1,5.3-8.2.5-1.9.5-4.6-.4-6.8-.5,0-.9-.1-1.2-.2Z"/>
          </g>
          <path class="cls-55" d="M154.4,173.1c0,0-.1,0-.2,0,0,0-.2.2,0,.2,0,0,.1,0,.2,0,0,0,.1-.2,0-.2Z"/>
          <g>
            <path class="cls-63" d="M196.7,198.1c.6-1.7-.5-1.9-2.2-2-3-.2-6.1,0-9.2-.1-6.4,0-12.7-.7-19.1-1.1-6.4-.4-12.7-.5-19.1-.5-3.1,0-6.2.1-9.2.1-1.2,0-2,.6-2.6,1.4-.9.9-1.7,2-2.3,3.1-.1.2-.2.4-.3.6-1.8-1-3.8-1.7-5.6-2.4-3.8-1.5-7.6-3-11.6-3.8-3.9-.8-7.6-1.9-11.5-2.8-3.8-.8-7.7-1.1-11.5-1.9,0,0,0,0,0,0-.6-.2-1.1-.6-1.8-.6-1.3,0-2.7-.2-4,.4-.1,0-.4.5-.2.6,1.7,1,3.5,1.7,5.2,2.7,1.9,1.2,3.8,2.5,5.4,4.1,3.4,3.2,6.3,7.1,8.7,11.2,1.2,1.9,2.1,3.9,2.9,6,.9,2.3,1.3,4.7,2,7.1.3,1.1.5,3,1.9,2.9,1.3,0,2.7-1.1,3.8-1.9.4-.2.7-.4,1.1-.6,0,0,.1,0,.2,0,.3,0,.5-.3.8-.3.2,0,.4,0,.7-.1.8,0,1.7,0,2.5.1,1.7.4,3.4,1.4,4.9,2.1,3.2,1.6,6,3.6,8.5,6.1,2.5,2.5,4.6,5.3,6.3,8.4,1.8,3.2,2.6,6.4,2.9,10.1,0,0,0,0,0,0,0,0,0,.1,0,.2,0,0,0,0,0,0,.4,0,.8,0,1.2-.1,0,0,0,0,.1,0,.6-.2,1.2-.3,1.8-.5.9-.3,1.8-.6,2.7-.9,0,0,0-.1,0-.2.1-.2.2-.5,0-.5,0-.5,0-1,0-1.5,2.2-.5,4.3-1.1,6.4-1.8,3.2-1,6.5-1.9,9.6-3.1,6.1-2.4,12.3-5.2,17.6-9.1,4.7-3.4,8.2-8.8,10.3-14.1,2.2-5.5,3.5-11.4,2.6-17.3Z"/>
            <g>
              <path class="cls-30" d="M111.7,221.5c-.7-2-1.2-4.1-1.7-6.2-.9-3.8-2.8-7.3-5-10.6-2.2-3.4-4.7-6.5-7.6-9.4-1.5-1.5-3.2-2.6-4.9-3.8-1.6-1.1-3.4-1.7-5.1-2.7.7-.1,1.5,0,2.3,0,.7,0,1.5,0,2.1.4,0,0,.1,0,.1,0,5.8,3.5,10.3,8.8,14.1,14.3,2,2.9,3.7,5.9,5.3,9.1.8,1.6,1.5,3.3,2.2,5,.4,1.1.7,2.6,1.5,3.5-1.3.8-2.9,1.5-3.4.1Z"/>
              <path class="cls-30" d="M149.5,245.2c-.7.2-1.4.4-2.1.6-.8.2-1.6.5-2.4.8,0,0,0,0-.2,0,.4-6.8-4.2-13.2-8.5-17.9-2.4-2.7-5.2-4.7-8.4-6.4-1.6-.8-3.3-1.5-4.9-2.1-1.2-.5-2.2-.4-3.3-.4,0-.1,0-.2-.1-.2-.4,0-.7,0-1.1.1.3-.2.6-.4.8-.5.5-.4,1-.9,1.5-1.2,0,0,0,0,.1,0,.3,0,.7,0,1,0,0,.1,0,.2.1.2.2,0,.4-.1.5-.2,6.6.4,13,4,17.7,8.5,2.7,2.6,4.8,6.1,6.4,9.4.8,1.5,1.4,3.1,2,4.7.3.8.5,1.6.6,2.4h0c.1.4.2.9.3,1.3,0,.1,0,.3-.1.3,0,.2,0,.4,0,.6Z"/>
              <path class="cls-30" d="M181.8,230.2c-9.4,6.3-20.7,9.9-31.7,12.6-.4-2.4-1.4-4.6-2.4-7-1.6-3.5-3.8-6.9-6.4-9.7-2.5-2.6-5.8-4.8-9-6.3-2.5-1.2-5.4-2.1-8.2-2.3,3.7-1.2,7.4-2.5,11-3.8,2-.8,4.1-1.6,6.1-2.3,2.5-.9,5.1-1.3,7.7-1.5,4.8-.5,9.8,0,14.6.8,3.9.6,7.4,2,11.1,3.2-.4-.4-.8-.8-1.2-1.3-6.5-2.6-13.6-3.7-20.6-3.6,2-.3,3.9-.6,5.9-.8,3-.4,5.8-.3,8.8-.3-1-.3-1.9-.5-2.9-.7-.4,0-.8,0-1.2,0-1.7,0-3.3.2-5,.4-1.7.2-3.4.3-5.1.6-1.2.2-2.4.4-3.5,1,0,0,0,0-.1,0-2.3.2-4.6.4-6.8,1-2.3.7-4.5,1.6-6.7,2.5-.3.1-.7.3-1,.4-1.9-3.2-4.6-5.9-6.8-9-.1-.1-.4.1-.3.2,2,3,4,6.3,6.3,9-1.7.7-3.5,1.3-5.2,2-2.1.8-4.3,1.4-6.4,2.3-.6,0-1.2,0-1.8,0,0,0,0,0-.2,0,0,0,0,0,0,0,0,0,0,0,0,0,0,0-.1,0-.2.1-.6.4-1.2.9-1.8,1.3-.4.3-.8.6-1.2,1-.4.2-.9.3-1.3.6-1.1.7-1.4-.6-1.7-1.4-.7-1.9-1.4-3.8-2.2-5.6-1.4-3.4-3.5-6.6-5.5-9.6-3.5-5.3-7.7-10.3-13-13.9,3,.5,6,.8,8.9,1.4,3.9.8,7.6,2,11.5,2.8,3.8.8,7.6,1.9,11.1,3.5,1.6.7,3.3,1.3,4.9,2,.5.2,1,.5,1.6.7.7.3,1.3.5,2,.8.4.1.8.3,1.2.4-.6-.5-1.3-1-2.1-1.4.5-1,1-2.1,1.7-3,.3-.3.7-.7.9-1,.9-1.2,2.5-.9,3.8-.9,2.7,0,5.3-.1,8-.1,5.5,0,11.1.1,16.6.4,5.6.3,11.2.6,16.7,1,2.5.2,5.1.3,7.6.3,1.3,0,2.7,0,4,0,1.1,0,4.3-.4,3.6,1.7,0,.3,0,.3.2.2,1,11.9-4.6,24.9-14.6,31.5Z"/>
              <path class="cls-31" d="M145,211.1c1.7-.6,3.5-1,5.3-1.4-.4,0-.9,0-1.3,0-2.7.2-5.2.6-7.7,1.5-2.1.8-4.1,1.6-6.1,2.3-3.6,1.4-7.3,2.7-11,3.8,1.2.1,2.5.3,3.7.7,1.6-.7,3.3-1.4,4.9-2.1,4.1-1.7,8.1-3.6,12.4-5Z"/>
              <path class="cls-31" d="M98.1,190.9c1.9,1.2,3.8,2.1,5.9,2.8,3.2,1,6.5,1.8,9.6,3,.8.2,1.6.3,2.3.5,4.1.7,8.1,1.6,11.9,3.2,1,.4,5.2,2.4,5.3.2-.4-.1-.7-.3-1.1-.4-.6-.3-1.1-.5-1.6-.7-1.6-.7-3.3-1.3-4.9-2-3.5-1.5-7.4-2.7-11.1-3.5-3.9-.8-7.6-2-11.5-2.8-1.9-.4-3.9-.7-5.8-1,.3.2.7.4,1,.6Z"/>
            </g>
          </g>
          <path class="cls-18" d="M196.7,198.1c.6-1.7-.5-1.9-2.2-2-3-.2-6.1,0-9.2-.1-6.4,0-12.7-.7-19.1-1.1-6.4-.4-12.7-.5-19.1-.5-3.1,0-6.2.1-9.2.1-1.2,0-2,.6-2.6,1.4-.9.9-1.7,2-2.3,3.1,0,0-.1.2-.2.3,2.3,2.7,5.9,4.6,8.6,6.1.3.1.2.5,0,.6-3,.9-6.5,3.2-9.5.9-1.5-1.2-2.5-2.8-3.8-4.2-1-1.1-2-2.5-3.3-3.2,1.2,2.4,2.8,4.5,4,6.8.5,1,1.8,3,1,4.1-.4.6-1.5.8-2.1,1-1.3.4-2.6.8-3.9,1.2-2.4.7-5.1,1.6-7.6,1.7-2.2.2-3.4-1.2-4.3-3.1-1.2-2.4-2.2-4.8-3.6-7-1.7-2.8-3.8-5.4-6.2-7.5,1,1.5,2,3.1,2.9,4.7,2.2,4,3.7,8.1,5.4,12.3.1.4-.4.6-.6.3-.9-1.5-1.8-3.1-2.8-4.6.6,1.2,1.2,2.5,1.7,3.8.9,2.3,1.3,4.7,2,7.1.3,1.1.5,3,1.9,2.9,1.3,0,2.7-1.1,3.8-1.9.4-.2.7-.4,1.1-.6,0,0,.1,0,.2,0,.3,0,.5-.3.8-.3,0,0,.1,0,.2,0,.9-1.3,1.8-2,3.4-2.3.7-.1,1.4-.3,2-.5,0,0,.1-.1.2-.1.3,0,.5-.1.8-.2,1.7-.6,3.3-1.2,5-1.7.3,0,15.4-4.6,23.5-4.7,8.1-.1,17.2,1.9,23.4,7.5.2.2,0,.6-.2.6-5.2-.1-10.6-1.9-15.7-.6.8.3,1.6.3,2.4.6,1.4.5,2.7,1.1,4.1,1.7,1.6.6,3.9,1.2,5,2.7,1.3,1.7-.5,2.8-1.9,3.5-2.6,1.2-5.6,2-8.4,2.9-3.5,1.1-7.4,2.4-11.1,2.1-3.2-.3-5.5-3.3-7.8-5.2-3.4-2.7-6.9-4.8-11-6.2-2.7-.9-5.4-1.8-8.1-1.3,2.9.7,6.1,2.3,7.3,2.9,6.7,3.3,12,8.4,14.1,15.7,0,.3-.2.5-.5.4-1.7-.9-3.2-2-5-2.7.4.6.8,1.3,1.1,1.9,1.8,3.2,2.6,6.4,2.9,10.1,0,0,0,0,0,0,0,0,0,.1,0,.2,0,0,0,0,0,0,.4,0,.8,0,1.2-.1,0,0,0,0,.1,0,.6-.2,1.2-.3,1.8-.5.9-.3,1.8-.6,2.7-.9,0,0,0-.1,0-.2.1-.2.2-.5,0-.5,0-.5,0-1,0-1.5,2.2-.5,4.3-1.1,6.4-1.8,3.2-1,6.5-1.9,9.6-3.1,6.1-2.4,12.3-5.2,17.6-9.1,4.7-3.4,8.2-8.8,10.3-14.1,2.2-5.5,3.5-11.4,2.6-17.3ZM186.4,209.1c-2,2.6-4.7,1.6-7.5.9-4-1.1-8.2-.4-12.3-1.2-.3,0-.3-.5,0-.6,3.5-1.3,7.2-1.5,10.9-1.8,2.4-1,5.3-1.7,7.8-1.3,2.6.4,2.6,2.2,1.2,4.1Z"/>
          <path class="cls-18" d="M122,218c.7-.1,1.4-.3,2-.5,0,0,.1-.1.2-.1.3,0,.5-.1.8-.2,1-.3,2-.7,3-1,1.8-.8,3.6-1.6,5.4-2.4,5-2.1,10.2-3.8,15.5-4.7-1.9-.2-3.9-.2-5.9,0-2.2.3-4.6,1.1-6.8.8-3-.3-4.9-2.7-7.3-4.1.8,2.1,4.3,3.5,3.4,6.1-.3.9-1.8,1-2.5,1.2-2.2.5-4.3,1.3-6.4,2.1-1.7.6-3.3,1.5-5,2.2-1,.4-2.3.9-3.4.4-.4-.2-.5-.4-.6-.7-.4-1-1-1.8-1.7-2.6-.5-.6-1-1.2-1.5-1.9.4,2.4.4,4.9,1.5,7.1.2.3-.2.7-.5.4-.9-.9-1.6-1.8-2.4-2.8.2.9.4,1.9.7,2.8.3,1.1.5,3,1.9,2.9,1.3,0,2.7-1.1,3.8-1.9.4-.2.7-.4,1.1-.6,0,0,.1,0,.2,0,.3,0,.5-.3.8-.3,0,0,.1,0,.2,0,.9-1.3,1.8-2,3.4-2.3Z"/>
          <path class="cls-18" d="M196.7,198.1c.6-1.7-.5-1.9-2.2-2-1.3,0-2.6-.1-3.9-.1.3,1.7.2,3.6,0,5.3-.4,3-1,6.2-2.2,9-1.2,2.8-3.1,5.2-6.4,4.1-3.2-1-6.5-2.8-10-3.1,2.5,1.3,4.7,3.1,6.6,5.2,1.4,1.5,3.6,3.4,3.3,5.7-.6,3.9-5.8,6-9,7.2-5.9,2.4-12.2,4.6-18.4,6-2.7.6-4.8.6-6.7-1.6-1.6-1.9-3-3.7-4.8-5.2,2.1,2.9,3.6,6.2,4.2,9.7.4,2.6.9,5.3,1,8,.6-.2,1.3-.4,1.9-.6,0,0,0-.1,0-.2.1-.2.2-.5,0-.5,0-.5,0-1,0-1.5,2.2-.5,4.3-1.1,6.4-1.8,3.2-1,6.5-1.9,9.6-3.1,6.1-2.4,12.3-5.2,17.6-9.1,4.7-3.4,8.2-8.8,10.3-14.1,2.2-5.5,3.5-11.4,2.6-17.3Z"/>
          <g>
            <g>
              <path class="cls-32" d="M131.4,133.6c-3.6,3.3-5.9,7.9-8.1,12.3-1.5,3-2.8,6.1-4,9.3-.1,0-.2,0-.3,0-.3.2-.6.4-.9.6-.3.2-.5.5-.6.9,0,0,0,0,0,.1-.1.6,0,1.3.3,1.9.2.4.4.8.7,1.2,0,0,0,0,0,0,3,3.4,7.2,5.1,11.5,6.3,2.4.7,4.7,1,7.2.8,1.5-.1,3.8-.1,5-1.2,1.3-1.2,1.2-2.9.5-4.3.5-2.3,1.5-4.5,2.2-6.6.9-2.5,1.5-5.1,2.3-7.6.8-2.5,1.2-5,1.4-7.6,2.4-.7,4.4-3.3,5.5-5.4.3-.6,1.7-3,.3-2.8-1-1.1-4.5-2.2-5.5-2.4-1.8-.4-3.7-.8-5.5-.7-4.4.3-8.6,2.4-11.7,5.3Z"/>
              <path class="cls-36" d="M143.1,129.3c4.1,0,7.3,1.5,11,2.7.4,1.6-4.4,5.8-5.7,7,.1-1.5.2-3,.2-4.6,0-.2-.1,0-.2,0-.3,2.6-.2,5.2-.9,7.8-.6,2.5-1.3,5-2.1,7.5-.8,2.6-1.6,5.2-2.4,7.8-.3,1-.7,2.1-1,3.1-.1-.1-.2-.3-.4-.4,0,0,0,0,0,0,.9,1.2,1.1,2.4.7,3.4,0,.4-.3.8-.7,1.1-.6.5-1.4.9-2.5,1-.9,0-1.9,0-2.8,0-2.4,0-4.7-.2-7.1-1-2.5-.8-5.1-1.5-7.2-3.1-.8-.6-1.7-1.2-2.5-1.9-.9-.7-1.2-1.5-1.3-2.2-.3-1.4,1-2.2,2.3-2.4-.1,0-.2,0-.4,0,.9-2.5,1.9-4.9,3.1-7.4,2.1-4.4,4.4-9.5,8-12.8,3.2-3,7.5-5.6,12-5.7Z"/>
              <path class="cls-14" d="M154.1,132c-3.7-1.3-6.9-2.8-11-2.7-1.3,0-2.5.3-3.7.6-.8.6-1.5,1.2-2.1,2-2.9,3.7-4.8,8.1-5.9,12.7-.5,2.2-1,4.5-1.1,6.8,0,1-.2,2-.6,2.9-.7,1.3-2.7,1.1-4.6.8,1.9,1,3.8,2,5.4,3.6.4.4-.1,1.1-.6.8-1.7-1.1-3.6-2.1-5.6-2.4-1.2-.2-4.6-.8-4.9,1.1-.1.6,0,1.1.2,1.6.8.7,1.7,1.3,2.4,1.9,2.1,1.6,4.7,2.3,7.2,3.1,2.4.7,4.7,1,7.1,1,.9.1,1.8.2,2.8,0,1.1,0,1.9-.5,2.5-1,.4-.3.7-.7.7-1.1.4-1,.2-2.3-.7-3.4,0,0,0,0,0,0,.1.1.2.3.4.4.3-1.1.7-2.2,1-3.1.8-2.6,1.6-5.2,2.4-7.8.8-2.5,1.5-5,2.1-7.5.6-2.6.6-5.2.9-7.8,0-.1.2-.2.2,0,0,1.5,0,3.1-.2,4.6,1.3-1.1,6.1-5.3,5.7-7Z"/>
              <path class="cls-35" d="M133.7,133.7c-5.4,3.8-9.3,11.5-10.8,17.8,0,.2.2,0,.3,0,3-6,5.9-12.6,10.6-17.5.1-.1.2-.5,0-.3Z"/>
            </g>
            <path class="cls-32" d="M199.3,190.2c-.3-4.4-1.3-8.8-2.2-13.1-.9-4.5-2.1-9-3-13.5-.7-3.4-1.8-6.8-2.6-10.2-.4-3.6-1-7.1-1.6-10.7-1.8-9.7-10.4-16.8-17.7-22.6-.1,0-.3.2-.2.3.2.2.3.3.5.5-.3-.2-.7-.3-1.1-.4-2.1-.5-4.5,0-6.7,0-5.4.3-11.1,1.6-16.2,3.2-1.9.6-4.5,1.2-6.1,2.3-1.8,1.2-3,3-4.2,4.7-1.2,1.6-3.1,5.3-3.4,6.5-2.6,8.6-2.7,17.8-2.8,26.7,0,7.7.4,16.1,2.3,23.8-.2,4.3-2.7,9.1,0,13,1.1,1.7,3.2,2.3,5,2.8,2.8.7,5.5,1.4,8.4,1.7,5.6.6,11.4.7,17,.2,2.1-.2,4.2-.4,6.3-.7,6.5,0,13.1-.4,19.4-2.1,2.7-.7,5.1-1.7,7.3-3.5,1.8-1.5,2-3.3,1.9-5.4,0-1.2,0-2.5,0-3.7Z"/>
            <path class="cls-56" d="M197.4,197.4c-.3.4,0,.9.4.5,0,0,.1-.2.2-.3-.2.3-.5.6-.8,1-1,1-2.5,1.7-3.8,2.3-2.6,1.1-5.5,1.6-8.2,2.1-3.2.5-6.5.7-9.8,1,1.3-.3,2.5-.7,3.8-1.1-1.5.2-3,.4-4.4.6-7.8,1.7-16.1,1.6-23.9,1.2-2.7-.1-5.3-.5-7.9-1.1-2.3-.5-4.9-1-6.9-2.4-3.7-2.6-1.8-8-1.5-12.3.2,1,.5,1.9.8,2.8,0-.2,0-.4,0-.6-.2-2.2-.4-4.3-.5-6.5-1-6.3-1.7-12.7-1.9-19.2-.2-7.9-.1-16.2,1.3-24.1.8-3.8,2.8-8,5-10.9,1.7-2.2,3.5-3.7,6.1-4.7,1.9-.7,3.7-1.5,5.7-2,4.4-1.2,9-2.3,13.5-2.5,2.1-.1,4.4-.4,6.5,0,1.2.2,2.1.8,3,1.4,2.8,2.9,5.8,5.5,8.6,8.5,3.8,4,5.9,8.7,6.8,14,1,5.4,1.8,10.8,2.5,16.3,0,.6.1,1.1.2,1.7.2.8.4,1.6.6,2.4-.2-2.4-.4-4.9-.6-7.3.2,1.1.5,2.1.7,3.2.9,3.8,1.8,7.6,2.6,11.4.8,3.9,1.6,7.7,2.3,11.6.6,3.5,2.4,10.1-.2,13.1Z"/>
            <path class="cls-36" d="M197.4,197.4c-.3.4,0,.9.4.5,0,0,.1-.2.2-.3-.2.3-.5.6-.8,1-1,1-2.5,1.7-3.8,2.3-2.6,1.1-5.5,1.6-8.2,2.1-3.2.5-6.5.7-9.8,1,1.3-.3,2.5-.7,3.8-1.1-1.5.2-3,.4-4.4.6-7.8,1.7-16.1,1.6-23.9,1.2-2.7-.1-5.3-.5-7.9-1.1-2.3-.5-4.9-1-6.9-2.4-3.7-2.6-1.8-8-1.5-12.3.2,1,.5,1.9.8,2.8,0-.2,0-.4,0-.6-.2-2.2-.4-4.3-.5-6.5-1-6.3-1.7-12.7-1.9-19.2-.2-7.9-.1-16.2,1.3-24.1.8-3.8,2.8-8,5-10.9,1.7-2.2,3.5-3.7,6.1-4.7,1.9-.7,3.7-1.5,5.7-2,4.4-1.2,9-2.3,13.5-2.5,2.1-.1,4.4-.4,6.5,0,1.2.2,2.1.8,3,1.4,2.8,2.9,5.8,5.5,8.6,8.5,3.8,4,5.9,8.7,6.8,14,1,5.4,1.8,10.8,2.5,16.3,0,.6.1,1.1.2,1.7.2.8.4,1.6.6,2.4-.2-2.4-.4-4.9-.6-7.3.2,1.1.5,2.1.7,3.2.9,3.8,1.8,7.6,2.6,11.4.8,3.9,1.6,7.7,2.3,11.6.6,3.5,2.4,10.1-.2,13.1Z"/>
            <path class="cls-14" d="M197.4,197.4c2.7-3,.9-9.5.2-13.1-.7-3.9-1.4-7.8-2.3-11.6-.8-3.8-1.7-7.6-2.6-11.4-.2-1.1-.5-2.1-.7-3.2.2,2.4.4,4.8.6,7.3-.2-.8-.4-1.6-.6-2.4,0-.6-.1-1.1-.2-1.7-.7-5.4-1.5-10.9-2.5-16.3-1-5.4-3-10-6.8-14-2.8-2.9-5.8-5.6-8.6-8.5-.9-.6-1.8-1.2-3-1.4-2.1-.4-4.4-.1-6.5,0-4.5.3-9.1,1.3-13.5,2.5-2,.5-3.8,1.2-5.7,2-1.4.5-2.6,1.2-3.6,2.1-.2,2.7-.1,5.5.9,7.9,2-2.9,4.3-5.6,7.5-7.4.3-.2.6,0,.7.3.5,1.2,1,2.5,1.5,3.8.8-1.5,1.6-3.4,3.5-3,2.7.5,3.7,4.2,4.9,6.5,3.2-2.6,6.6-5.1,9.9-7.5.4-.3.9.3.7.7-2.5,4.1-5.3,8.2-7.6,12.4-1.7,3.1-3.1,6.8-5.6,9.3-1.2,1.2-2.9.6-3.3,2.7-.3,1.9-.6,4.1-1.3,6-1.2,3.5-4,6.8-6.3,9.7-1.2,1.6-2.5,3.1-3.8,4.6-.9,1-1.9,2.4-3.3,2.9-2.5,1-4.4-.8-5.3-3.1-.8-2-1.4-4.2-1.9-6.3.2,5.8.9,11.5,1.8,17.2.2,2.2.3,4.3.5,6.5,0,.2,0,.4,0,.6-.3-.9-.6-1.9-.8-2.8-.3,4.2-2.2,9.7,1.5,12.3,1.9,1.4,4.6,1.8,6.9,2.4,2.6.6,5.2,1,7.9,1.1,7.8.4,16.1.5,23.9-1.2,1.5-.1,3-.3,4.4-.6-1.2.5-2.5.8-3.8,1.1,3.3-.3,6.6-.5,9.8-1,2.7-.5,5.7-1,8.2-2.1,1.3-.6,2.8-1.3,3.8-2.3.3-.3.6-.6.8-1,0,0-.1.2-.2.3-.4.4-.7-.1-.4-.5ZM194.5,191.9c-1.8,4.6-6.1,6.9-10.6,8.3-6.4,2-13.3,2.7-20,2.2-5.5-.4-11.2.2-16.3-2.3-.4-.2-.3-.7,0-.9,7.7-4.5,15.6-9,22.1-15.1,3.4-3.2,6.1-6.8,9.1-10.3,1.2-1.5,2.4-2.9,3.5-4.5,1.9-3.9,3.6-7.8,5.2-11.9.2-.4.9-.5,1,0,1.4,6.4-.8,13.7-3.5,19.5-1.5,3.2-3.3,6.3-5.5,9.1-2.1,2.7-4.7,5-6.4,7.9,3.8-.2,7.3-4.2,9.9-6.6,1.7-1.5,3.6-2.9,5.3-4.4,1.6-1.4,2.9-3.4,4.6-4.6.2-.2.6,0,.7.2,2.2,3.5,2.3,9.5.8,13.3Z"/>
            <g>
              <g>
                <path class="cls-6" d="M156.9,123.9c3.3-2.3,7.5-4.3,7.6-5.1,0-.8-.7-2.8-.7-2.8l-.3-1.2-13.5,4.6.2,1.5c.2.1.3.3.3.4.2.8.5,4.5,2,7.4.1.2.2.3.2.3,0,0,0,0,.1-.1.6-1.3,1.9-3.5,4.1-5Z"/>
                <path class="cls-7" d="M156.9,123.9c3.3-2.3,7.5-4.3,7.6-5.1,0-.8-.7-2.8-.7-2.8l-.3-1.2-13.5,4.6.2,1.5c.2.1.3.3.3.4.2.8.5,4.5,2,7.4.1.2.2.3.2.3,0,0,0,0,.1-.1.6-1.3,1.9-3.5,4.1-5Z"/>
                <path class="cls-41" d="M152.7,129.3s0,0,0,0c-.1,0-.2,0-.3-.1,0,0,0-.1-.2-.2-1.2-2.4-1.7-5.4-1.9-6.8,0-.3,0-.6-.1-.7,0-.1,0-.2-.2-.3,0,0,0-.1,0-.2l-.2-1.5c0-.1,0-.2.2-.3l13.5-4.6c0,0,.2,0,.3,0,0,0,.2.1.2.2l.3,1.2c0,0,.8,2.1.7,2.9,0,.6-1.3,1.3-3.6,2.7-1.3.8-2.8,1.6-4.1,2.6-2.2,1.5-3.4,3.7-4,4.9,0,0,0,0,0,0h-.1c0,.2-.2.2-.3.2ZM150.5,120.8c.2.2.3.3.3.5,0,.2,0,.4.1.8.2,1.3.6,4.1,1.7,6.4.6-1.3,1.9-3.3,4-4.7,1.4-.9,2.9-1.8,4.2-2.6,1.5-.9,3.3-1.9,3.3-2.3,0-.6-.5-2.2-.7-2.7l-.2-.9-12.9,4.4v1.3Z"/>
              </g>
              <g>
                <path class="cls-75" d="M150.2,120.9v.2s-.7-.9-4.3,1.4c-2.5,1.8-2.9,4.8-3.1,6.6-.2,1.7,1.4,2.1,1.4,2.1,0,0,2.1-3.5,4.6-4,2-.4,3.2.9,3.7,1.5-1.5-2.9-1.8-6.6-2-7.4,0-.2-.2-.3-.3-.4Z"/>
                <path class="cls-80" d="M144.2,131.6s0,0,0,0c-.6-.2-1.8-.9-1.6-2.3.2-1.8.6-4.9,3.2-6.8,1.7-1.1,3.1-1.7,4-1.7s.2,0,.3,0c0,0,0,0,0,0,.1,0,.3,0,.4,0,.2.2.4.4.4.6,0,.2,0,.4.1.8.2,1.4.7,4.3,1.9,6.6,0,.1,0,.3-.2.3-.1,0-.3,0-.4,0-.3-.4-1.3-1.4-2.7-1.4s-.4,0-.6,0c-2.3.4-4.4,3.8-4.4,3.8,0,0-.2.2-.3.2ZM149.6,121.3c-.4,0-1.4.2-3.5,1.5-2.4,1.8-2.8,4.7-3,6.5-.1,1,.5,1.5.9,1.7.5-.8,2.4-3.4,4.7-3.9.3,0,.5,0,.8,0,.9,0,1.6.3,2.1.6-.8-2.1-1.1-4.3-1.3-5.5,0-.3,0-.6-.1-.7,0,0,0,0,0,0,0,0-.2,0-.2-.1,0,0,0,0-.3,0Z"/>
              </g>
              <g>
                <path class="cls-75" d="M172.1,117.5c-1.7-2-4.3-1.7-5.9-1.6-1.6,0-2.4,0-2.4,0,0,0,.8,2.1.7,2.8-.1.8-4.3,2.8-7.6,5.1-2.2,1.5-3.5,3.7-4.1,5,.5-.4,2.5-1.9,4.3-1.8,2.1.2,3.9,2.4,5.1,3.8,1.2,1.3,1.8,1,3.3-.5,1.5-1.5,8-7.1,9-8.4,1-1.3-.7-2.6-2.4-4.6Z"/>
                <path class="cls-80" d="M163.6,132.1h0c-.7,0-1.2-.5-1.6-1l-.4-.4c-1.2-1.3-2.7-3.1-4.5-3.3-1.3,0-2.9.8-4,1.7-.1,0-.3.1-.4,0-.1,0-.2-.2-.1-.3.6-1.2,1.9-3.5,4.2-5.1,1.4-.9,2.9-1.8,4.2-2.6,1.5-.9,3.3-1.9,3.3-2.3,0-.6-.5-2.2-.7-2.7,0,0,0-.2,0-.2,0,0,.2-.1.3-.1,0,0,.8,0,2.4,0h.4c.4,0,.8,0,1.3,0,1.3,0,3.2.2,4.6,1.8.3.4.6.7.9,1,1.4,1.5,2.5,2.7,1.5,3.9-.6.8-3.3,3.2-5.6,5.3-1.5,1.3-2.8,2.6-3.4,3.2-1,1-1.5,1.4-2.2,1.4ZM156.9,126.9c0,0,.2,0,.3,0,2.1.2,3.7,2.1,5,3.5l.4.4c.4.5.8.7,1.1.7s.9-.5,1.7-1.2c.6-.6,2-1.9,3.5-3.2,2.3-2.1,4.9-4.4,5.5-5.2.7-.8,0-1.7-1.5-3.3-.3-.3-.6-.7-.9-1-1.2-1.4-2.8-1.5-4-1.5s-.9,0-1.2,0h-.4c-.9,0-1.6,0-2,0,.2.6.7,2,.6,2.6,0,.6-1.3,1.3-3.6,2.7-1.3.8-2.8,1.6-4.1,2.6-1.6,1.1-2.7,2.6-3.4,3.8.8-.5,2-1.1,3.2-1.1Z"/>
              </g>
              <g class="cls-20">
                <path class="cls-75" d="M150.5,121.4c0-.2-.2-.3-.3-.4v.2s-.7-.9-4.3,1.4c-.8.6-1.3,1.2-1.7,1.9,1.6-1.3,3.6-2.6,4.5-1.8,1.4,1.4-2.7,2.9-5.1,8.3.3.2.6.3.6.3,0,0,2.1-3.5,4.6-4,2-.4,3.2.9,3.7,1.5-1.5-2.9-1.8-6.6-2-7.4Z"/>
              </g>
              <g class="cls-20">
                <path class="cls-75" d="M166.8,120.4c2.6-2.5,5.3-1.2,7.7,1.7,0,0,0,0,0,0,1-1.3-.7-2.6-2.4-4.6-1.7-2-4.3-1.7-5.9-1.6-1.6,0-2.4,0-2.4,0,0,0,.8,2.1.7,2.8-.1.8-4.3,2.8-7.6,5.1-2.2,1.5-3.5,3.7-4.1,5,.5-.4,2.5-1.9,4.3-1.8,2.1.2,3.9,2.4,5.1,3.8.7.8,1.2,1,1.8.8-.6-1.3-1.7-3.4-3.8-5.3-3.4-3.1,3.6-3.1,6.6-6Z"/>
              </g>
              <path class="cls-26" d="M161.1,126c1.8-1.1,3.6-2,5.2-3.4,1.6-1.4,3.3-2.9,4.3-4.6,0-.1.4,0,.3.1-.7,2-1.8,3.8-3.6,5.3-1.4,1.3-3.7,2.9-5.9,3.1-.3,0-.6-.4-.3-.5Z"/>
            </g>
            <path class="cls-56" d="M189,144.7c-.4,5.5-3.2,11.1-5.6,16.1-1.3,2.7-2.8,5.3-4.3,7.9,0-.1-.2-.2-.3-.3.7,1.2.9,2.9-.5,3.7-.7.4-1.6.6-2.8.4-1.2-.2-2.4-.5-3.5-.8-2.9-.8-5.4-2.5-7.8-4.1-2.3-1.6-4.2-3.3-5.9-5.5-.8-.7-1.5-1.5-2-2.4-.7-1-.9-2-.9-2.9,0-.6.1-1,.4-1.4.6-1,1.9-1.7,3.5-1.8,0,0,0-.1,0-.1-.2,0-.4,0-.6,0,.7-1,1.4-2.1,2-3.1,1.7-2.5,3.4-5.1,5.1-7.6,1.6-2.4,3.3-4.8,5.1-7.2,1.8-2.4,4.1-4.2,6.2-6.3,0-.1,0-.3,0-.2-1.4,1.1-2.6,2.2-3.9,3.4,0-1.9.3-9.1,2-9.9,3.7,2.4,7.4,4.1,10.2,7.7,3.1,4,3.9,9.6,3.5,14.5Z"/>
            <g>
              <path class="cls-32" d="M186.3,129.4c-1.2-1.7-2.8-3.1-4.5-4.3-.9-.7-4.3-3-6-3.1-.4-.6-.8-.4-1.2.1,1.1,1.8.8,2.8,0,5-.6,1.7-1.2,3.3-2.1,4.9,0,.3.1.6.3.8-2.1,2-3.9,4.1-5.6,6.6-1.7,2.4-3.5,4.8-5,7.3-1.4,2.2-2.7,4.6-4.2,6.6-1.8.3-3.3,1.5-3.5,3.5,0,1.8,1.5,3.8,2.5,5.2,1.6,2.3,3.5,4.1,5.8,5.7,4.1,2.9,8.5,5.3,13.6,5.6,0,0,0,0,0,0,.5,0,1.1-.1,1.5-.3.6-.2,1.4-.5,1.8-1.1,0,0,0,0,0-.1.2-.3.4-.7.3-1.2,0-.4-.1-.8-.2-1.2,0-.1-.1-.2-.2-.3,1.9-3.3,3.7-6.6,5.3-10.1,2.3-5,4.6-10.2,5-15.7.3-4.9-.8-10-3.7-14Z"/>
              <path class="cls-36" d="M189,144.7c-.4,5.5-3.2,11.1-5.6,16.1-1.3,2.7-2.8,5.3-4.3,7.9,0-.1-.2-.2-.3-.3.7,1.2.9,2.9-.5,3.7-.7.4-1.6.6-2.8.4-1.2-.2-2.4-.5-3.5-.8-2.9-.8-5.4-2.5-7.8-4.1-2.3-1.6-4.2-3.3-5.9-5.5-.8-.7-1.5-1.5-2-2.4-.7-1-.9-2-.9-2.9,0-.6.1-1,.4-1.4.6-1,1.9-1.7,3.5-1.8,0,0,0-.1,0-.1-.2,0-.4,0-.6,0,.7-1,1.4-2.1,2-3.1,1.7-2.5,3.4-5.1,5.1-7.6,1.6-2.4,3.3-4.8,5.1-7.2,1.8-2.4,4.1-4.2,6.2-6.3,0-.1,0-.3,0-.2-1.4,1.1-2.6,2.2-3.9,3.4,0-1.9.3-9.1,2-9.9,3.7,2.4,7.4,4.1,10.2,7.7,3.1,4,3.9,9.6,3.5,14.5Z"/>
              <path class="cls-14" d="M185.4,130.2c-2.8-3.6-6.5-5.3-10.2-7.7-1.7.8-2,8-2,9.9,1.2-1.2,2.5-2.3,3.9-3.4.2-.1.2,0,0,.2-2.1,2.1-4.4,3.9-6.2,6.3-.2.2-.3.5-.5.7,3.1-2.3,6.7-3.7,9.7-1.8,5.2,3.4,3.3,11.3,1.8,16-1,3.1-2.4,5.8-3.6,8.8-.3.7-1,3.1-2.2,2.7-1.7-.6-3-2.3-4.2-3.5-1-1.1-2.2-2-3.5-2.6,3.8,2.9,6.7,7.3,8.6,11.2.3.5-.4,1-.8.6-3.2-2.9-6.5-6-10.3-8.2-2-1.2-4.1-2.4-6.4-2.9-.6-.2-1.2-.2-1.8-.2-1.3.6-1.9,1.4-2,2.3.1.3.3.6.5.9.6.9,1.3,1.6,2,2.4,1.7,2.2,3.6,4,5.9,5.5,2.4,1.6,4.9,3.4,7.8,4.1,1.1.3,2.3.6,3.5.8,1.3.2,2.1,0,2.8-.4,1.4-.8,1.2-2.4.5-3.7,0,0,.2.2.3.3,1.5-2.6,3-5.2,4.3-7.9,2.3-4.9,5.2-10.5,5.6-16.1.3-4.9-.4-10.5-3.5-14.5Z"/>
              <path class="cls-35" d="M171.5,137.5c-1.9,2.2-3.8,4.5-5.7,6.7-1.9,2.3-3.1,5.1-4.4,7.7-.2.5.3.4.5.1,1.7-2.7,3.7-5.2,5.7-7.7,1.7-2.1,2.8-4.5,4.3-6.7.2-.3-.2-.4-.4-.2Z"/>
              <path class="cls-35" d="M171.8,160c-2-1.9-3.7-3.6-6.3-4.7-2.6-1.1-4.8-1.1-7.5-.9-.2,0-.4.4-.2.5,5.3.3,9.1,3.1,13.7,5.4.1,0,.3-.2.2-.3Z"/>
            </g>
            <path class="cls-35" d="M138.9,132.5c-5.2,9.7-6.4,21.4-5.1,32.2,0,.4.6-.1.6-.4,0-10.9,1-21.5,4.8-31.8.1-.3-.2-.2-.3,0Z"/>
            <path class="cls-37" d="M144.8,124.6c-.2.4-.4.8-.7,1.3-.2.3-.5.9-.3,1.3.2.3.5,0,.6-.2.2-.4.3-.8.5-1.3.2-.4.4-.8.3-1.3,0-.3-.4,0-.5.2Z"/>
          </g>
          <g>
            <g>
              <path class="cls-61" d="M201.3,13.6s3.3-7.6,16.5-8.3c13.2-.6,20,7.4,25.6,13.7,5.6,6.3,14.4,7.1,17.4,3.2,2-2.5,6.2,7.7-3.3,9.9,10.1.9,12.4,9.5,11.8,12.9-1.2-.7-6.5-1.1-6.5-1.1,0,0,8.7,5.9,5.5,13.2,0-2.7-5.7-2.8-5.7-2.8,0,0,12.4,9.4,6.6,23.3-4.3,8.4-1.5,11.3,2.3,11.3,0,0-1,4-8.3,2.1,3.1,6-4,12.3-8.9,13,3.5-4,3.1-9.2,1.2-12.7,0,5.7-2.7,7.5-5.9,6.9-3.2-.6-3.2-3.1-2.4-5.9.8-2.8-.6-6.4-.6-6.4,0,0,1.5,8.8-7.2,8.4,3.5-4.6,3.4-9-3.6-12.1-7-3-12.1-7.5-12.7-19.5-.3-10.6-21.8-49.4-21.8-49.4Z"/>
              <path class="cls-58" d="M259.4,102.4c-1.6,1.1-3.4,1.9-5,2.1l-1.3.2.8-1c2.9-3.4,3-7.4,1.9-10.4-.3,2.7-1.4,4-2.4,4.7-1.1.8-2.5,1-4,.7-1.3-.3-2.2-.8-2.7-1.6-.7-1.1-.7-2.6,0-4.8.2-.8.3-1.7.2-2.5-.3,1.4-1,2.9-2.5,3.9-1.3.9-3,1.3-5.1,1.2h-.9s.5-.7.5-.7c1.8-2.4,2.5-4.5,2-6.4-.5-2-2.3-3.6-5.4-5-6.3-2.8-12.3-7.1-13-19.9-.3-10.4-21.5-48.8-21.7-49.2v-.2c-.1,0,0-.2,0-.2,0,0,1.1-2.4,4.2-4.7,3.3-2.3,7.6-3.6,12.7-3.9,13.1-.6,20.1,7.2,25.6,13.5l.4.4c4.9,5.5,12.2,6.6,15.7,4.2.4-.3.7-.6,1-.9.1-.1.2-.3.4-.3.5-.4,1.4-.4,2.2.7,1.4,2,1.6,6.3-1.8,8.8h0c-.5.3-1,.6-1.6.9,3.2.7,5.8,2.2,7.6,4.6,2.2,2.9,2.9,6.5,2.5,8.6v.6c-.1,0-.7-.3-.7-.3-.7-.4-3-.7-4.7-.9,2.4,2,7,7,4.4,12.7l-.9,2v-2.2c0-1.4-2.2-2-3.9-2.2,2.9,2.8,10.5,11.4,5.7,23-2.7,5.2-2.4,7.8-1.6,9.1.8,1.3,2.3,1.6,3.5,1.6h.6s-.1.6-.1.6c0,0-.3,1.1-1.5,1.9-1.5,1.1-3.7,1.3-6.5.7,1.6,4.3-1.4,8.4-4.7,10.7ZM255.6,103.4c1.1-.3,2.2-.9,3.3-1.7,3.1-2.2,6.1-6.3,4-10.4l-.5-.9,1,.3c3.7.9,5.6.3,6.6-.4.4-.3.7-.6.8-.9-1.6-.2-2.8-.8-3.5-2-.9-1.4-1.3-4.3,1.6-9.9,5.5-13.4-6.4-22.7-6.5-22.8l-1.1-.9h1.4c.2,0,4.3.1,5.7,1.9,1.7-6.3-5.7-11.4-5.8-11.4l-1.5-1,1.8.2c.5,0,4.3.4,6,.9.1-1.9-.5-4.8-2.4-7.3-2-2.6-5.2-4.2-9-4.5l-3-.3,2.9-.7c1.2-.3,2.3-.7,3.2-1.3h0c3.2-2.3,2.6-6,1.6-7.5-.1-.2-.5-.7-.9-.5,0,0-.1,0-.2.2-.3.4-.7.8-1.2,1.1-3.8,2.7-11.7,1.6-16.9-4.3l-.4-.4c-5.4-6.1-12.2-13.7-24.9-13.2-4.9.2-9,1.5-12.2,3.7-2.4,1.7-3.5,3.5-3.8,4.1,1.9,3.4,21.4,39.1,21.7,49.4.7,11.6,5.5,16.1,12.5,19.1,3.4,1.5,5.4,3.4,5.9,5.6.5,1.9,0,4.1-1.7,6.4,1.5,0,2.7-.4,3.7-1.1,3-2.1,2.2-6.7,2.2-6.8l.9-.2c0,.2,1.4,3.8.6,6.7-.5,1.9-.5,3.2,0,4,.4.6,1.1,1,2.1,1.2,1.3.3,2.4,0,3.3-.6,1.4-1,2.1-3,2.1-5.9v-1.9s.9,1.6.9,1.6c1.7,3.1,2.5,7.9-.4,12.2Z"/>
            </g>
            <g class="cls-24">
              <path class="cls-61" d="M255.5,80.2c4.1-9.3-5.8-10-12.9-16.4-7.1-6.5-7.2-20.5-8.4-17.9-1.2,2.5,2.8,14.2-.1,10.7-2.9-3.5-8.8-15.5-4.1-25.2,4.7-9.7,6.1-13.7-.8-18.6-10.9-7.6-19.8,2.1-20.7-.3-1.1-2-.4-3.9.9-5.5-6.3,2.4-8.1,6.6-8.1,6.6,0,0,21.5,38.8,21.8,49.4.7,12,5.8,16.5,12.7,19.5,7,3,7.1,7.5,3.6,12.1,8.8.4,7.2-8.4,7.2-8.4,0,0,1.4,3.6.6,6.4-.8,2.8-.8,5.2,2.4,5.9,3.2.6,6-1.3,5.9-6.9,1.9,3.5,2.3,8.6-1.2,12.7,4.9-.7,12-7,8.9-13,5.1,1.3,7.1-.3,7.9-1.3-8.4,1.8-19-2-15.7-9.6Z"/>
            </g>
            <g>
              <path class="cls-65" d="M191.8,12.6s-.2-6.1,3.2-8.5c3.4-2.4,8,.6,9.4,12.7-.4,3.4-1.5,6-1.5,6,0,0-7.7-3.3-11.2-10.2Z"/>
              <path class="cls-54" d="M203.2,23.3l-.4-.2c-.3-.1-8-3.5-11.4-10.4v-.2c0-.3-.2-6.4,3.4-8.9,1.3-.9,2.8-1.1,4.1-.5,3,1.3,5.1,6.1,6,13.5-.4,3.6-1.4,6.1-1.5,6.2l-.2.4ZM192.3,12.5c2.8,5.6,8.8,8.8,10.4,9.6.3-.9.9-2.9,1.3-5.4-.8-6.8-2.8-11.5-5.5-12.7-1.1-.5-2.2-.3-3.2.4-2.9,2.1-3,7.3-3,8Z"/>
            </g>
            <path class="cls-16" d="M198.6,3.5c1.5,2,2.5,4.4,2,7-.5,2.5-3.2.2-4.5-.4-.4-.2-.5-.3-.2.2.2.4.5.8.8,1.1.5.6,1.1,1.2,1.6,1.9.8,1,1.5,2.1,1.2,3.4,0,0,0,.1-.1,0-3.8-1.4-6.3-5.3-6.8-9.4-.9,2.5-.8,5.1-.8,5.1,3.4,6.8,11.2,10.2,11.2,10.2,0,0,1-2.6,1.5-6-1-8.2-3.3-12.2-5.8-13.2Z"/>
            <g>
              <path class="cls-65" d="M207.4,19.5s6.2-7.5,14.3-8.1c8.1-.6,7.4,8.1,5.5,14.2-2,6.1-6.6,11.6-11.2,12.7-4.6,1.1-12.5-13.2-8.6-18.8Z"/>
              <path class="cls-54" d="M219.7,37c-1.2.9-2.5,1.4-3.7,1.7-1.9.5-4.3-1.2-6.5-4.4-3.1-4.6-5.1-11.5-2.6-15.1.1-.1,2-2.4,5-4.5,3.2-2.3,6.5-3.5,9.6-3.8,2.6-.2,4.5.5,5.7,2.1,2.8,3.6.9,10.7.2,12.7-1.5,4.6-4.5,8.9-7.9,11.3ZM212.5,15.5c-2.9,2.1-4.8,4.3-4.8,4.3-2.2,3.1-.4,9.6,2.6,14,1.9,2.8,4,4.4,5.5,4,1.1-.3,2.2-.8,3.4-1.6,3.2-2.3,6.1-6.4,7.5-10.8.6-2,2.5-8.6,0-11.9-1-1.3-2.7-1.9-4.9-1.7-3,.2-6.1,1.4-9.2,3.6Z"/>
            </g>
            <path class="cls-16" d="M224.8,21.4c-1.2,2-1.3,4.1-1.7,6.3-.3,1.7-.7,3.5-2.2,4.5-.8.6-1.8.8-2.5,0-1.1-1.2-1.5-2.9-2.5-4.1-1.6-2-3.9-3.4-5.4-5.4,0,0,0-.1.1-.1,1.7,0,3.2.9,4.5,2,.7.5,1.3,1.1,1.9,1.8,0,.1.2.2.3.3.2.2.1.2,0,0,0-.4-.1-.8-.3-1.1-.7-1.5-1.9-2.4-3.1-3.4-.8-.7-1.9-1.5-2.1-2.6-.3-1.3.6-2.6,1.4-3.5,1.2-1.2,2.6-2.2,4.1-2.9,1.3-.6,2.7-1.2,4.1-1.6-8,.7-14.2,8.1-14.2,8.1-4,5.6,4,19.9,8.6,18.8,4.6-1.1,9.2-6.7,11.2-12.7.9-2.9,1.6-6.3,1.1-9.1-.9,1.8-2.3,3.3-3.4,5Z"/>
            <path class="cls-54" d="M197.6,12.4c-.2-.2-.3.3-.2.4,1,1.4,2.5,3.3,4.2,3.9.4.1.4-.7.1-.8-1.5-1-3-2.1-4.1-3.5Z"/>
            <path class="cls-54" d="M208.5,21.2c-.2,0-.2.5,0,.6,1.2.3,2.3.7,3.5,1.2,1.2.5,2.1,1.5,3.1,2.4.3.2.4-.5.2-.6-2-1.9-4-3-6.7-3.6Z"/>
            <g>
              <path class="cls-65" d="M202.1,21.3s.7-5.4,2.8-6.3c2.1-.9,5.9,3,1.3,8.8-2-1.9-4.1-2.5-4.1-2.5Z"/>
              <path class="cls-54" d="M206.3,24.5l-.4-.3c-1.9-1.8-3.9-2.4-3.9-2.4h-.4c0-.1,0-.5,0-.5,0-.2.8-5.6,3.1-6.6,1-.5,2.4,0,3.2,1.1,1.3,1.6,1.5,4.7-1.4,8.4l-.3.4ZM202.7,21c.7.3,2.1.9,3.5,2.1,2.3-3.1,2.1-5.6,1.1-6.9-.6-.8-1.5-1.1-2.1-.8-1.5.7-2.2,4-2.5,5.6Z"/>
            </g>
            <path class="cls-16" d="M207.2,18.2c-.7.7-1.7,1.1-2.5.3-.8-.9-.8-1.8-.5-2.8-1.5,1.7-2,5.7-2,5.7,0,0,2.1.6,4.1,2.5,2.3-2.9,2.5-5.3,1.9-6.9-.3.4-.6.8-1,1.2Z"/>
            <g>
              <g>
                <path class="cls-72" d="M205.6,92.3c2.5-5.7.6-11.4-4.1-13.6-4.7-2.2-8.3,1.7-9.7,4.7-1.4,3-2.2,5.3-3.3,1.1-1.1-4.2-3.6-16.6-3.6-16.6,0,0-1.8,6.9-3.6,5.5-5.7-5.3-10.2-18.2-10.2-18.2,0,0,1.2,8.8-.4,8.9-1.6.1-6.7-2.2-11.3-12.3-.4,3.5,1.5,14.7-.6,14.4-4.1-1-8.9-6.5-11-16.4-1.8,3.5-1.2,12.5-3,13-1.8.5-5.4-4.5-4.5-12.7-6.7,8.2-17.3,10.7-17.7,10.3-.4-.4,2.9-5.7,2.9-5.7,0,0-6.1,6.9-11.6,10.5-5.5,3.6-6.1,1.9-3.5-5.2-2.2,3-4.5,5.1-6.4,6.6,1.6,8.4,3,18.1.7,26.8-2.3,8.8,1.9,18.8,17.6,26.5,26,11.1,47.1,1.6,59.6-8.4,4.8-5.6,8.3-11,9.3-14.4,3.6,3.3,12.1.9,14.6-4.8Z"/>
                <path class="cls-42" d="M178.6,114.4c-9.9,7-30.5,17.1-56.7,5.9-14.1-6.9-20.6-16.8-17.9-27.1,2.3-8.7.9-18.3-.7-26.6,0-.2,0-.3.2-.5,2.4-1.8,4.5-4,6.3-6.5.1-.2.4-.2.6-.1.2.1.3.3.2.6-1.7,4.7-1.6,6-1.2,6.3.2.2,1,.3,4-1.7,5.4-3.5,11.5-10.3,11.5-10.4.1-.2.4-.2.6,0,.2.1.2.4.1.6-1.2,1.9-2.5,4.2-2.8,5.1,1.5-.2,6.5-1.7,11.4-5.1,2.1-1.5,4-3.2,5.5-5,.1-.2.4-.2.5-.1.2,0,.3.3.3.5-.7,6.3,1.4,10.5,2.9,11.8.4.3.8.5,1,.4h0c.7-.5.9-3.1,1.2-5.4.3-2.6.6-5.6,1.5-7.4,0-.2.3-.3.5-.3.2,0,.3.2.4.4,2.1,9.8,6.9,15.1,10.6,16,.7-.5.4-5.4.2-8.3-.1-2.3-.3-4.4-.2-5.7,0-.2.2-.4.4-.4.2,0,.4,0,.5.3,4.7,10.4,9.7,12.2,10.8,12.1.6-.4.5-4.7,0-8.4,0-.2.1-.5.4-.5.2,0,.5,0,.5.3,0,.1,4.5,12.9,10,18,.1,0,.2.1.5,0,1-.7,2.1-4,2.4-5.3,0-.2.2-.4.5-.3.2,0,.4.2.4.4,0,.1,2.5,12.5,3.6,16.6.5,1.7.8,1.9.8,1.9.3-.3.8-1.4,1.3-2.4l.3-.7c.8-1.8,2.1-3.3,3.5-4.3,2.1-1.5,4.5-1.7,6.8-.6,5,2.4,6.8,8.4,4.3,14.2-.7,1.6-2,3.1-3.6,4.3h0c-3.7,2.6-8.5,3.1-11.3,1.1-1.2,3.5-4.6,8.6-9.2,13.9-1.1.9-2.2,1.8-3.4,2.6ZM104.3,66.8c1.6,8.4,3,18,.6,26.7-2.6,9.8,3.7,19.3,17.3,26,24.5,10.4,43.8,2.6,55.8-5.9,1.1-.8,2.2-1.6,3.3-2.5,4.7-5.4,8.2-10.9,9.2-14.1,0-.2.2-.3.3-.3.2,0,.3,0,.4.1,2.3,2.1,7.1,1.7,10.6-.8h0c1.5-1.1,2.6-2.4,3.3-3.9,2.3-5.4.7-10.8-3.8-13-2-1-4-.8-5.9.5-1.3.9-2.5,2.4-3.2,4l-.3.7c-.7,1.4-1.1,2.4-1.7,2.8-.3.2-.6.2-.8.1-.6-.2-.9-.9-1.4-2.6-.8-3.2-2.5-11.2-3.3-14.8-.5,1.5-1.3,3.3-2.2,4-.5.4-1.1.4-1.6,0-4-3.7-7.3-10.9-9-15.1.2,2.4.1,5.1-.7,5.7-.1,0-.3.1-.4.2-2.1.2-6.7-2.6-10.9-10.8,0,1.1.1,2.3.2,3.6.3,5.1.5,8.3-.6,9.1-.2.1-.5.2-.7.2-3.6-.8-8.5-5.3-11-15.2-.4,1.6-.7,3.7-.9,5.7-.4,3.7-.7,5.9-1.9,6.2-.4.1-1,.1-1.9-.6-1.9-1.6-3.7-5.7-3.4-11.2-1.4,1.5-3,2.9-4.7,4.1-5.4,3.8-12,5.8-12.8,5.1-.2-.2-.5-.5.8-2.8-2.3,2.3-5.7,5.5-8.9,7.6-2.8,1.8-4.3,2.3-5.1,1.6-.8-.6-.8-2,0-4.8-1.4,1.6-3,3.1-4.6,4.4Z"/>
              </g>
              <g>
                <path class="cls-61" d="M198.2,18.4C188.2,1.9,161.7-3.7,137.2,3.6c-24.5,7.4-35.2,23.2-41.6,36.2-6.4,13.1-13,8-13,8-2,7.3,4,10.4,9.8,8.4-5.8,4.1-3.5,10.8-1.9,12.3,1.6,1.5,3.6-1.5,9.4-8.4-2.5,9.8-.4,9.6,3.9,6.2,0,0,0,.1,0,.2,1.9-1.5,4.3-3.6,6.4-6.6-2.5,7-2,8.8,3.5,5.2,5.5-3.6,11.6-10.5,11.6-10.5,0,0-3.3,5.3-2.9,5.7.4.4,11-2.1,17.7-10.3-.9,8.2,2.8,13.2,4.5,12.7,1.8-.5,1.2-9.5,3-13,2.1,9.9,6.9,15.4,11,16.4,2.1.4.3-10.8.6-14.4,4.6,10.1,9.7,12.5,11.3,12.3,1.6-.1.4-8.9.4-8.9,0,0,4.4,12.9,10.2,18.2,1.8,1.4,3.6-5.5,3.6-5.5,0,0,2.5,12.4,3.6,16.6,1.1,4.2,1.9,1.9,3.3-1.1,1.4-3,5-7,9.7-4.7,4.7,2.2,6.5,7.9,4.1,13.6-2.5,5.7-11,8.1-14.6,4.8-1,3.4-4.5,8.8-9.3,14.4.4-.3.8-.6,1.2-1,30-1.8,44-43.5,40-58.4-3.9-14.8-13.9-31.7-24.7-33.7Z"/>
                <path class="cls-58" d="M200.5,104.6h0c-5.4,3.8-11.3,5.9-17.5,6.4-.3.3-.7.6-1.1.9l-.6-.7c4.7-5.5,8.3-10.9,9.2-14.2l.2-.7.6.5c2.3,2.1,7.1,1.7,10.6-.8,1.5-1.1,2.6-2.4,3.3-3.9,2.3-5.4.7-10.8-3.8-13-2-1-4-.8-5.9.5-1.3.9-2.5,2.4-3.2,4l-.3.7c-.7,1.4-1.1,2.4-1.7,2.8-.3.2-.6.2-.8.1-.6-.2-.9-.9-1.4-2.6-.8-3.2-2.5-11.2-3.3-14.8-.5,1.5-1.3,3.3-2.2,4-.5.4-1.1.4-1.6,0-4-3.7-7.3-10.9-9-15.1.2,2.4.1,5.1-.7,5.7-.1,0-.3.1-.4.2-2.1.2-6.7-2.6-10.9-10.8,0,1.1.1,2.3.2,3.6.3,5.1.5,8.3-.6,9.1-.2.1-.5.2-.7.2-3.6-.8-8.5-5.3-11-15.2-.4,1.6-.7,3.7-.9,5.7-.4,3.7-.7,5.9-1.9,6.2-.4.1-1,.1-1.9-.6-1.9-1.6-3.7-5.7-3.4-11.2-1.4,1.5-3,2.9-4.7,4.1-5.4,3.8-12,5.8-12.8,5.1-.2-.2-.5-.5.8-2.8-2.3,2.3-5.7,5.5-8.9,7.6-2.8,1.8-4.3,2.3-5.1,1.6-.8-.6-.8-2,0-4.8-1.5,1.7-3.1,3.2-4.9,4.6l-.6.5v-.2c-.2.1-.4.3-.6.4-1.3.9-2.8,1.8-3.8,1.1-1-.7-1.1-2.7-.2-6.7-.4.5-.7.9-1.1,1.3-2.3,2.8-3.9,4.7-5.1,5.5-.4.3-1.5,1.1-2.6,0-.9-.9-2.2-3.4-2-6.3,0-1.5.6-3.6,2.4-5.4-2.7.4-5.2-.2-6.9-1.8-1.9-1.8-2.4-4.5-1.5-7.7l.2-.7.5.4c.1,0,3,2.2,6.7-.5,2-1.4,3.9-3.9,5.6-7.4,3.7-7.5,9.9-18.4,21.9-26.9,5.8-4.1,12.5-7.3,20-9.6,25.2-7.6,51.6-1.2,61.4,14.8,10.8,2.2,20.9,19.1,24.8,34,3.2,12.1-5.1,40.1-22.8,52.6ZM183.5,110c5.9-.5,11.4-2.5,16.5-6.1,17.4-12.3,25.6-39.8,22.4-51.6-3.9-14.7-13.7-31.4-24.3-33.4h-.2s-.1-.2-.1-.2c-9.5-15.8-35.5-22.1-60.4-14.6-7.4,2.2-14,5.4-19.7,9.4-11.8,8.3-18,19.1-21.6,26.6-1.8,3.6-3.8,6.3-5.9,7.8-3.3,2.3-6.1,1.4-7.2.8-.6,2.6,0,4.8,1.4,6.2,1.8,1.7,4.9,2.1,7.9,1.1l3.1-1.1-2.7,1.9c-2.7,1.9-3.4,4.3-3.5,6-.2,2.6.9,4.8,1.7,5.5.3.3.6.5,1.5-.1,1.1-.8,2.6-2.6,4.9-5.3.7-.9,1.5-1.8,2.4-2.8l1.3-1.5-.5,2c-1.5,6-1.1,7.4-.7,7.7.2.1.9.2,2.7-1.1.4-.3.7-.5,1.1-.9l.6-.5v.2c2.2-1.7,4.1-3.7,5.8-6l1.9-2.6-1.1,3c-1.7,4.7-1.6,6-1.2,6.3.2.2,1,.3,4-1.7,5.4-3.5,11.5-10.3,11.5-10.4l.7.6c-1.2,1.9-2.5,4.2-2.8,5.1,1.5-.2,6.5-1.7,11.4-5.1,2.1-1.5,4-3.2,5.5-5l1-1.2-.2,1.5c-.7,6.3,1.4,10.5,2.9,11.8.4.3.8.5,1,.4h0c.7-.5.9-3.1,1.2-5.4.3-2.6.6-5.6,1.5-7.4l.6-1.2.3,1.3c2.1,9.8,6.9,15.1,10.6,16,.7-.5.4-5.4.2-8.3-.1-2.3-.3-4.4-.2-5.7l.2-1.7.7,1.6c4.7,10.4,9.7,12.2,10.8,12.1.6-.4.5-4.7,0-8.4l.9-.2c0,.1,4.5,12.9,10,18,.1,0,.2.1.5,0,1-.7,2.1-4,2.4-5.3l.5-2,.4,2c0,.1,2.5,12.5,3.6,16.6.5,1.7.8,1.9.8,1.9.3-.3.8-1.4,1.3-2.4l.3-.7c.8-1.8,2.1-3.3,3.5-4.3,2.1-1.5,4.5-1.7,6.8-.6,5,2.4,6.8,8.4,4.3,14.2-.7,1.6-2,3.1-3.6,4.3-3.7,2.6-8.5,3.1-11.3,1.1-1.1,3.1-3.9,7.5-7.7,12.1Z"/>
              </g>
              <path class="cls-3" d="M114.7,107.9s14.5,11.3,32.5-3c-.8-.6-1.3-2.1-1.3-2.1,0,0,3.3,2.6,6.5,1.4-.9,1.5-2.3,1.8-2.3,1.8,0,0,2.3,11-3.5,14.5-5.8,3.5-14.2.6-25.6-7.4-3.8,0-6.2-5.2-6.2-5.2Z"/>
            </g>
            <g>
              <path class="cls-61" d="M126.2,74.5s5.4-9.7,12.5-1.6c1.5,2.4,1.9.5,1.4-.6,1.3.8,1.8,1.5,1.8,1.5,0,0-8.2-14.3-15.7.7Z"/>
              <path class="cls-58" d="M142.4,73.6l-.8.5s-.3-.4-.8-.8c0,.5-.1.9-.4,1.1-.2.1-.4.2-.6.1-.4,0-.9-.5-1.4-1.3-2.8-3.2-5.7-3.9-8.6-1.9-1.9,1.3-3.1,3.4-3.1,3.5l-.8-.4c2.7-5.4,5.9-7.7,9.3-7,4.1.9,7.1,6,7.2,6.2ZM129.7,70.2c2.3-1.4,5.6-1.9,9.4,2.4.4.6.6.9.8.9,0-.2,0-.7-.1-1.1l-.5-1.3.4.3c-1.2-1.3-2.8-2.8-4.7-3.2-1.8-.4-3.6.3-5.3,2Z"/>
            </g>
            <g>
              <path class="cls-61" d="M106.7,77.6s2.8-7.3,6.2,1.5c.5,1-.2-2.1-.2-2.1,0,0,1,1.2,1.5,2.4-1.2-5.2-5.5-9.9-7.5-1.7Z"/>
              <path class="cls-58" d="M114.6,79.2l-.9.3c0-.2-.1-.3-.2-.5,0,.5,0,.6-.2.7h-.2c0,.1-.2,0-.2,0-.2,0-.4-.3-.4-.4-1.2-3-2.1-3.8-2.7-4-.3,0-.7,0-1,.2-.9.7-1.6,2.3-1.6,2.3l-.9-.3c.9-3.7,2.5-5.3,4.3-4.6,1.9.7,3.5,3.8,4.1,6.4ZM108.3,74.6c.5-.3,1.1-.4,1.7-.2.7.2,1.4.9,2.1,1.9l-.2-1,.4.5c-.6-1-1.3-1.8-2-2-.4-.2-.8-.1-1.2.1-.2.1-.4.4-.7.7Z"/>
            </g>
            <g>
              <path class="cls-17" d="M121.3,112.1s14.3,4.3,27.4-7.3c2,7.7-1.1,15.7-8.7,14.8-7.5-.9-18.8-7.5-18.8-7.5Z"/>
              <g>
                <path class="cls-47" d="M139.7,115.2c4.8-1.7,7.8-4.5,9.5-6.6,0-1.3-.2-2.6-.6-3.9-6.5,5.8-13.3,7.6-18.5,8,1,1.8,3.6,4.6,9.5,2.4Z"/>
                <path class="cls-69" d="M141.3,119.6c4.7,0,7.4-3.8,7.9-8.6-5.2,2.4-7.2,6.3-7.9,8.6Z"/>
              </g>
              <path class="cls-42" d="M115.8,109s.4.3.9.6c.3.2.6.4.9.6.4.2.7.4,1.1.6.4.2.7.4,1.1.6.4.1.7.4,1,.5.6.2,1,.5,1,.5,0,0-.5,0-1.1,0-.3,0-.7,0-1.2-.2-.2,0-.4-.1-.6-.2l-.6-.3c-.4-.2-.8-.5-1.1-.8-.3-.3-.6-.6-.8-.8-.4-.5-.6-1-.6-1Z"/>
              <path class="cls-42" d="M147.5,103.9s.3,0,.6.1c.3,0,.7.2,1.1.3.2,0,.4.1.6.1.2,0,.4.1.5.1.3,0,.6.2.6.2,0,0-.2.2-.5.3-.3.1-.9.2-1.4,0-.3,0-.5-.2-.7-.3-.2-.1-.4-.3-.5-.4-.3-.3-.3-.6-.3-.6Z"/>
              <path class="cls-42" d="M145.7,118.7c-1.6,1.1-3.5,1.6-5.7,1.3-7.6-.9-18.5-7.2-18.9-7.5-.2-.1-.3-.4-.2-.6,0-.2.3-.3.6-.3.1,0,12.1,3.5,24-4.9,1-.7,2-1.5,3-2.4.1-.1.3-.1.4,0,.2,0,.3.2.3.3,1.5,5.9.2,11.5-3.4,14.1ZM124,113.1c3.7,2,10.8,5.4,16,6,2,.2,3.7-.2,5.1-1.2,3.1-2.2,4.4-7.2,3.3-12.3-.8.7-1.6,1.3-2.5,1.9-8.7,6.2-17.5,6.1-21.9,5.6Z"/>
            </g>
            <g>
              <path class="cls-23" d="M142.7,94.2c.3,0,.7-1.9.7-2.2.2-.8.2-1.6.2-2.5,0-1.3-.4-4.3-.8-5.5-1.4-5.3-5.9-11.1-10.6-8-1.1.7-2.1,2.2-2.7,3.6-2.2,5.1-2,10.6-2,10.6.3,2.9,1.3,5.3,1.3,5.3-1.3-5.9-.3-8.9-.3-8.9,0,2.2-.8,6,1.4,10.2,2.6,5,7.2,3.4,7.2,3.4-.5,1.7,0,3.4,0,3.4,1.2-8.5,8.6-9,8.6-9-1.3-.7-3.1-.2-3.1-.2Z"/>
              <g>
                <path class="cls-77" d="M142.6,88.5c.4,6.5-3.1,11.3-7.1,11.2-4.1-.1-6.5-5.1-6.5-11.3,0-6.3,2.4-11.6,5.9-12,3.4-.3,7.3,5.6,7.8,12.1Z"/>
                <path class="cls-28" d="M142.2,88.3c.2,4.6-1.5,9.6-5.7,11-5.5,1.8-7.2-6.3-7.3-10.8,0-4.4,1.1-9.9,4.6-11.6,4.8-2.3,7.9,6.8,8.3,11.4,0,.3.8.6.8.3-.4-5.2-3.6-12.2-7.9-12.5-4.6-.3-6.3,7.3-6.4,12.1,0,5,1.5,10.8,6.4,11.6,5.5,1,8-6.4,7.9-11.3,0-.3-.8-.6-.8-.3Z"/>
              </g>
              <g class="cls-19">
                <path class="cls-79" d="M142.6,88.5c-.4-6.5-4.3-12.4-7.8-12.1-3.5.3-5.9,5.7-5.9,12,0,6.3,2.4,11.2,6.5,11.3,4.1.1,7.6-4.7,7.1-11.2ZM135.1,97.6c-3.6-.1-5.3-4.5-5.3-10,0-5.6,2.1-10.3,5.1-10.6,3-.3,6,4.9,6.5,10.6.5,5.7-2.7,10.1-6.3,10Z"/>
              </g>
              <path class="cls-28" d="M128.2,88.2s0-.1,0-.4c0-.2,0-.6,0-1,0-.4,0-1,.2-1.6,0-.3.1-.6.2-1,0-.3.1-.7.2-1,.1-.4.2-.7.3-1.1,0-.2.1-.4.2-.6,0-.2.1-.4.2-.6.3-.8.6-1.6,1.1-2.4.4-.7,1-1.4,1.7-1.9.7-.5,1.6-.7,2.4-.8.2,0,.4,0,.6,0,.2,0,.3,0,.5,0,.4,0,.8.2,1.1.3.7.3,1.4.8,2,1.4.6.6,1.2,1.6,1.7,2.6.5,1,.9,1.9,1.2,2.8.3.9.5,1.7.6,2.3.1.6.2,1.2.3,1.6,0,.4,0,.8,0,1.1,0,.2,0,.4,0,.4,0,0,0-.5-.2-1.4,0-.4-.2-1-.4-1.6,0-.3-.2-.6-.3-1-.1-.4-.3-.8-.4-1.2-.3-.9-.7-1.8-1.2-2.7-.5-.9-1-1.6-1.6-2.2-.6-.6-1.2-1-1.9-1.3-.3-.1-.7-.2-1-.3-.2,0-.3,0-.5,0-.1,0-.3,0-.5,0-.7,0-1.5.3-2.1.7-.7.4-1.2,1-1.6,1.7-.4.7-.8,1.4-1.1,2.2,0,.2-.2.4-.2.5,0,.2-.1.4-.2.5-.1.4-.2.7-.3,1.1-.1.4-.2.7-.3,1,0,.3-.2.6-.2.9-.1.6-.2,1.1-.3,1.5,0,.4,0,.8,0,1,0,.2,0,.4,0,.4Z"/>
              <path class="cls-28" d="M137.2,102.5s0-.8.3-1.8c.9-3,3.5-5,6.1-5.2.2,0,.4,0,.4,0-3.4,1.6-5.3,3.4-6.9,7.1Z"/>
            </g>
            <g>
              <path class="cls-43" d="M138.9,90.4c.5,4.5-.6,8.3-3.3,9-2.7.7-5.4-2.1-5.8-6.6-.4-4.5,1.4-9.1,3.8-9.6,2.4-.5,4.8,2.7,5.3,7.2Z"/>
              <g class="cls-19">
                <path class="cls-51" d="M138.9,90.4c-.5-4.5-2.9-7.7-5.3-7.2-2.4.5-4.2,5-3.8,9.6.4,4.5,3.1,7.3,5.8,6.6,2.7-.7,3.8-4.5,3.3-9ZM135.5,98.3c-2.5.7-5-1.9-5.4-6.1-.4-4.2,1.3-8.4,3.5-8.8,2.2-.5,4.4,2.4,4.9,6.5.5,4.2-.5,7.7-3.1,8.3Z"/>
              </g>
              <g class="cls-21">
                <path class="cls-43" d="M138.9,90.4c-.5-4.5-2.9-7.7-5.3-7.2-2.4.5-4.2,5-3.8,9.6.4,4.5,3.1,7.3,5.8,6.6,2.7-.7,3.8-4.5,3.3-9ZM138.5,94.6c-.5,2.6-2.6,2.8-2.6,2.4,0-.4.9-1,1.4-2.3,1.1-2.6-.4-6.1-.9-7.1-.5-1-.5-1.8.6-.8,1.1,1.1,2.1,4.8,1.5,7.8Z"/>
              </g>
              <g class="cls-21">
                <path class="cls-43" d="M137.5,91.3c-.4-3.1-2.1-5.1-3.8-4.6-.1,0-.2,0-.4.1-.3-.5-.6-.8-1-.8-.8,0-1.5,1.4-1.5,2.8,0,.6,0,1.2.3,1.7-.1.8-.2,1.6,0,2.4.3,3,2.2,4.9,4.1,4.4,1.9-.5,2.8-3.1,2.4-6.2Z"/>
              </g>
              <path class="cls-46" d="M136.7,91.4c.3,2.3-.4,4.3-1.9,4.7-1.4.4-2.9-1-3.1-3.3-.2-2.3.7-4.4,2-4.8,1.3-.4,2.6,1.1,2.9,3.4Z"/>
              <g class="cls-21">
                <path class="cls-59" d="M134.7,88.8c-.5,2.2-2.1,3.8-3.3,3.5-1.2-.4-1.7-2.5-1.1-4.7.6-2.1,1.9-4,3.1-3.6,1.2.4,1.9,2.5,1.4,4.7Z"/>
              </g>
              <path class="cls-47" d="M133.8,88.6c-.4,1.7-1.5,2.9-2.5,2.7-.9-.3-1.2-1.9-.8-3.5.4-1.6,1.4-3,2.3-2.7.9.3,1.4,1.9,1,3.6Z"/>
              <g class="cls-49">
                <path class="cls-66" d="M137.6,89.3c.4,1.8.8,5.3-1.1,7-1.1,1,1.8.5,2-3.4.2-3-1.3-5.8-.9-3.6Z"/>
              </g>
              <g class="cls-49">
                <path class="cls-66" d="M137.1,87.4c-.3.1,0,1.1.4.9.3-.1,0-1.1-.4-.9Z"/>
              </g>
            </g>
            <g>
              <path class="cls-23" d="M116.2,95.6c.2,0,.7-1.4.7-1.7.2-.6.3-1.3.3-1.9,0-1,0-3.4-.2-4.4-.7-4.3-3.8-9.1-7.8-7-.9.5-1.8,1.6-2.4,2.6-2.1,3.8-2.3,8.2-2.3,8.2,0,2.3.6,4.2.6,4.2-.6-4.7.5-7,.5-7-.1,1.7-.9,4.6.3,8.1.5,1.6,1.8,2.5,1.8,2.5,0,0-1,0-1.7,1.1,2.4,0,5.5-.7,8.5,2.2,0-1.4-1.9-2.7-1.9-2.7,0,0,2.1-1.2,3.4-4.1Z"/>
              <g>
                <path class="cls-77" d="M116.5,91.1c-.1,5.1-3.3,8.7-6.4,8.3-3.2-.4-4.7-4.5-4.2-9.4.5-4.9,2.8-9,5.5-9,2.7,0,5.3,4.9,5.2,10.1Z"/>
                <path class="cls-28" d="M116.2,90.9c-.2,3.6-1.9,7.5-5.3,8.2-4.4,1-5.1-5.5-4.9-9,.3-3.5,1.6-7.7,4.5-8.7,4-1.5,5.7,5.9,5.7,9.6,0,.2.6.5.6.3,0-4.1-1.9-9.8-5.3-10.4-3.6-.6-5.5,5.3-5.9,9-.4,3.9.4,8.6,4.2,9.6,4.2,1.2,6.8-4.4,7-8.2,0-.2-.6-.6-.6-.3Z"/>
              </g>
              <g class="cls-19">
                <path class="cls-79" d="M116.5,91.1c.1-5.1-2.5-10.1-5.2-10.1-2.7,0-5,4-5.5,9-.5,4.9,1.1,9,4.2,9.4,3.2.4,6.3-3.2,6.4-8.3ZM109.9,97.6c-2.8-.3-3.8-3.9-3.4-8.3.4-4.4,2.4-7.9,4.8-8,2.4,0,4.4,4.3,4.3,8.8,0,4.5-2.9,7.7-5.7,7.4Z"/>
              </g>
              <path class="cls-28" d="M105.2,89.8s0,0,0-.3c0-.2,0-.4,0-.8,0-.3.1-.8.2-1.2,0-.2.1-.5.2-.7,0-.3.2-.5.3-.8.1-.3.2-.6.3-.9,0-.1.1-.3.2-.4,0-.1.1-.3.2-.4.3-.6.6-1.2,1-1.8.4-.6.9-1.1,1.4-1.4.6-.3,1.3-.4,1.9-.4.2,0,.3,0,.5,0,.2,0,.3,0,.4,0,.3,0,.6.2.9.3.5.3,1.1.7,1.5,1.2.4.5.8,1.3,1.1,2.1.3.8.5,1.6.7,2.3.2.7.3,1.4.3,1.9,0,.5,0,.9,0,1.3,0,.4,0,.6,0,.8,0,.2,0,.3,0,.3,0,0,0-.4,0-1.1,0-.3,0-.8-.2-1.3,0-.2-.1-.5-.2-.8,0-.3-.2-.6-.3-1-.2-.7-.4-1.4-.7-2.2-.3-.7-.7-1.4-1.1-1.9-.4-.5-.9-.9-1.4-1.1-.3-.1-.5-.2-.8-.3-.2,0-.3,0-.4,0-.1,0-.3,0-.4,0-.6,0-1.2.1-1.7.4-.6.3-1,.7-1.4,1.2-.4.5-.7,1-1,1.6,0,.1-.1.3-.2.4,0,.1-.1.3-.2.4-.1.3-.2.5-.3.8-.1.3-.2.5-.3.8,0,.2-.2.5-.2.7-.1.5-.2.8-.3,1.2,0,.3-.1.6-.2.8,0,.2,0,.3,0,.3Z"/>
              <path class="cls-28" d="M106.7,99.8s.5-.3,1.4-.5c2.4-.5,4.8.5,6,2.2.1.2.2.3.2.3-2.4-1.7-4.4-2.3-7.5-1.9Z"/>
            </g>
            <g>
              <path class="cls-43" d="M114.1,92.3c0,3.6-1.1,6.5-3.3,6.8-2.1.3-4-2-4.1-5.6,0-3.6,1.8-7,3.7-7.2,1.9-.2,3.5,2.5,3.6,6Z"/>
              <g class="cls-19">
                <path class="cls-51" d="M114.1,92.3c0-3.6-1.7-6.2-3.6-6-1.9.2-3.7,3.6-3.7,7.2,0,3.6,1.9,6,4.1,5.6,2.2-.4,3.3-3.2,3.3-6.8ZM110.9,98.3c-2,.3-3.8-1.9-3.8-5.2,0-3.3,1.6-6.5,3.4-6.6,1.8-.2,3.3,2.2,3.4,5.5,0,3.3-1,6-3,6.3Z"/>
              </g>
              <g class="cls-21">
                <path class="cls-43" d="M114.1,92.3c0-3.6-1.7-6.2-3.6-6-1.9.2-3.7,3.6-3.7,7.2,0,3.6,1.9,6,4.1,5.6,2.2-.4,3.3-3.2,3.3-6.8ZM113.5,95.6c-.6,2-2.3,2-2.2,1.7,0-.3.8-.7,1.3-1.7,1.1-2,.1-4.8-.2-5.6-.3-.8-.2-1.5.5-.6.8.9,1.3,3.9.6,6.2Z"/>
              </g>
              <g class="cls-21">
                <path class="cls-43" d="M113,93c0-2.4-1.3-4.1-2.7-3.9,0,0-.2,0-.3,0-.2-.4-.4-.7-.7-.7-.6,0-1.2,1-1.4,2.1,0,.5,0,1,0,1.3-.2.6-.2,1.2-.2,1.9,0,2.4,1.4,4,2.9,3.8,1.5-.3,2.4-2.2,2.4-4.7Z"/>
              </g>
              <path class="cls-46" d="M112.3,93c0,1.8-.7,3.3-1.8,3.5-1.1.2-2.2-1-2.2-2.8,0-1.8.9-3.4,2-3.6,1.1-.2,2,1.1,2,2.9Z"/>
              <g class="cls-21">
                <path class="cls-59" d="M111,90.8c-.5,1.7-1.9,2.9-2.9,2.5-.9-.4-1.1-2.1-.5-3.7.6-1.6,1.8-3,2.7-2.6.9.4,1.3,2.1.7,3.8Z"/>
              </g>
              <path class="cls-47" d="M110.3,90.5c-.4,1.3-1.4,2.2-2.1,1.9-.7-.3-.8-1.6-.4-2.8.4-1.2,1.3-2.3,2-2,.7.3.9,1.6.5,2.9Z"/>
              <g class="cls-49">
                <path class="cls-66" d="M113.2,91.4c.2,1.4.2,4.2-1.4,5.4-1,.7,1.4.5,1.8-2.5.3-2.3-.6-4.7-.4-2.9Z"/>
              </g>
              <g class="cls-49">
                <path class="cls-66" d="M112.9,89.9c-.2,0-.1.9.2.7.2,0,.1-.8-.2-.7Z"/>
              </g>
            </g>
            <g>
              <path class="cls-22" d="M137.7,110.5c2.7,4.5,6.4,3.6,9.6.8,5.6-5.1,7.5-11,5.3-14.1-2.3-3.1-6.5-4.5-11.4-.7-4.9,3.8-6.4,9-3.4,14Z"/>
              <path class="cls-47" d="M146.4,96.9c.3.4-.3,1.1-1.3,1.6-1,.4-2,.4-2.3,0-.3-.4.3-1.1,1.3-1.5,1-.4,2-.5,2.3,0Z"/>
              <path class="cls-47" d="M148.9,97c0,.2-.3.5-.7.5-.4,0-.7,0-.7-.3,0-.2.3-.5.7-.6.4,0,.7,0,.7.3Z"/>
            </g>
            <g>
              <path class="cls-42" d="M120.4,95.4c.2.5-.2.8-.4,1.1-.2.2,0,.8.2.6.6-.5.9-1.3.3-2-.1-.1-.2.2-.1.3Z"/>
              <path class="cls-42" d="M116,97.3c-.6.5-.8,1.4-.7,2.1,0,2.1,1.6,4.3,3.7,4.7.3,0,.3-.7,0-.9-1.4-.8-2.6-1.3-3.2-3-.4-1.1,0-2.2.9-2.9.6-.4,1.3-.3,2-.4,0,0,0-.2,0-.2-1.2-.1-1.8-.2-2.7.6Z"/>
            </g>
            <path class="cls-5" d="M196.1,87.2c-1.4,1.9-2,4.4-1.4,6.7,0,.1.1,0,.1,0-.2-1.5,0-2.8.4-4,0,.6.2,1.2.6,1.7.8.9,2.1,1.5,3.3,1.1.2,0,.2-.6,0-.7-.7-.2-1.5-.2-2.2-.5-1-.4-1.4-1.2-1.5-2.2.3-.7.7-1.3,1.2-1.9.6-.8,1.4-1.4,2.3-1.8,1.2-.5,2,.2,3,.7.3.1.3-.5.2-.6-2.1-2.5-4.6-.5-6.1,1.5Z"/>
            <g>
              <path class="cls-13" d="M110.7,100.2c-2.8-.8-4.9-.2-6.2,1.1,1,4.1,3.4,7.7,6.3,10.8,2.8.9,5.4.4,6-3.2.7-4.3-1.8-7.4-6.1-8.6Z"/>
              <path class="cls-47" d="M107.3,101.8c0,.4.5.7,1.3.7.8,0,1.5-.2,1.6-.6,0-.3-.5-.7-1.3-.7-.8,0-1.5.2-1.6.6Z"/>
              <path class="cls-47" d="M105.6,102.6c0,.2.3.3.6.2.3,0,.5-.3.4-.4,0-.2-.3-.3-.6-.2-.3,0-.5.3-.4.4Z"/>
            </g>
            <g class="cls-19">
              <path class="cls-2" d="M201.5,78.7c-4.7-2.2-8.3,1.7-9.7,4.7-1.4,3-2.2,5.3-3.3,1.1-1.1-4.2-3.6-16.6-3.6-16.6,0,0-1.8,6.9-3.6,5.5-5.7-5.3-10.2-18.2-10.2-18.2,0,0,1.2,8.8-.4,8.9-1.6.1-6.7-2.2-11.3-12.3-.4,3.5,1.5,14.7-.6,14.4-4.1-1-8.9-6.5-11-16.4-1.8,3.5-1.2,12.5-3,13-1.8.5-5.4-4.5-4.5-12.7-6.7,8.2-17.3,10.7-17.7,10.3-.4-.4,2.9-5.7,2.9-5.7,0,0-6.1,6.9-11.6,10.5-5.5,3.6-6.1,1.9-3.5-5.2-2.2,3-4.5,5.1-6.4,6.6.3,1.4.5,2.9.8,4.4,1.2-1.3,2.3-2.7,2.7-3.6.6,5.2,5,2.7,12.8-4-.4,3.4,12.3-.3,17.5-7,.3,9.7,9.8,15.2,10.6,6.6,5.8,10.9,14.9,13.2,14.6,7.5,8.4,10.6,18.1,61.6-26.5,53.7,0,0,0,0,0,0,19.6,3.4,35.5-4.4,45.6-12.6,4.8-5.6,8.3-11,9.3-14.4,3.6,3.3,12.1.9,14.6-4.8,2.5-5.7.6-11.4-4.1-13.6Z"/>
            </g>
            <g class="cls-38">
              <path class="cls-52" d="M148.7,104.8c-6.5,5.8-13.3,7.6-18.5,8,.3.5.7,1.1,1.2,1.6,2.5-.2,7-.9,11.5-4.1,2.6-1.6,3.8-1,4.4.4.8-.7,1.4-1.4,2-2,0-1.3-.2-2.6-.6-3.9Z"/>
            </g>
            <path class="cls-3" d="M115.7,99.7s1.5,4.1,7.6,3.4c2.9-.2-.3,5.1-4.6,2.1-4.2-2.9-3-5.5-3-5.5Z"/>
            <path class="cls-47" d="M119.2,97.6c.2.3-.3.9-1.1,1.1-.8.3-1.6.2-1.8-.2-.2-.3.3-.8,1.1-1.1.8-.3,1.6-.2,1.8.2Z"/>
            <g>
              <path class="cls-2" d="M142.2,124.8c-.2,0-.5,0-.7,0,.2,0,.5,0,.7,0Z"/>
              <path class="cls-3" d="M197.8,94.6c-1.1-2.4-1.2-5.3.9-7.2.9-.8,2.2-1.4,3.4-1.3.7,0,1.4.4,2,.8.2.2.8.9.5.2-.2-.7-.6-1.4-1.1-2-1.4-1.5-3.6-2.1-5.6-1.7-.5.1-2.3.8-2.7,0-.4-.9.5-2.7,1.1-3.3.9-1,2.3-1.6,3.6-2.1-3.9-.7-6.8,2.6-8,5.3-1.4,3-2.2,5.3-3.3,1.1-1.1-4.2-3.6-16.6-3.6-16.6,0,0-1.8,6.9-3.6,5.5-5.7-5.3-10.2-18.2-10.2-18.2,0,0,1.2,8.8-.4,8.9-1.6.1-6.7-2.2-11.3-12.3-.4,3.5,1.5,14.7-.6,14.4-4.1-1-8.9-6.5-11-16.4-1.8,3.5-1.2,12.5-3,13-1.8.5-5.4-4.5-4.5-12.7-6.7,8.2-17.3,10.7-17.7,10.3-.4-.4,2.9-5.7,2.9-5.7,0,0-6.1,6.9-11.6,10.5-5.5,3.6-6.1,1.9-3.5-5.2-1.1,1.4-2.1,2.6-3.2,3.7,0,2.6.6,5.3,3.5,4.4,5.1-1.6,10.4-7,10.4-7,0,0,5.1,4.3,17.5-6.9,0,5.7,7.8,19,9.5,2.9,0,0,9.1,14.1,12.4,12.1,3.2-2,2.1-8.1,2.1-8.1,0,0,7.5,13.1,9.5,7.2,0,0,27,30.9-6.2,52.6,6.3-2.5,11.7-5.9,16.1-9.4,4.8-5.6,8.3-11,9.3-14.4,2.5,2.3,7.4,1.8,10.9-.5-1.8.7-3.3-.2-4.1-2Z"/>
            </g>
            <g class="cls-24">
              <path class="cls-61" d="M198.2,18.4C188.2,1.9,161.7-3.7,137.2,3.6c-.6.2-1.2.4-1.8.6,42.6-10.6,55.1,12.8,55.1,12.8,0,0-5.1.2-12.4,6.5,18.9-9.2,25,10.8,25,10.8,0,0,.6-7.2-4.8-12.2,15.5,4.2,23.6,32.9,7.3,17.9,9.9,18.4,2.5,34.6-2.1,34-4.6-.6-6.5-15.1-6.5-15.1,0,0-3.6,16.4-6.4,14.9-2.8-1.5-6.6-17.1-6.6-17.1,0,0-1.6,9.3-3.7,8.8-2.1-.5-12.4-22.1-12.4-22.1,0,0,1.2,15-1.8,14.7-3-.4-9.9-17.9-9.9-17.9,0,0,1.2,18.3-1.4,18.1-2.6-.2-7.5-17.3-7.5-17.3,0,0-3.1,15.6-4.3,14.2-1.2-1.4,1.2-14.5,1.2-14.5,0,0-14.9,15.5-16.2,14.4-1.3-1.1.2-6.8.2-6.8,0,0-13.1,13.5-14.6,12.3-1.5-1.1,3.1-11.4,3.1-11.4,0,0-11.6,14.9-13.5,14-1.9-.9-.9-10.8-.9-10.8,0,0-8.9,12-9.5,10.4-.8-2.2-.3-6,4.5-10.9-9.2,4.6-13.3,2.1-15.1-1.2.2,5,5.3,7,10.1,5.3-5.8,4.1-3.5,10.8-1.9,12.3,1.6,1.5,3.6-1.5,9.4-8.4-2.5,9.8-.4,9.6,3.9,6.2,0,0,0,.1,0,.2,1.9-1.5,4.3-3.6,6.4-6.6-2.5,7-2,8.8,3.5,5.2,5.5-3.6,11.6-10.5,11.6-10.5,0,0-3.3,5.3-2.9,5.7.4.4,11-2.1,17.7-10.3-.9,8.2,2.8,13.2,4.5,12.7,1.8-.5,1.2-9.5,3-13,2.1,9.9,6.9,15.4,11,16.4,2.1.4.3-10.8.6-14.4,4.6,10.1,9.7,12.5,11.3,12.3,1.6-.1.4-8.9.4-8.9,0,0,4.4,12.9,10.2,18.2,1.8,1.4,3.6-5.5,3.6-5.5,0,0,2.5,12.4,3.6,16.6,1.1,4.2,1.9,1.9,3.3-1.1,1.4-3,5-7,9.7-4.7,4.7,2.2,6.5,7.9,4.1,13.6-2.5,5.7-11,8.1-14.6,4.8-1,3.4-4.5,8.8-9.3,14.4.4-.3.8-.6,1.2-1,30-1.8,44-43.5,40-58.4-3.9-14.8-13.9-31.7-24.7-33.7Z"/>
            </g>
            <path class="cls-33" d="M203.5,56.5c-3.9-17.8-24.9-30.7-20.4-23.5,4.5,7.1,3.1,16.8.7,12.5-2.4-4.2-6.3-11.3-6.4-5.2,0,0,3.6,19.7.4,16-3.2-3.7-11.6-21.1-11.6-21.1,0,0,.5,17.6-1.7,15.3-2.2-2.3-9.3-17.8-9.3-17.8,0,0,.6,20.8-1.5,16.3-2.1-4.5-6.4-14.5-6.4-14.5l-2.9,12.9v-16.2c0,0-5.2,5.8-13.2,17.4-1.1-4.6,3.4-12.1,3.4-12.1,0,0-11.4,9.2-16.2,16.3-1.6-7.6,3.1-14.1,3.1-14.1,0,0-12.6,10.5-13.5,19.3-3.9-19.5,2.7-24.6,1.3-25.8-1.4-1.2-5.1.4-11,8.3,12.5-30,38.1-34.5,38.1-34.5,0,0-13.9,5.4-16.4,14.6-2.6,9.2,9.2-8.7,8.8,1.2-.4,9.9,6.9,6.5,11.3,0,4.5-6.6,8.3,6.1,10.4-.5,2.1-6.6,4.3,10.1,5.2,2.6.9-7.5,7.8-2.7,11.4,1.6,3.6,4.3,8.1,5.1,4.9-1.2-3.3-6.2,30.1-.7,31.7,32.5Z"/>
            <path class="cls-33" d="M146.7,5.4s18.7-4.1,33.9,4.5C175.3,1.6,155.9,0,146.7,5.4Z"/>
            <g class="cls-34">
              <path class="cls-61" d="M258.9,22.9c-8.7,3.8-14-.7-19.2-7.6-3.1-4.1-8.4-9.4-14-8.4-.3,0-.3.9,0,.9,9.7.3,13.9,12.9,20,18.4,3.3,3,11,3.7,13.9,0,.5-.7.8-4-.8-3.3Z"/>
              <path class="cls-61" d="M249.5,32.9c-.5.1-.5,1.6.1,1.6,3.5.2,7,1.7,10.3,3,3.5,1.4,5.6,4.1,7.7,7.1,1.5,2.1,2.2-1.8,1.7-2.9-3.4-7.4-11.9-10.8-19.8-8.8Z"/>
              <path class="cls-61" d="M255.2,42.8c-.7.1-.7,1.8,0,1.7,6.6-.4,10.8,5.7,13.7,10.7.5.8.9-.2,1-.7.1-6.6-8.5-12.9-14.7-11.7Z"/>
              <path class="cls-61" d="M256.8,53.8c-.5-.2-.5.9-.2,1.2,3.1,2.1,6.1,4.1,8.6,6.9,4.2,4.9,3.4,10.4,2.5,16.1,0,.6.6,2.4,1.1,1.2,2.1-4.3,2-9.2.7-13.7-1.7-6.3-7.4-9-12.7-11.7Z"/>
            </g>
            <path class="cls-39" d="M218.6,13.5c-.1,0-.1.4,0,.4,1.5-.4,3.3-.6,4.8-.2,3.5.9.1,4.4-.7,5.7-1.5,2.5-1.1,5.7-.6,8.4.2,1.4,1.2.4,1.1-.6-.3-3.3-.5-5.7,1.7-8.5,1-1.2,1.3-2.5,1.2-4-.3-3.8-5.6-2.5-7.6-1.3Z"/>
            <path class="cls-39" d="M198.3,4.6c-1.3-1-2.6-.3-3.4.9-.8,1.3-.9,3.1-.9,4.6,0,.2.2.3.3,0,.2-1.1.5-2.1,1-3.1.6-1.4,1.5-1.1,2.8-1.1.5,0,.5-1.2.2-1.4Z"/>
          </g>
          <g>
            <path class="cls-42" d="M128.1,159.9c-2.3-1.2-4.4-1.9-6.8-1.7-.8-1.1-1.7-2.2-2.5-3.3-1.7-2.2-3.5-4.3-5.3-6.4-2-2.2-3.8-4.6-5.7-6.8-1.7-2-3.7-4-5.6-5.8.3-2.8,0-6.1-1.1-8.8,0,0,0-.1,0-.2-.8-2.7-1.7-5.4-2.9-8-1.2-2.6-2.8-4.9-4.4-7.2-1.7-2.4-3.6-4.6-5.2-7-1.1-1.6-2.3-4-4.2-4.7-1-.4-2-.1-2.4,1-.6,1.9,0,3.9.9,5.6,1,2.2,2.9,4,4.5,5.8.9,1,1.7,2.1,2.4,3.3-2-.2-4.1-.4-5.6,1-.3.3-.6.7-.8,1.1-2.8.5-4.3,2.1-4.9,4.2,0,0,0,0,0,0-3,1.8-2.5,6.6-1.5,9.3.8,1.9,3.3,4.2,5.3,3.6,1.6,2.7,3.4,5.2,6.3,6.6,1.9.8,3.8,1,5.5.2,4.8,8.6,10.1,17.1,16.7,24.4,2.9,3.1,6.5,7.5,11.3,6.7,2.1-.4,3.5-1.7,5-3.1,1.6-1.6,3.2-3.2,4.3-5.3,0,0,0-.1,0-.2.9-1.9-1.7-3.7-3.2-4.5Z"/>
            <path class="cls-72" d="M86,109.9c-1.6-1.8-2.9-3.8-3.6-6.1-.2-.6-.2-1.2-.2-1.8,0-2.1,1.7-1.3,2.3-.9.9.6,1.7,1.6,2.3,2.5,2.7,3.7,5.6,7.4,8.1,11.2,2.1,3.2,3.6,6.6,4.8,10.1-.9-1.2-2.3-2.2-3.5-3.1-1.3-1-2.7-1.4-4.1-1.8,0,0,0,0,0-.1-.4-1.4-1-2.6-1.7-3.8,0,0,0-.1,0-.1-1.2-2.1-2.8-4-4.5-6Z"/>
            <path class="cls-3" d="M95,114.7c-2.5-3.8-5.4-7.5-8.1-11.2-.6-.9-1.4-1.9-2.3-2.5-.7-.4-2.2-1.2-2.3.7,1.9.2,3.3,1.8,4.3,3.3,1.5,2.2,2.9,4.6,4.3,6.9,1.3,2.1,2.4,4.3,2.5,6.8,0,.3-.4.4-.6.2-.5-.5-.9-.9-1.4-1.4.3.7.6,1.4.9,2.2,0,0,0,0,0,.1,1.4.5,2.8.9,4.1,1.8,1.2.9,2.5,1.9,3.5,3.1-1.2-3.5-2.7-6.9-4.8-10.1Z"/>
            <path class="cls-72" d="M83.6,118.5c1-2.8,4.1-2.4,6.5-2.2.6,1.1,1.2,2.3,1.7,3.4-.4-.2-.8-.3-1.2-.5-1.4-.7-5.4-4.2-5.9-.6-.4,2.6,1.2,4.6,3.3,6,0,0,0,0,0,0,.3.7.2,1.2,1.1,1.4.5.1,1.1.1,1.6.2.4,0,.8.4,1.2.5,0,0,0,0,0,0,.1,0,.3.2.4.3,1,.9.7,2.2.5,3.3,0,0,0-.1-.2,0-1.1.3-2.1.7-3.3.9-1.1.1-2.4-.7-3.3-1.3-1.7-1.2-2.5-2.9-2.8-4.9-.3-2.1-.2-4.4.5-6.4Z"/>
            <path class="cls-3" d="M89.6,116.7c-.2.9-1,.5-1.7.4-.4,0-.8-.1-1.2-.1,1.4.3,3.1,1.7,3.9,2.1.4.2.8.4,1.2.5-.5-1.1-1-2.3-1.7-3.4-.2,0-.3,0-.5,0,0,.2,0,.3,0,.5Z"/>
            <path class="cls-3" d="M92.2,127c-.1-.1-.2-.2-.4-.3,0,0,0,0,0,0-.4-.1-.8-.4-1.2-.5-.5,0-1.1,0-1.6-.2-.8-.2-.8-.8-1.1-1.4,0,0,0,0,0,0-2.1-1.3-3.7-3.4-3.3-6,0-.4.2-.8.3-1-.3.2-.5.6-.6,1.1-.3,1-.2,2,0,3,.3,1.5.8,3.1.6,4.6,0,.2-.1.3-.3.3-.5,0-.9-.1-1.2-.4.4,1.4,1.2,2.7,2.5,3.6.9.6,2.1,1.4,3.3,1.3,1.1-.1,2.2-.5,3.3-.9.1,0,.2,0,.2,0,.3-1.1.5-2.4-.5-3.3Z"/>
            <path class="cls-72" d="M88.7,124.9c.3.2.6.3,1,.5-.2,0-.3,0-.5,0-.3,0-.4-.2-.5-.4Z"/>
            <path class="cls-72" d="M78.7,122.9c.2-2.6,2.1-3.9,4.4-4.4-.6,1.5-.7,3.3-.7,4.8,0,2.6.6,5,2.6,6.8.8.7,1.7,1.2,2.7,1.5-.7,1.1-1.5,1.9-2.9,2.1-1,.1-2-.8-2.7-1.4-1.2-1.1-2-2.6-2.6-4.1-.6-1.6-.9-3.5-.8-5.2Z"/>
            <path class="cls-3" d="M85,130.1c-2-1.8-2.6-4.2-2.6-6.8,0-1.2,0-2.6.4-3.9-.6.9-.9,1.9-1,3-.2,1.4-.5,3.5,0,4.9.2.5,1.3,2.7-.2,2.5-1,0-1.7-1.1-2.2-2,0,0,0,.1,0,.2.6,1.5,1.3,3.1,2.6,4.1.7.6,1.7,1.6,2.7,1.4,1.4-.2,2.1-1,2.9-2.1-1-.3-1.9-.8-2.7-1.5Z"/>
            <path class="cls-72" d="M78.4,122.5c-.4,1.7-.2,3.7.4,5.6.7,2.3,2.1,4.6,4.3,5.8-5,3.1-9-8.3-4.7-11.4Z"/>
            <path class="cls-3" d="M78.8,128.1c-.6-1.8-.8-3.6-.5-5.2,0,0,0,0,0-.1-.6,1.3-.5,2.8-.4,4.2.1.9.3,1.9.5,2.8.1.5.4,1,.4,1.4s-.4.7-.9.8c1.2,2,3.1,3.2,5.1,1.9-2.2-1.2-3.6-3.5-4.3-5.8Z"/>
            <path class="cls-72" d="M131.1,164.2c0,0-.2,0-.3.2-2.3,3.7-6.6,9-11.6,7.7-2-.5-3.6-2.2-5-3.5-1.7-1.6-3.4-3.4-4.9-5.3-5.5-6.8-10.5-14.2-15-21.7.5-.3,1-.7,1.5-1.2,0,0,0-.2,0-.3-1.7,1.4-4.1,2-6.1,1.1-.7-.3-1.4-.7-2.1-1.1-2.1-1.4-3.5-3.3-5-5.3.3-.2.6-.4.8-.7,0,0,0,0,0,0,1.8.8,3.7-.9,4.5-2.5,0,0,.2,0,.3,0,1.3.2,2.8-.5,4-.9,0,0,.2-.1.2-.2,0,0,0,0,0,.1-.6,2.4-.4,4.5.5,6.6-.2-.9-.2-1.9-.2-2.8-.1-.7-.1-1.5,0-2.3.2-1.1.8-2.3.7-3.4,0-1.1-.2-1.7-.9-2.5-.6-.8-1.9-1.2-2.8-1.6,0,0,0,0,0,0-2.4-1.4-4.9-2.8-4.8-6,.7-1.2,1.6-1.5,2.4-.7.3.2.5.4.8.6.6.4,1.1.8,1.7,1.2,1.1.7,2.4.8,3.6,1.2,1.4.5,2.7,1.7,3.9,2.6,1.1.9,2,1.9,2.6,3.2,1.2,2.4,1.6,5.6,1.5,8.5,0,0,0,.2,0,.3,0,0,0,.1,0,.2.2.4.5.7.7,1.1,3.5,3.8,6.7,7.9,10.1,11.8,1.9,2.2,3.8,4.4,5.6,6.7.5.6.9,1.2,1.3,1.8,0,0,.2,0,.2,0,.7.7,1.4,1.5,2.2,2.3.4.4.8,1.2,1.3,1.5-.5-.9-1-1.7-1.7-2.6,1.6,0,3.2.4,4.7,1.2,1.3.7,5.3,2.3,4.8,4.4Z"/>
            <path class="cls-3" d="M126.3,159.8c-1.5-.8-3.1-1.2-4.7-1.2.6.8,1.2,1.7,1.7,2.6-.5-.3-.9-1.1-1.3-1.5-.5-.5-1-1-1.4-1.5,0,0,0,.2.1.3.8,2.2,1.5,4.6,1.7,6.9.1,1,.4,3.4-.9,3.9-1.5.5-2.8-1.3-3.7-2.1-5.1-4.8-9-10.5-13.2-16.1-1.8-2.5-3.9-5-4.4-8.2-.4-2.4.8-4.7,1.9-6.7,0-.1-.2-.2-.2-.4,0,0,0-.1,0-.2,0,0,0-.2,0-.3,0-2.9-.3-6.1-1.5-8.5-.2-.4-.5-.8-.7-1.2.7,1.7.8,3.5.5,5.4-.3,1.8-.8,4.1-1.9,5.7-.8,1.2-1.8,1.8-3.1,1-1.4-1-1.5-3.2-1.3-4.7.1-1.1.3-2.2.6-3.3.2-.9.6-2,.5-3-.2-2-2.4-2.9-4-3.7-1.3-.7-5.6-2.6-5.3-4.7-.1.1-.2.3-.4.5,0,3.2,2.4,4.6,4.8,6,0,0,0,0,0,0,.9.4,2.2.9,2.8,1.6.7.8.8,1.4.9,2.5,0,1.1-.5,2.3-.7,3.4-.1.8-.1,1.6,0,2.3,0,.9,0,1.9.2,2.8-.9-2.2-1.1-4.2-.5-6.6,0,0,0,0,0-.1,0,.1-.1.2-.2.2-1.2.4-2.7,1.1-4,.9-.1,0-.2,0-.3,0-.7,1.5-2.7,3.2-4.5,2.5,0,0,0,0,0,0-.3.3-.5.6-.8.7,1.5,2,2.9,3.8,5,5.3.6.4,1.4.8,2.1,1.1,2,.9,4.3.3,6.1-1.1,0,0,0,.2,0,.3-.4.5-.9.9-1.5,1.2,4.5,7.6,9.4,14.9,15,21.7,1.5,1.9,3.1,3.6,4.9,5.3,1.4,1.3,3.1,3,5,3.5,5,1.3,9.2-3.9,11.6-7.7,0-.1.2-.2.3-.2.5-2.1-3.5-3.8-4.8-4.4Z"/>
            <path class="cls-3" d="M126.3,159.8c-.6-.3-1.2-.6-1.8-.7.8.7,1.4,1.4,1.9,2.3.4.7.8,1.4,1.1,2.2.2.4-.2,1-.3,1.3-.8,2.5-1.8,4.7-3.4,6.8,3-1.4,5.4-4.6,7-7.2,0-.1.2-.2.3-.2.5-2.1-3.5-3.8-4.8-4.4Z"/>
          </g>
          <g>
            <g>
              <g>
                <path class="cls-25" d="M44.4,138.9l49.8,8.4s4.4.2,6,3.6l25,55.9s1.4,1.3-1.4,2.6l-46.8-11.2s-2.4-.3-4.2-2.8l-30.3-53.5s-1.5-3.1,1.8-3.1Z"/>
                <path class="cls-71" d="M123.9,210l-46.9-11.2c0,0-2.6-.3-4.5-3l-30.3-53.6c0,0-.8-1.7-.1-2.8.4-.7,1.2-1,2.3-1l49.9,8.5c.1,0,4.6.3,6.3,3.9l25,55.8c.2.3.5.8.4,1.4-.1.8-.8,1.4-2,2h-.2ZM44.4,139.4c-.7,0-1.2.2-1.4.5-.4.6,0,1.6.2,1.9l30.3,53.5c1.6,2.2,3.8,2.5,3.8,2.5l46.6,11.2c.8-.4,1.2-.8,1.3-1.2,0-.3-.2-.6-.2-.6h-.1c0-.1-25-56.1-25-56.1-1.5-3.1-5.5-3.3-5.6-3.3l-49.9-8.5Z"/>
              </g>
              <path class="cls-12" d="M125.2,206.9l-25-55.9c-1.6-3.4-6-3.6-6-3.6l-49.8-8.4c-3.4,0-1.8,3.1-1.8,3.1l30.3,53.5c1.8,2.5,4.2,2.8,4.2,2.8l46.8,11.2c2.8-1.3,1.4-2.6,1.4-2.6ZM108,196.3l-35.5-8.5s-1.8-.2-3.2-2.1l-23-40.7s-1.2-2.4,1.4-2.4l37.8,6.4s3.3.2,4.5,2.7l19,42.5s1.1,1-1,2Z"/>
              <path class="cls-12" d="M101.9,159c.7,1.9,1.5,3.7,2.3,5.6.5,1.3,1,2.8,1.6,4.1.4.8.8,1.5,1,2.3.3,1.3-1.2,2.1-2,2.8-1.2.9-2.3,2.3-3,3.8.8-.5,1.8-.8,2.5-1.1,2-.7,4.3-1.2,6.5-.9.2,0,.4,0,.5.1l-11.1-24.7c-1.2-2.4-3.8-3.2-5.1-3.5,3.3,2.8,5.2,7.4,6.8,11.5Z"/>
              <path class="cls-12" d="M125.2,206.9l-13.2-29.6s0,0,0,0c-.8,1-2.1,1.8-2.7,2.9-1.1,2-2.3,4.4-1.8,6.7.5,2.4,1.8,4.5,3.5,6.2.9.9,2,2,3.4,1.9.7,0,1.2-.5,1.9-.6.7-.2,1.2,1.3,1.4,1.7.6,1.4,1.4,2.7,2.1,4,1.2,2.3,3.3,5.9.9,8.2,0,0-.2.1-.2.2l3.5.8c2.8-1.3,1.4-2.6,1.4-2.6Z"/>
            </g>
            <path class="cls-55" d="M50.4,145.4c.6.8.7,1.8.2,2.1-.5.3-1.4,0-2-.9-.6-.8-.7-1.8-.2-2.1.5-.3,1.4,0,2,.9Z"/>
            <path class="cls-47" d="M49.4,145.3c.3.4.3.8.1.9-.2.2-.6,0-.9-.4-.3-.4-.3-.8-.1-.9.2-.2.6,0,.9.4Z"/>
            <path class="cls-47" d="M49,143.3c.2,0,37.8,6.7,37.8,6.7,0,0,1.2,0,2.4,1.9,1.2,2,5.2,11,5.2,11l-6.3-10.8s-.8-1.3-5.4-2c-4.6-.8-33.7-6.8-33.7-6.8Z"/>
          </g>
          <g>
            <path class="cls-42" d="M173.3,167.9c-1.1-1.7-2.8-2.7-4.3-4-1.7-1.5-3.5-2.8-5.4-4-1.1-.7-2.3-1.3-3.6-1.3-.4,0-.8,0-1.3,0,1,.2,1.9.5,2.8.8-1.4,2.7-3.2,5.3-4.7,7.9-1.8,3.1-3.7,6.2-5.7,9.2-8.2.9-16.2,2.7-24.2,4.3-2.8-3.2-6.7-5.8-10.8-6.9,0,0,0,0,0,0-.1,0-.2,0-.3-.1-.5-.1-1-.3-1.5-.6-.8-.4-1.6-.8-2.4-1.2-.9-.4-1.7-1-2.6-1.4,0,0-.2,0-.2,0,0,.6.3,1.2.4,1.7,0,.1,0,.2.1.3.2.4.2.7.3,1.1-1.6.3-3.1.8-4.6,1.1-1.8.4-3.8.9-4.8,2.6-1.1,1.7-3.8,12.8.6,11.8,1.6-.4,1.8-3,1.8-4.2.1-2.1.5-4,2.4-5.3,1.2-.8,2.7-1.1,4.2-1.2-1.4,1.2-2.8,2.4-3.6,4-.3.6-.4,1.1-.4,1.6-.4,1.2-.6,2.4-.3,3.8.4,1.5,1,2.8,2.3,3.7,0,0,0,0,0,0,.3.4.7.7,1.3,1.1,0,0,0,0,0,0,.1,1.5,1.2,3,2.6,3.3.5.1,1.1,0,1.6,0,.7,0,1.3,0,2,0,.5,0,1-.3,1.2-.7.7-1.4-.2-2.5-1.5-3.1,1.1-.6,2.3-1.1,3.6-.8,1.8.5,3.6,1,5.4,1.2,1.9.3,3.8-.4,5-1.8,2.3.3,4.6.4,7,.6,3.4.3,6.9.2,10.4.1,4.5-.1,9.2-.9,13-3.2.6-.6,1.4-1.1,2-1.7.8-.7,1.7-1.4,2.4-2.2.3-.4.7-.9,1-1.3,1.3-1.8,2.6-3.7,3.9-5.5,1.3-1.7,2.5-3.5,3.8-5.2.6-.8,1.2-1.7,1.7-2.6,0,0,0,0,.1.1-.2-.7-.5-1.4-.9-2Z"/>
            <path class="cls-72" d="M109.7,171.4c.7.4,1.5,1,2.3,1.2.6.2,1.2.5,1.7.9-1-.1-2.1,0-3.2.2-.2-.8-.5-1.5-.8-2.3Z"/>
            <path class="cls-72" d="M172,172.1c-1.4,1.9-2.8,3.8-4.2,5.6-1.2,1.7-2.4,3.4-3.6,5.1-.6.9-1.3,1.7-1.9,2.6-2.1,1.8-4.1,3.2-6.8,4.1-3.2,1.1-6.9,1.3-10.3,1.4-3,0-6.1,0-9.1,0-2.3-.1-4.6-.2-6.9-.4.1-.2.2-.8.1-.6-.2.3-.4.6-.7.8t0,0c0,0-.1,0-.2.1,0,0,0,0,0,0-2.2,2-5.9,1.1-8.5.3-1.3-.4-2.3-.7-3.6-.1-1,.4-1.9.8-2.7,1.4,0,.2-.1.4-.2.6.3-.1.5-.3.8-.4.3.2.5.3.8.5.7.4,2.1,2,.2,2.4-.5,0-1,0-1.5,0-1,0-1.9.2-2.8-.3-1.9-1.1-1.4-3.9-.1-5.1.9-.9,1.8-1.7,2.8-2.5.1-.1.1-.4,0-.3-1,.8-1.9,1.6-2.9,2.4-.6.5-1.5,1.3-1.7,2.1,0,0,0,.1,0,.2-.5-.4-.9-.8-1.2-1.3-.8-1.4-.2-2.5.4-3.6.5-.9,1.2-1.6,1.8-2.4.1-.3.2-.6.4-.9-1.6,1.7-3.7,4-3.5,6.2-.4-.6-.8-1.2-1-2,0,0-.1,0-.1-.2-.5-1.5-.3-3.4.5-4.8.1-.3.3-.7.6-1.1,1-1.3,2.2-2.3,3.3-3.4,0,0,0,0,0,0,0,0,0,0,0,0,0-.2,0-.4,0-.7,0,0-.2.2-.3.3-3.2.3-6.4,1.2-7.4,4.6-.2.8-.3,1.7-.3,2.6,0,.5,0,1-.1,1.5-.2,1.4-1.6,2.6-2.6,1.1-.7-1.1-.5-3-.4-4.2,0-1.5.5-2.9.9-4.3.8-3.2,3.8-3.7,6.6-4.3,2.7-.6,5.2-1.4,7.9-.8,5.1,1.1,9.9,4.5,13.2,8.4.1.1-.3-1-.6-1.3,4.6-.7,9.2-1.5,13.8-2.4,3.1-.6,6.2-1.1,9.3-1.5.6-.3,1.2-.6,1.7-.9-.1,0-.2,0-.3,0,2.1-2.9,3.8-5.9,5.6-9,1.5-2.6,3.2-5.2,4.5-7.9.3.1.6.3.8.4,1.4.8,2.8,1.8,4.1,2.7,1.4,1,2.8,2.1,4.1,3.3,1.1.9,1.8,2.1,2.7,3.2-.6.9-1.1,1.8-1.8,2.6Z"/>
            <path class="cls-50" d="M106.5,176.3c3.7-.8,7.5-1.4,11.1,0,1.7.7,3.3,1.4,4.9,2.3,1.3.7,2.5,1.6,3.8,2.2-3.2-3.1-7.2-5.7-11.5-6.6-2.7-.6-5.3.3-7.9.8-2.8.6-5.8,1.1-6.6,4.3,1.4-1.9,4-2.6,6.3-3.1Z"/>
            <path class="cls-50" d="M156.9,168.8c0-.2.1-.3.2-.5-1.6,2.8-3.3,5.6-5.2,8.2,2.2-2.1,3.7-5.2,5-7.8Z"/>
            <path class="cls-50" d="M138.9,180.5c2-.3,4-.7,6.1-1.1,1.7-.4,3.7-.7,5.3-1.6.4-.2.7-.5,1.1-.8-.3.2-.6.3-.9.4-3.1.4-6.2.9-9.3,1.5-4.1.8-8.2,1.5-12.3,2.2,3.2.7,7-.2,10.1-.6Z"/>
            <path class="cls-3" d="M171.1,166.2c-1.3-1.1-2.7-2.3-4.1-3.3-1.3-.9-2.7-1.9-4.1-2.7-.3-.2-.6-.3-.8-.4,0,.2-.2.3-.3.5,3.2.7,5.7,4.3,4.4,7.5-.9,2.4-3.1,4.2-4.8,6-1.8,1.9-2.9,4.4-4.9,6.1-.2.1-.3.1-.5,0-1.1-.8-2.2-1.3-3.5-1.7.9,1.3,1.8,3,0,3.9-2.9,1.6-6.3,1.9-9.5,2.4-4,.7-8,1.5-11.9,2.3-.9.2-1.9.5-2.7,0-.5-.3-.8-1-1.2-1.5-.8,1.4-2.1,2-3.8,2-1.8,0-4-.2-5.6-1-2-1-2.7-2.8-3.6-4.7-.6-1.4-1.3-2.9-2.4-3.9-.5-.5-1-.7-1.4-.8-1.9.2-3.8.7-5.6,1.2-1.6.5-2.6,1.4-3,3.1-.5,2.2-.3,4.6-1.5,6.5,0,.1-.3.2-.4.1-.2-.1-.3-.3-.5-.5,0,.2.2.4.3.6,1,1.5,2.4.2,2.6-1.1,0-.5,0-1,.1-1.5,0-.9,0-1.8.3-2.6,1-3.4,4.2-4.3,7.4-4.6,0,0,.2-.2.3-.3,0,.2,0,.4,0,.7,0,0,0,0,0,0,0,0,0,0,0,0-1.1,1.1-2.3,2.1-3.3,3.4-.3.4-.5.7-.6,1.1-.8,1.4-1,3.3-.5,4.8,0,0,0,.1.1.2.3.7.6,1.4,1,2-.2-2.1,1.9-4.5,3.5-6.2-.1.3-.3.6-.4.9-.7.7-1.3,1.5-1.8,2.4-.6,1.1-1.3,2.2-.4,3.6.3.5.7.9,1.2,1.3,0,0,0-.1,0-.2.2-.8,1.1-1.5,1.7-2.1.9-.9,1.9-1.7,2.9-2.4.2-.2.2.2,0,.3-1,.8-1.9,1.6-2.8,2.5-1.3,1.3-1.8,4.1.1,5.1.9.5,1.8.2,2.8.3.5,0,1,.2,1.5,0,1.9-.4.4-2-.2-2.4-.3-.2-.5-.3-.8-.5-.3.1-.5.3-.8.4,0-.2.1-.4.2-.6.8-.6,1.7-1,2.7-1.4,1.3-.5,2.3-.3,3.6.1,2.7.9,6.3,1.7,8.5-.3,0,0,0,0,0,0,0,0,.1,0,.2-.1t0,0c.2-.2.5-.5.7-.8,0-.2,0,.5-.1.6,2.3.2,4.6.2,6.9.4,3,.1,6.1.1,9.1,0,3.4,0,7-.3,10.3-1.4,2.7-.9,4.7-2.4,6.8-4.1.7-.8,1.3-1.7,1.9-2.6,1.2-1.7,2.4-3.4,3.6-5.1,1.4-1.9,2.8-3.8,4.2-5.6.6-.9,1.2-1.8,1.8-2.6-.9-1.1-1.6-2.3-2.7-3.2Z"/>
          </g>
          <g>
            <path class="cls-45" d="M245.2,129.1c1.4-5.1-1.4-10.7-6.7-13.4-5.3-2.6-11.5-1.5-14.7,2.8-.4.5-.7,1-1,1.5h0c-.1.3-.2.6-.3.8-.2.5-.4,1.1-.5,1.7-.6,2.6-.3,5.5-.2,7.6,0,.6,0,1.1.1,1.5.2,3.1-.8,5.8-1,6.3h0c0,0,0,.2,0,.3-.3.1-.6.3-.7.6-.1.3-.1.6,0,1-.4.1-.6.3-.8.6-.2.3-.1.7,0,1.2-.5.1-.8.3-1,.7-.2.4-.1.8.2,1.4,0,.2.2.3.4.5.7.6,2.3,1.6,4.2,2.5,1.9.9,3.6,1.6,4.6,1.8.2,0,.5,0,.6,0,.7-.1,1-.4,1.2-.7.1-.2.2-.6,0-1.2.6-.1.9-.4,1-.7.1-.2.2-.5,0-1,.5-.1.7-.4.8-.6.1-.2.2-.5,0-.9h0c0-.2,1.7-2.9,4.4-4.8.4-.2.8-.5,1.2-.8,1.8-1.1,4.2-2.7,5.9-4.7.4-.4.7-.9,1-1.4.1-.2.3-.5.4-.6h0c.3-.6.5-1.2.6-1.8ZM221.2,138.8c.4.5,1.5,1.3,4.5,2.8,3,1.5,4.3,1.9,5,1.9,0,.2,0,.3,0,.4,0,.1-.3.2-.6.3-.2,0-.3,0-.4,0-.8-.2-2.6-.9-4.4-1.8-1.8-.9-3.4-1.9-4-2.4-.1-.1-.2-.3-.3-.4-.2-.3-.2-.5-.1-.6,0,0,.2-.2.3-.2ZM220.4,140.4c.4.5,1.5,1.3,4.5,2.8,3,1.5,4.3,1.9,5,1.9,0,.2,0,.3,0,.4,0,.1-.3.2-.6.3-.2,0-.3,0-.4,0-.8-.2-2.6-.9-4.3-1.8-1.8-.9-3.4-1.9-4-2.4-.1-.1-.2-.3-.3-.4-.2-.3-.2-.5-.1-.6,0,0,.2-.2.3-.2ZM226.1,140.8c-.8-.4-1.4-.7-2-1.1.7-1.8,3.3-9.1,4.3-13.3.9-.4,1.8-1.1,2.3-1.5l.2,3.2,2.7-1.4.5,3.1,1.9-1.6c0,.5,0,1.3.4,1.9-2.7,3.5-7.2,10-8.3,11.5-.6-.2-1.2-.5-1.9-.9ZM228.4,147.6c-.2,0-.3,0-.4,0-.8-.2-2.6-.9-4.3-1.8-1.8-.9-3.4-1.9-4-2.4-.1-.1-.2-.3-.3-.4-.2-.3-.2-.5-.1-.6,0,0,.2-.2.3-.2.4.5,1.5,1.3,4.5,2.8,3,1.5,4.3,1.9,5,1.9,0,.2,0,.3,0,.4,0,.1-.3.2-.6.3ZM243.5,131.2c-.3.5-.6.9-1,1.3-1.7,2-4,3.5-5.8,4.6-.5.3-.9.6-1.3.8-2.4,1.6-3.9,3.8-4.5,4.6h0s-.1.2-.1.2c-.3,0-1.1-.3-2.3-.7,1.2-1.7,5.5-7.8,8.1-11.2,0,.1.2.2.3.3.6.4,1.4.4,2.3,0,1.5-.7,1.8-1.5,1.8-1.9,0-.5-.4-1.1-.9-1.3-.7-.3-1.5-.2-2.1.3-.2.2-.7.7-1.3,1.5-.2-.7-.2-1.6-.2-2v-.8c0,0-2.1,1.8-2.1,1.8l-.5-2.9-2.7,1.4-.2-3.6-.5.5c-.4.4-1.3,1.2-2.2,1.6.2-.8.2-1.4.2-1.7,0-.9-.5-1.2-.8-1.2-.5-.2-1.2.1-1.6.7-.5.6-.9,1.6-.3,2.6.2.4.6.7,1,.7.2,0,.4,0,.6,0-.9,3.5-2.9,9.2-4.2,12.8-1-.6-1.6-1-1.8-1.3.2-.6,1.2-3.4,1-6.5,0-.4,0-1-.1-1.5-.2-2-.4-4.8.1-7.4.1-.5.3-1.1.5-1.6,0-.2.2-.4.3-.7h0c.2-.5.5-1,.9-1.4,3-3.9,8.8-5,13.7-2.5,5,2.5,7.6,7.7,6.3,12.5-.1.5-.3,1.1-.6,1.6-.1.2-.2.4-.4.6ZM237.1,130.2c.6-.8,1.1-1.4,1.4-1.6.5-.4,1-.4,1.4-.2.3.2.6.4.6.7,0,.4-.5.9-1.4,1.3-.7.3-1.3.3-1.7,0,0,0-.2-.2-.3-.3ZM227.8,125.9c-.3,0-.5.1-.7,0-.2,0-.4-.2-.5-.4-.4-.7-.1-1.4.3-1.9.3-.4.7-.6.9-.5,0,0,0,0,0,0,.2.1.3.5.3.7,0,.4,0,1.1-.3,2Z"/>
            <g>
              <path class="cls-45" d="M241,112.1c-.2.3-.5.5-.9.3h0c-.3-.2-.5-.6-.3-.9l3.2-6.4c.2-.3.6-.5.9-.3h0c.3.2.5.6.3.9l-3.2,6.4Z"/>
              <path class="cls-45" d="M217.8,159.1c-.2.3-.5.5-.9.3h0c-.3-.2-.5-.6-.3-.9l3.2-6.4c.2-.3.6-.5.9-.3h0c.3.2.5.6.3.9l-3.2,6.4Z"/>
            </g>
            <g>
              <path class="cls-45" d="M250.4,142.7c-.3-.2-.5-.6-.3-.9h0c.2-.3.6-.5.9-.3l6.4,3.2c.3.2.5.6.3.9h0c-.2.3-.6.5-.9.3l-6.4-3.2Z"/>
              <path class="cls-45" d="M203.4,119.5c-.3-.2-.5-.6-.3-.9h0c.2-.3.6-.5.9-.3l6.4,3.2c.3.2.5.6.3.9h0c-.2.3-.6.5-.9.3l-6.4-3.2Z"/>
            </g>
            <g>
              <path class="cls-45" d="M237,153.7c-.1-.3,0-.7.4-.8h0c.3-.1.7,0,.8.4l2.3,6.8c.1.3,0,.7-.4.8h0c-.3.1-.7,0-.8-.4l-2.3-6.8Z"/>
              <path class="cls-45" d="M220.2,104.1c-.1-.3,0-.7.4-.8h0c.3-.1.7,0,.8.4l2.3,6.8c.1.3,0,.7-.4.8h0c-.3.1-.7,0-.8-.4l-2.3-6.8Z"/>
            </g>
            <g>
              <path class="cls-45" d="M209.2,139.9c.3-.1.5-.5.4-.8h0c-.1-.3-.5-.5-.8-.4l-6.8,2.3c-.3.1-.5.5-.4.8h0c.1.3.5.5.8.4l6.8-2.3Z"/>
              <path class="cls-45" d="M258.9,123.2c.3-.1.5-.5.4-.8h0c-.1-.3-.5-.5-.8-.4l-6.8,2.3c-.3.1-.5.5-.4.8h0c.1.3.5.5.8.4l6.8-2.3Z"/>
            </g>
          </g>
        </g>
      </g>
    </g>
  </g>
</svg>