<?xml version="1.0" encoding="UTF-8"?>
<svg xmlns="http://www.w3.org/2000/svg" xmlns:xlink="http://www.w3.org/1999/xlink" viewBox="0 0 500 500">
  <defs>
    <style>
      .cls-1, .cls-2 {
        fill: #d90575;
      }

      .cls-3, .cls-4, .cls-5, .cls-6, .cls-7, .cls-2, .cls-8 {
        font-family: Poppins-Medium, Poppins;
        font-weight: 500;
      }

      .cls-3, .cls-5, .cls-6, .cls-7, .cls-2, .cls-8 {
        font-size: 19.5px;
      }

      .cls-3, .cls-9 {
        fill: #02b4bb;
      }

      .cls-10, .cls-8 {
        fill: #fedf03;
      }

      .cls-4 {
        font-size: 23.5px;
        opacity: .5;
      }

      .cls-11 {
        stroke: #fedf03;
      }

      .cls-11, .cls-12, .cls-13, .cls-14, .cls-15, .cls-16, .cls-17 {
        fill: none;
        stroke-miterlimit: 10;
        stroke-width: 2.7px;
      }

      .cls-5, .cls-18 {
        fill: #e74819;
      }

      .cls-12 {
        stroke: #d90575;
      }

      .cls-13 {
        stroke: #e9438e;
      }

      .cls-19 {
        fill: url(#Degradado_sin_nombre_46);
      }

      .cls-14 {
        stroke: #02b4bb;
      }

      .cls-15 {
        stroke: #483366;
      }

      .cls-6, .cls-20 {
        fill: #483366;
      }

      .cls-7, .cls-21 {
        fill: #0098d2;
      }

      .cls-16 {
        stroke: #0098d2;
      }

      .cls-17 {
        stroke: #e74819;
      }
    </style>
    <radialGradient id="Degradado_sin_nombre_46" data-name="Degradado sin nombre 46" cx="250" cy="250" fx="250" fy="250" r="344.1" gradientUnits="userSpaceOnUse">
      <stop offset=".3" stop-color="#fff"/>
      <stop offset=".9" stop-color="#eef0f1"/>
    </radialGradient>
  </defs>
  <g id="BACKGROUND">
    <rect class="cls-19" width="500" height="500"/>
  </g>
  <g id="OBJECTS">
    <g>
      <g>
        <path class="cls-13" d="M250.7,58.6c-2.5,0-4.6,2.1-4.6,4.6,0,2.5,2.1,4.6,4.6,4.6s4.6-2.1,4.6-4.6c0-2.5-2.1-4.6-4.6-4.6Z"/>
        <line class="cls-12" x1="246.2" y1="63.2" x2="128.9" y2="63.4"/>
        <circle class="cls-12" cx="106.4" cy="63.5" r="22.5"/>
        <text class="cls-2" transform="translate(140.8 55.8)"><tspan x="0" y="0">Empathy</tspan></text>
      </g>
      <g>
        <path class="cls-13" d="M250.7,412.6c-2.5,0-4.6,2.1-4.6,4.6,0,2.5,2.1,4.6,4.6,4.6s4.6-2.1,4.6-4.6c0-2.5-2.1-4.6-4.6-4.6Z"/>
        <line class="cls-12" x1="246.2" y1="417.2" x2="128.9" y2="417.4"/>
        <circle class="cls-12" cx="106.4" cy="417.5" r="22.5"/>
        <text class="cls-2" transform="translate(140.8 409.7)"><tspan x="0" y="0">Intuition</tspan></text>
      </g>
      <g>
        <path class="cls-16" d="M270.6,126.5c2.5,0,4.6-2.1,4.6-4.6,0-2.5-2.1-4.6-4.6-4.6s-4.6,2.1-4.6,4.6,2.1,4.6,4.6,4.6Z"/>
        <line class="cls-16" x1="275.1" y1="121.9" x2="392.4" y2="121.7"/>
        <circle class="cls-16" cx="414.9" cy="121.6" r="22.5" transform="translate(-15.8 83.8) rotate(-11.3)"/>
        <text class="cls-7" transform="translate(300.4 116.1)"><tspan x="0" y="0">Instinct</tspan></text>
      </g>
      <g>
        <path class="cls-14" d="M270.6,243.4c2.5,0,4.6-2.1,4.6-4.6,0-2.5-2.1-4.6-4.6-4.6s-4.6,2.1-4.6,4.6,2.1,4.6,4.6,4.6Z"/>
        <line class="cls-14" x1="275.1" y1="238.8" x2="392.4" y2="238.6"/>
        <circle class="cls-14" cx="414.9" cy="238.5" r="22.5" transform="translate(-38.7 86.1) rotate(-11.3)"/>
        <text class="cls-3" transform="translate(311.2 232.5)"><tspan x="0" y="0">Voice</tspan></text>
      </g>
      <g>
        <path class="cls-15" d="M270.6,363.6c2.5,0,4.6-2.1,4.6-4.6,0-2.5-2.1-4.6-4.6-4.6-2.5,0-4.6,2.1-4.6,4.6s2.1,4.6,4.6,4.6Z"/>
        <line class="cls-15" x1="275.1" y1="359" x2="392.4" y2="358.8"/>
        <circle class="cls-15" cx="414.9" cy="358.7" r="22.5" transform="translate(-133.5 349.3) rotate(-39.9)"/>
        <text class="cls-6" transform="translate(299 351.5)"><tspan x="0" y="0">Purpose</tspan></text>
      </g>
      <g>
        <path class="cls-11" d="M250.7,175.2c-2.5,0-4.6,2.1-4.6,4.6,0,2.5,2.1,4.6,4.6,4.6,2.5,0,4.6-2.1,4.6-4.6,0-2.5-2.1-4.6-4.6-4.6Z"/>
        <line class="cls-11" x1="246.2" y1="179.8" x2="128.9" y2="180"/>
        <circle class="cls-11" cx="106.4" cy="180.1" r="22.5" transform="translate(-4.6 2.8) rotate(-1.5)"/>
        <text class="cls-8" transform="translate(161.7 172.3)"><tspan x="0" y="0">Story</tspan></text>
      </g>
      <g>
        <path class="cls-17" d="M250.7,294.1c-2.5,0-4.6,2.1-4.6,4.6,0,2.5,2.1,4.6,4.6,4.6,2.5,0,4.6-2.1,4.6-4.6,0-2.5-2.1-4.6-4.6-4.6Z"/>
        <line class="cls-17" x1="246.2" y1="298.7" x2="128.9" y2="298.9"/>
        <circle class="cls-17" cx="106.4" cy="299" r="22.5" transform="translate(-10.8 4) rotate(-2.1)"/>
        <text class="cls-5" transform="translate(145.5 287.8)"><tspan x="0" y="0">Identity</tspan></text>
      </g>
      <g>
        <path class="cls-20" d="M254.8,377.3c4.8,6.7,9,12.4,9,24.5s3.2,7.1,7.1,7.1,7.1-3.2,7.1-7.1c0-16.6-6.2-25.1-11.6-32.7-3.9-5.4-7.4-10.3-8.6-18.4h-14.2c1.3,12.7,6.6,20.1,11.3,26.7Z"/>
        <path class="cls-1" d="M266.3,91.4c5.4-7.6,11.6-16.1,11.6-32.7s-3.2-7.1-7.1-7.1-7.1,3.2-7.1,7.1c0,12-4.2,17.8-9,24.4-5.4,7.6-11.6,16.1-11.6,32.7h14.1c0-12,4.2-17.8,9-24.4Z"/>
        <path class="cls-1" d="M257.5,422c-4.5,8.2-9.6,17.4-7.6,33.9s4,6.6,7.9,6.2,6.6-4,6.2-7.9c-1.4-11.9,2-18.1,6-25.3,4.5-8.2,9.6-17.4,7.6-33.9l-14,1.7c1.4,11.9-2,18.1-6,25.3Z"/>
        <path class="cls-21" d="M266.3,140.3c-4.8-6.7-9-12.4-9-24.4h-14.1c0,16.6,6.2,25.1,11.6,32.7,4.8,6.7,9,12.4,9,24.4h14.1c0-16.6-6.2-25.1-11.6-32.7Z"/>
        <path class="cls-9" d="M277.9,287.4c0-16.6-6.2-25.1-11.6-32.7-4.5-6.2-8.4-11.7-8.9-22.1h-14.1c.6,15,6.4,23.2,11.6,30.4,4.8,6.7,9,12.4,9,24.4s0,.3,0,.4h14.1c0-.1,0-.3,0-.4Z"/>
        <path class="cls-18" d="M266.3,320.1c5.4-7.5,11.5-16,11.6-32.3h-14.1c0,11.7-4.2,17.4-8.9,24-5.4,7.6-11.6,16.1-11.6,32.7s.1,4.2.3,6.1h14.2c-.3-1.8-.4-3.8-.4-6.1,0-12,4.2-17.8,9-24.5Z"/>
        <path class="cls-10" d="M257.4,230.2c0-12,4.2-17.8,9-24.4,5.4-7.6,11.6-16.1,11.6-32.7h-14.1c0,12-4.2,17.8-9,24.4-5.4,7.6-11.6,16.1-11.6,32.7s0,1.6,0,2.3h14.1c0-.8,0-1.5,0-2.3Z"/>
      </g>
    </g>
    <text class="cls-4" transform="translate(94.1 71.1)"><tspan x="0" y="0">01</tspan></text>
    <text class="cls-4" transform="translate(401.6 130.2)"><tspan x="0" y="0">02</tspan></text>
    <text class="cls-4" transform="translate(92.5 188)"><tspan x="0" y="0">03</tspan></text>
    <text class="cls-4" transform="translate(400.5 247.9)"><tspan x="0" y="0">04</tspan></text>
    <text class="cls-4" transform="translate(91.6 306.8)"><tspan x="0" y="0">05</tspan></text>
    <text class="cls-4" transform="translate(400.8 367)"><tspan x="0" y="0">06</tspan></text>
    <text class="cls-4" transform="translate(91.8 425.5)"><tspan x="0" y="0">07</tspan></text>
  </g>
</svg>