<?xml version="1.0" encoding="UTF-8"?>
<svg xmlns="http://www.w3.org/2000/svg" version="1.1" xmlns:xlink="http://www.w3.org/1999/xlink" viewBox="0 0 500 500">
  <!-- Generator: Adobe Illustrator 29.1.0, SVG Export Plug-In . SVG Version: 2.1.0 Build 142)  -->
  <defs>
    <style>
      .st0, .st1, .st2, .st3, .st4, .st5, .st6, .st7, .st8, .st9, .st10, .st11, .st12, .st13, .st14, .st15, .st16, .st17, .st18, .st19, .st20, .st21, .st22 {
        fill-rule: evenodd;
      }

      .st0, .st23 {
        fill: #7e55b1;
      }

      .st1 {
        fill: #f76fba;
      }

      .st2, .st24 {
        fill: #f052a9;
      }

      .st3 {
        fill: #683d9c;
      }

      .st4 {
        fill: #006f94;
      }

      .st25, .st8, .st26 {
        fill: #fff;
      }

      .st5 {
        fill: #e03895;
      }

      .st6 {
        stroke: #1962c2;
      }

      .st6, .st27, .st14, .st18, .st28, .st19, .st20, .st29, .st30 {
        fill: none;
      }

      .st6, .st14, .st18, .st28, .st19, .st20, .st29, .st30 {
        stroke-linecap: round;
        stroke-linejoin: round;
      }

      .st6, .st14, .st18, .st19, .st20 {
        stroke-width: 1.2px;
      }

      .st7 {
        fill: #048bb8;
      }

      .st9 {
        fill: #e87b07;
      }

      .st31, .st15 {
        fill: #fc9803;
      }

      .st32 {
        fill: url(#Degradado_sin_nombre_46);
      }

      .st32, .st33 {
        display: none;
      }

      .st10 {
        fill: #1962c2;
      }

      .st11 {
        fill: #3277d1;
      }

      .st26 {
        font-family: Poppins-Medium, Poppins;
        font-size: 17.1px;
        font-weight: 500;
      }

      .st12 {
        fill: #ffb342;
      }

      .st13, .st34 {
        fill: #0348a3;
      }

      .st14 {
        stroke: #7e55b1;
      }

      .st16 {
        fill: #657780;
      }

      .st17 {
        fill: #926dbf;
      }

      .st35, .st22 {
        opacity: .2;
      }

      .st18 {
        stroke: #048bb8;
      }

      .st28, .st29, .st30 {
        stroke: #fff;
      }

      .st19 {
        stroke: #fc9803;
      }

      .st20 {
        stroke: #f052a9;
      }

      .st33 {
        fill: url(#Degradado_sin_nombre_461);
      }

      .st21 {
        fill: #1a9dc9;
      }

      .st29, .st30 {
        opacity: .1;
        stroke-width: 4.8px;
      }

      .st36 {
        clip-path: url(#clippath);
      }

      .st30 {
        stroke-dasharray: 9.6 24;
      }
    </style>
    <clipPath id="clippath">
      <rect class="st27" x="0" y="0" width="500" height="500"/>
    </clipPath>
    <radialGradient id="Degradado_sin_nombre_46" data-name="Degradado sin nombre 46" cx="250" cy="249.8" fx="250" fy="249.8" r="344.1" gradientUnits="userSpaceOnUse">
      <stop offset=".3" stop-color="#fff"/>
      <stop offset=".9" stop-color="#eef0f1"/>
    </radialGradient>
    <radialGradient id="Degradado_sin_nombre_461" data-name="Degradado sin nombre 46" cx="239.7" cy="239.5" fx="239.7" fy="239.5" r="344.1" gradientTransform="translate(-.1 0) scale(1)" xlink:href="#Degradado_sin_nombre_46"/>
  </defs>
  <g id="BACKGROUND">
    <rect class="st25" x="0" y="0" width="500" height="500"/>
    <g class="st36">
      <g>
        <circle class="st29" cx="438.4" cy="89.5" r="255.4" transform="translate(65.1 336.2) rotate(-45)"/>
        <line class="st29" x1="748" y1="73.7" x2="143.7" y2="600.3"/>
        <line class="st30" x1="748" y1="73.7" x2="253.7" y2="704.6"/>
        <line class="st30" x1="748" y1="73.7" x2="111.6" y2="561"/>
        <line class="st30" x1="834.4" y1="59.7" x2="-164.6" y2="387.2"/>
        <line class="st29" x1="957.3" y1="8.4" x2="-134" y2="428.5"/>
        <circle class="st29" cx="438.4" cy="89.5" r="133.2" transform="translate(65.1 336.2) rotate(-45)"/>
        <ellipse class="st29" cx="-28.8" cy="455.9" rx="255.4" ry="471" transform="translate(-407 199.8) rotate(-59.5)"/>
        <ellipse class="st30" cx="-50.2" cy="514.3" rx="255.4" ry="471" transform="translate(-467.9 210.1) rotate(-59.5)"/>
        <ellipse class="st29" cx="-115.7" cy="579.6" rx="255.4" ry="471" transform="translate(-556.5 185.9) rotate(-59.5)"/>
        <line class="st29" x1="721.7" y1="96.6" x2="-196.1" y2="84.4"/>
        <line class="st30" x1="715.9" y1="-13.3" x2="-195.4" y2="96.5"/>
        <line class="st30" x1="718.4" y1="160.6" x2="-195.7" y2="77.4"/>
      </g>
    </g>
    <rect class="st32" x="0" y="-.2" width="500" height="500"/>
  </g>
  <g id="OBJECTS">
    <g>
      <polygon class="st15" points="245.6 401.9 238.5 389.4 251.4 395.8 245.6 401.9"/>
      <path class="st16" d="M238.3,306.9c-5.3,5.3-12,8.4-18.9,9.3l13.9-13.9h0c0,0,0-.1,0-.1,5-5,7.5-11.6,7.5-18.2,0-6.6-2.6-13.1-7.6-18.2-5-5-11.7-7.6-18.3-7.6s-13.2,2.5-18.3,7.6c-5,5-7.5,11.6-7.5,18.2,0,6.6,2.6,13.2,7.6,18.2,5,5,11.7,7.6,18.3,7.6s.8,0,1.1,0l-6.4,6.4c-6.5-1.1-12.8-4.1-17.8-9.1s-9.6-14.7-9.6-23c0-8.3,3.1-16.6,9.5-23,6.4-6.4,14.7-9.6,23.1-9.6s16.7,3.2,23.1,9.6c6.4,6.4,9.6,14.7,9.6,23,0,8.3-3.1,16.6-9.5,23Z"/>
      <path class="st16" d="M192.2,343.4c1.3-1.3,3.5-1.3,4.8,0,1.3,1.3,1.3,3.5,0,4.8l-41.3,41.3c-1.3,1.3-3.5,1.3-4.8,0-1.3-1.3-1.3-3.5,0-4.8l41.3-41.3Z"/>
      <path class="st16" d="M403.6,224.3c-6.4,6.4-14.7,9.6-23.1,9.6s-16.7-3.2-23.1-9.6c-5-5-8.1-11.3-9.2-17.8l6.3-6.3c0,.4,0,.7,0,1.1,0,6.6,2.6,13.2,7.6,18.2,5,5,11.7,7.6,18.3,7.6s13.2-2.5,18.3-7.6c5-5,7.5-11.6,7.5-18.2,0-6.6-2.6-13.1-7.6-18.2-5-5-11.7-7.6-18.3-7.6s-13.2,2.5-18.3,7.6l-14,14c.9-6.9,3.9-13.5,9.2-18.8,6.4-6.4,14.7-9.6,23.1-9.6,8.3,0,16.7,3.2,23.1,9.6,6.4,6.4,9.6,14.7,9.6,23,0,8.3-3.1,16.6-9.5,23Z"/>
      <path class="st16" d="M321.1,224.1c-5.3,5.3-12,8.4-18.9,9.3l13.9-13.9h0c0,0,0-.1,0-.1,5-5,7.5-11.6,7.5-18.2,0-6.6-2.6-13.1-7.6-18.2-5-5-11.7-7.6-18.3-7.6s-13.2,2.5-18.3,7.6c-5,5-7.5,11.6-7.5,18.2,0,6.6,2.6,13.2,7.6,18.2,5,5,11.7,7.6,18.3,7.6s.8,0,1.1,0l-6.4,6.4c-6.5-1.1-12.8-4.1-17.8-9.1-6.4-6.4-9.6-14.7-9.6-23,0-8.3,3.1-16.6,9.5-23,6.4-6.4,14.7-9.6,23.1-9.6s16.7,3.2,23.1,9.6c6.4,6.4,9.6,14.7,9.6,23,0,8.3-3.1,16.6-9.5,23Z"/>
      <path class="st16" d="M321,306.9c-6.4,6.4-14.7,9.6-23.1,9.6s-16.7-3.2-23.1-9.6c-5-5-8.1-11.3-9.2-17.8l6.3-6.3c0,.4,0,.7,0,1.1,0,6.6,2.6,13.2,7.6,18.2,5,5,11.7,7.6,18.3,7.6s13.2-2.5,18.3-7.6c5-5,7.5-11.6,7.5-18.2,0-6.6-2.6-13.1-7.6-18.2-5-5-11.7-7.6-18.3-7.6s-12.8,2.4-17.8,7.1c0,0-.1.1-.2.2l-14.3,14.3c.9-6.9,3.9-13.5,9.2-18.8,6.4-6.4,14.7-9.6,23.1-9.6s16.7,3.2,23.1,9.6c6.4,6.4,9.6,14.7,9.6,23,0,8.3-3.1,16.6-9.5,23Z"/>
      <path class="st16" d="M238.5,389.4c-6.4,6.4-14.7,9.6-23.1,9.6s-16.7-3.2-23.1-9.6c-5-5-8.1-11.3-9.2-17.8l6.3-6.3c0,.4,0,.7,0,1.1,0,6.6,2.6,13.2,7.6,18.2s11.7,7.6,18.3,7.6,13.2-2.5,18.3-7.6c5-5,7.5-11.6,7.5-18.2,0-6.6-2.6-13.1-7.6-18.2-5-5-11.7-7.6-18.3-7.6s-13.2,2.5-18.3,7.6l-14,14c.9-6.9,3.9-13.5,9.2-18.8,6.4-6.4,14.7-9.6,23.1-9.6s16.7,3.2,23.1,9.6c6.4,6.4,9.6,14.7,9.6,23,0,8.3-3.1,16.6-9.5,23Z"/>
      <path class="st16" d="M399.8,137.5c1.3-1.3,3.5-1.3,4.8,0s1.3,3.5,0,4.8l-20.3,20.3c-1,0-1.9-.1-2.9-.1-2.5,0-4.9.2-7.3.7l25.7-25.7Z"/>
      <path class="st16" d="M357.5,178.1c1.3-1.3,3.5-1.3,4.8,0,1.3,1.3,1.3,3.5,0,4.8l-25.6,25.6c.5-2.4.7-4.9.7-7.5s0-1.8,0-2.7l20.2-20.2Z"/>
      <path class="st16" d="M316.2,219.5c1.3-1.3,3.5-1.3,4.8,0,1.3,1.3,1.3,3.5,0,4.8l-20.3,20.3c-1,0-1.9-.1-2.9-.1-2.5,0-4.9.2-7.3.7l25.7-25.7Z"/>
      <path class="st16" d="M274.9,260.8c1.3-1.3,3.5-1.3,4.8,0,1.3,1.3,1.3,3.5,0,4.8l-25.8,25.8c.5-2.4.7-4.9.7-7.5s0-1.8,0-2.8l20.4-20.4Z"/>
      <path class="st16" d="M233.5,302.1c1.3-1.3,3.5-1.3,4.8,0,1.3,1.3,1.3,3.5,0,4.8l-20.3,20.3c-1,0-1.9-.1-2.9-.1-2.5,0-4.9.2-7.3.7l25.7-25.7Z"/>
      <circle class="st35" cx="384.3" cy="204.3" r="19.9" transform="translate(-31.9 331.6) rotate(-45)"/>
      <path class="st22" d="M301.8,184.3c11,0,19.9,8.9,19.9,19.9s-8.9,19.9-19.9,19.9-19.9-8.9-19.9-19.9,8.9-19.9,19.9-19.9Z"/>
      <path class="st22" d="M301.6,267.1c11,0,19.9,8.9,19.9,19.9s-8.9,19.9-19.9,19.9-19.9-8.9-19.9-19.9,8.9-19.9,19.9-19.9Z"/>
      <circle class="st35" cx="218.9" cy="287.9" r="19.9" transform="translate(-91.2 474) rotate(-83.7)"/>
      <path class="st22" d="M219.1,349.6c11,0,19.9,8.9,19.9,19.9s-8.9,19.9-19.9,19.9-19.9-8.9-19.9-19.9,8.9-19.9,19.9-19.9Z"/>
      <path class="st11" d="M380.4,221.2c11,0,19.9-8.9,19.9-19.9s-8.9-19.9-19.9-19.9-19.9,8.9-19.9,19.9,8.9,19.9,19.9,19.9Z"/>
      <path class="st21" d="M297.9,221c11,0,19.9-8.9,19.9-19.9s-8.9-19.9-19.9-19.9-19.9,8.9-19.9,19.9,8.9,19.9,19.9,19.9Z"/>
      <path class="st17" d="M297.8,303.8c11,0,19.9-8.9,19.9-19.9s-8.9-19.9-19.9-19.9-19.9,8.9-19.9,19.9,8.9,19.9,19.9,19.9Z"/>
      <path class="st1" d="M215.1,303.8c11,0,19.9-8.9,19.9-19.9s-8.9-19.9-19.9-19.9-19.9,8.9-19.9,19.9,8.9,19.9,19.9,19.9Z"/>
      <path class="st12" d="M215.3,386.3c11,0,19.9-8.9,19.9-19.9s-8.9-19.9-19.9-19.9-19.9,8.9-19.9,19.9,8.9,19.9,19.9,19.9Z"/>
      <path class="st9" d="M229.1,352.2c7.9,7.7,8.2,20.2.5,28.1-7.7,7.9-20.5,8.1-28.4.4,9.3-9.5,18.6-19,27.8-28.4Z"/>
      <path class="st13" d="M394.2,187.1c7.9,7.7,8.2,20.2.5,28.1-7.7,7.9-20.5,8-28.4.4,9.3-9.5,18.6-19,27.8-28.4Z"/>
      <path class="st4" d="M311.7,187c7.9,7.7,8.2,20.2.5,28.1-7.7,7.9-20.5,8-28.4.4,9.3-9.5,18.6-19,27.8-28.4Z"/>
      <path class="st3" d="M311.6,269.7c7.9,7.7,8.2,20.2.5,28.1-7.7,7.9-20.5,8.1-28.4.4,9.3-9.5,18.6-19,27.8-28.4Z"/>
      <path class="st5" d="M228.9,269.7c7.9,7.7,8.2,20.2.5,28.1-7.7,7.9-20.5,8-28.4.4,9.3-9.5,18.6-19,27.8-28.4Z"/>
      <path class="st10" d="M380.4,216.3c8.3,0,15.1-6.8,15.1-15.1s-6.8-15.1-15.1-15.1-15.1,6.8-15.1,15.1,6.8,15.1,15.1,15.1Z"/>
      <path class="st11" d="M111.3,415.6c11,0,19.9-8.9,19.9-19.9s-8.9-19.9-19.9-19.9-19.9,8.9-19.9,19.9,8.9,19.9,19.9,19.9Z"/>
      <path class="st13" d="M125.1,381.5c7.9,7.7,8.2,20.2.5,28.1-7.7,7.9-20.5,8-28.4.4,9.3-9.5,18.6-19,27.8-28.4Z"/>
      <path class="st10" d="M111.3,410.7c8.3,0,15.1-6.8,15.1-15.1s-6.8-15.1-15.1-15.1-15.1,6.8-15.1,15.1,6.8,15.1,15.1,15.1Z"/>
      <path class="st7" d="M297.8,216.2c8.3,0,15.1-6.8,15.1-15.1s-6.8-15.1-15.1-15.1-15.1,6.8-15.1,15.1,6.8,15.1,15.1,15.1Z"/>
      <path class="st0" d="M297.8,299c8.3,0,15.1-6.8,15.1-15.1s-6.8-15.1-15.1-15.1-15.1,6.8-15.1,15.1,6.8,15.1,15.1,15.1Z"/>
      <path class="st2" d="M215.2,298.9c8.3,0,15.1-6.8,15.1-15.1s-6.8-15.1-15.1-15.1-15.1,6.8-15.1,15.1,6.8,15.1,15.1,15.1Z"/>
      <path class="st15" d="M215.3,381.5c8.3,0,15.1-6.8,15.1-15.1s-6.8-15.1-15.1-15.1-15.1,6.8-15.1,15.1,6.8,15.1,15.1,15.1Z"/>
      <polygon class="st13" points="410.9 236.6 403.8 224.1 416.7 230.6 410.9 236.6"/>
      <polygon class="st7" points="267.7 165.6 274.9 178.1 262 171.7 267.7 165.6"/>
      <polygon class="st0" points="328.1 319.4 321 306.9 333.9 313.3 328.1 319.4"/>
      <polygon class="st2" points="184.9 248.4 192.1 260.9 179.2 254.5 184.9 248.4"/>
      <path class="st8" d="M210.9,367.7h8.7v.4h-8.7v-.4h0ZM210.9,362h1.6v5.1h-1.6v-5.1h0ZM213.3,359.7h1.6v7.4h-1.6v-7.4h0ZM215.7,364.7h1.6v2.4h-1.6v-2.4h0ZM218,363h1.6v4.2h-1.6v-4.2h0ZM206.7,369.3h17.2v-10.8h-17.2v10.8h0ZM209.3,375.7h12l-3-5h5.2c1.1,0,1.9-.9,1.9-1.9v-9.8c0-1.1-.9-1.9-1.9-1.9h-16.4c-1.1,0-1.9.9-1.9,1.9v9.8c0,1.1.9,1.9,1.9,1.9h5.2"/>
      <g>
        <path class="st8" d="M215.2,274.6c1.9,0,3.5.8,4.8,2,1.2,1.2,2,2.9,2,4.8s-.3,2.3-.9,3.3c-.5,1-1.3,1.8-2.2,2.4l-.6,5.1c0,.2-.2.3-.4.3h0s-5.3,0-5.3,0c-.2,0-.4-.2-.4-.4l-.6-5c-.9-.6-1.7-1.4-2.2-2.4-.5-1-.9-2.1-.9-3.3,0-1.9.8-3.5,2-4.8,1.2-1.2,2.9-2,4.8-2h0ZM219.4,277.1c-1.1-1.1-2.6-1.7-4.2-1.7s-3.1.7-4.2,1.7c-1.1,1.1-1.7,2.6-1.7,4.2s.3,2,.8,2.9c.5.9,1.2,1.6,2.1,2.2h0c0,0,.2.2.2.3l.6,4.9h4.6l.6-4.9c0-.1,0-.2.2-.3.9-.5,1.6-1.3,2.1-2.2.5-.9.8-1.9.8-2.9,0-1.6-.7-3.1-1.7-4.2Z"/>
        <path class="st8" d="M214.2,289.3c0,.1,0,.3-.2.3-.1,0-.3,0-.3-.2l-1.5-6.3c0-.1,0-.3.2-.3,0,0,.2,0,.3,0,0,.1.2.2.3.3.6.5,1.4.8,2.2.8.8,0,1.6-.2,2.2-.8,0,0,.2-.2.3-.3,0-.1.2-.1.4,0,0,0,.1.2,0,.3l-1.5,6.3c0,.1-.2.2-.3.2-.1,0-.2-.2-.2-.3l1.3-5.5c-.6.4-1.4.7-2.2.7-.8,0-1.7-.2-2.3-.7l1.4,5.5h0ZM212.6,282.9h0c0,0,0,0,0,0Z"/>
        <path class="st8" d="M211.6,288.7h7.2l-.4,3.4c0,.6,0,.9-.9.9h-4.7c-.8,0-.8-.3-.9-.9l-.4-3.4Z"/>
      </g>
      <path class="st16" d="M134.4,418.9c-5.3,5.3-12,8.4-18.9,9.3l13.9-13.9h0c0,0,0-.1,0-.1,5-5,7.5-11.6,7.5-18.2,0-6.6-2.6-13.1-7.6-18.2-5-5-11.7-7.6-18.3-7.6s-13.2,2.5-18.3,7.6c-5,5-7.5,11.6-7.5,18.2,0,6.6,2.6,13.2,7.6,18.2,5,5,11.7,7.6,18.3,7.6s.8,0,1.1,0l-6.4,6.4c-6.5-1.1-12.8-4.1-17.8-9.1s-9.6-14.7-9.6-23c0-8.3,3.1-16.6,9.5-23,6.4-6.4,14.7-9.6,23.1-9.6s16.7,3.2,23.1,9.6c6.4,6.4,9.6,14.7,9.6,23,0,8.3-3.1,16.6-9.5,23Z"/>
      <path class="st16" d="M129.6,414.1c1.3-1.3,3.5-1.3,4.8,0,1.3,1.3,1.3,3.5,0,4.8l-20.3,20.3c-1,0-1.9-.1-2.9-.1-2.5,0-4.9.2-7.3.7l25.7-25.7Z"/>
      <circle class="st35" cx="111.3" cy="395.8" r="19.9" transform="translate(-294.4 462.5) rotate(-83.6)"/>
      <polygon class="st13" points="115 351.5 118.5 365.5 107.8 355.8 115 351.5"/>
      <g>
        <path class="st8" d="M114.5,404.1"/>
        <path class="st8" d="M108,404.1"/>
      </g>
      <path class="st16" d="M420.4,126.5c-5.3,5.3-12,8.4-18.9,9.3l13.9-13.9h0c0,0,0-.1,0-.1,5-5,7.5-11.6,7.5-18.2,0-6.6-2.6-13.1-7.6-18.2-5-5-11.7-7.6-18.3-7.6s-13.2,2.5-18.3,7.6c-5,5-7.5,11.6-7.5,18.2,0,6.6,2.6,13.2,7.6,18.2,5,5,11.7,7.6,18.3,7.6s.8,0,1.1,0l-6.4,6.4c-6.5-1.1-12.8-4.1-17.8-9.1-6.4-6.4-9.6-14.7-9.6-23,0-8.3,3.1-16.6,9.5-23,6.4-6.4,14.7-9.6,23.1-9.6s16.7,3.2,23.1,9.6c6.4,6.4,9.6,14.7,9.6,23,0,8.3-3.1,16.6-9.5,23Z"/>
      <path class="st16" d="M415.6,121.7c1.3-1.3,3.5-1.3,4.8,0,1.3,1.3,1.3,3.5,0,4.8l-20.3,20.3c-1,0-1.9-.1-2.9-.1-2.5,0-4.9.2-7.3.7l25.7-25.7Z"/>
      <circle class="st35" cx="396.9" cy="103.5" r="19.9"/>
      <path class="st1" d="M397.2,123.4c11,0,19.9-8.9,19.9-19.9s-8.9-19.9-19.9-19.9-19.9,8.9-19.9,19.9,8.9,19.9,19.9,19.9Z"/>
      <path class="st5" d="M411,89.4c7.9,7.7,8.2,20.2.5,28.1-7.7,7.9-20.5,8-28.4.4,9.3-9.5,18.6-19,27.8-28.4Z"/>
      <path class="st2" d="M397.2,118.5c8.3,0,15.1-6.8,15.1-15.1s-6.8-15.1-15.1-15.1c-8.3,0-15.1,6.8-15.1,15.1s6.8,15.1,15.1,15.1Z"/>
      <polygon class="st2" points="366.9 68 374.1 80.6 361.2 74.1 366.9 68"/>
      <path class="st8" d="M394.6,102.5"/>
      <path class="st8" d="M306,194h-16.3c-.5,0-.8.4-.8.8v10.6c0,.5.3.8.7.8h6l-.7,1.3h-7.1c-.2,0-.4.2-.4.4h0s0,0,0,0h0s0,0,0,0h0s0,0,0,0h0s0,0,0,0h0s0,0,0,0h0s0,0,0,0h0s0,0,0,0h0s0,0,0,0h0s0,0,0,0h0s0,0,0,0h0s0,0,0,0h0s0,0,0,0h0s0,0,0,0h0s0,0,0,0h0s0,0,0,0h0s0,0,0,0h0s0,0,0,0h0s0,0,0,0h0s0,0,0,0h0s0,0,0,0h0s0,0,0,0h0s0,0,0,0h0s0,0,0,0h0s0,0,0,0h0s0,0,0,0h0s0,0,0,0h0s0,0,0,0h0s0,0,0,0h0s0,0,0,0h0s0,0,0,0h0s0,0,0,0h0s0,0,0,0h0s0,0,0,0h0s0,0,0,0h0s0,0,0,0h0s0,0,0,0h0s0,0,0,0h0s0,0,0,0h0s0,0,0,0h0s0,0,0,0h0s0,0,0,0h0s0,0,0,0h0s0,0,0,0h0s0,0,0,0h0s0,0,0,0h0s6.6,0,6.6,0h13.3s0,0,0,0h0s0,0,0,0h0s0,0,0,0h0s0,0,0,0h0s0,0,0,0h0s0,0,0,0h0s0,0,0,0h0s0,0,0,0h0s0,0,0,0h0s0,0,0,0h0s0,0,0,0h0s0,0,0,0h0s0,0,0,0h0s0,0,0,0h0s0,0,0,0h0s0,0,0,0h0s0,0,0,0h0s0,0,0,0h0s0,0,0,0h0s0,0,0,0h0s0,0,0,0h0s0,0,0,0h0s0,0,0,0h0s0,0,0,0h0s0,0,0,0h0s0,0,0,0h0s0,0,0,0h0s0,0,0,0h0s0,0,0,0h0s0,0,0,0h0s0,0,0,0h0s0,0,0,0h0s0,0,0,0h0s0,0,0,0h0s0,0,0,0h0s0,0,0,0h0s0,0,0,0h0s0,0,0,0h0s0,0,0,0h0s0,0,0,0h0s0,0,0,0h0s0,0,0,0h0s0,0,0,0h0c0-.3-.2-.5-.4-.5h-7.1l-.7-1.3h6c.5,0,.8-.4.8-.8v-10.6c0-.5-.3-.8-.7-.8h0ZM306,194.7v9.7h-16.4v-9.7h16.4Z"/>
      <path class="st6" d="M453.3,257.1"/>
      <path class="st6" d="M418,257.1"/>
      <path class="st18" d="M260.6,147.4"/>
      <path class="st18" d="M225.4,147.4"/>
      <path class="st14" d="M371.9,390.5"/>
      <path class="st14" d="M336.7,390.5"/>
      <path class="st20" d="M178.6,211.8"/>
      <path class="st20" d="M143.3,211.8"/>
      <path class="st19" d="M288,422.4"/>
      <path class="st19" d="M252.7,422.4"/>
    </g>
    <path class="st2" d="M175.8,255.8h-45.5c-5.9,0-10.7-4.8-10.7-10.7h0c0-5.9,4.8-10.7,10.7-10.7h45.5c5.9,0,10.7,4.8,10.7,10.7h0c0,5.9-4.8,10.7-10.7,10.7Z"/>
    <path class="st7" d="M257.9,176.3h-45.5c-5.9,0-10.7-4.8-10.7-10.7h0c0-5.9,4.8-10.7,10.7-10.7h45.5c5.9,0,10.7,4.8,10.7,10.7h0c0,5.9-4.8,10.7-10.7,10.7Z"/>
    <rect class="st31" x="244.2" y="394.4" width="87.5" height="19.5" rx="9.4" ry="9.4"/>
    <rect class="st34" x="27" y="333.9" width="94.4" height="22.2" rx="10.7" ry="10.7"/>
    <rect class="st24" x="248.4" y="52.3" width="119.5" height="23" rx="11.1" ry="11.1"/>
    <path class="st8" d="M398.3,100.4c-.6.4-1.3.6-2.1.6,0,0-.1,0-.2,0h0s-1.5,4.5-1.5,4.5c1,.7,1.7,1.9,1.7,3.2,0,2.1-1.7,3.9-3.9,3.9s-3.9-1.7-3.9-3.9,1.7-3.9,3.9-3.9.2,0,.3,0l1.5-4.5c-1.1-.7-1.8-1.9-1.8-3.3,0-2.1,1.7-3.9,3.9-3.9s3.9,1.7,3.9,3.9-.2,1.3-.5,1.8l2.4,2.6c.6-.4,1.3-.5,2-.5,2.1,0,3.9,1.7,3.9,3.9s-1.7,3.9-3.9,3.9-3.9-1.7-3.9-3.9c0-.6.2-1.3.5-1.9l-2.3-2.6ZM392.4,110.7c1.1,0,1.9-.9,1.9-1.9s-.9-1.9-1.9-1.9-1.9.9-1.9,1.9.9,1.9,1.9,1.9ZM396.3,99.1c1.1,0,1.9-.9,1.9-1.9s-.9-1.9-1.9-1.9-1.9.9-1.9,1.9.9,1.9,1.9,1.9ZM404,106.9c1.1,0,1.9-.9,1.9-1.9s-.9-1.9-1.9-1.9-1.9.9-1.9,1.9.9,1.9,1.9,1.9Z"/>
    <rect class="st34" x="410.2" y="230.4" width="71.1" height="22.9" rx="6.6" ry="6.6"/>
    <path class="st25" d="M375.3,192.4c-2.9,1.6-4.8,4.7-4.8,8.2s2,6.6,4.8,8.2c-1.9-1.9-3.2-4.9-3.2-8.2s1.2-6.3,3.1-8.2h0ZM384.9,192.5c1.8,1.9,3,4.8,3,8.1s-1.2,6.2-3,8.1c2.8-1.7,4.6-4.7,4.6-8.1s-1.9-6.5-4.6-8.1h0ZM374.9,200.6c0-2.7,1.1-5,2.8-6.2-2.5,1-4.2,3.4-4.2,6.2s1.8,5.3,4.3,6.2c-1.7-1.2-2.8-3.6-2.8-6.2h0ZM386.9,200.6c0-2.5-1.4-4.7-3.5-5.9,1.4,1.3,2.3,3.5,2.3,5.9s-.9,4.6-2.4,5.9c2.1-1.1,3.5-3.4,3.5-5.9h0ZM376.9,200.6c0-1.8.7-3.3,1.8-4.1-1.7.6-2.9,2.2-2.9,4.1s1.2,3.6,3,4.1c-1.1-.7-1.9-2.3-1.9-4.1h0ZM381.9,196.6c1,.8,1.6,2.3,1.6,4s-.6,3.2-1.6,4c1.5-.7,2.6-2.2,2.6-4s-1.1-3.3-2.6-4h0ZM380.3,199.4c-.8,0-1.5.7-1.5,1.5s.4,1.2.9,1.4v8.6h1.1v-8.6c.5-.2.9-.8.9-1.4s-.7-1.5-1.5-1.5h0Z"/>
    <g id="Free-Icons">
      <g id="Group">
        <g id="Shape">
          <path class="st28" d="M116.2,388.7v10.1c0,1.1-.8,2-1.8,2h-5.5c-1,0-1.8-.9-1.8-2v-10.1c0-1.1.8-2,1.8-2h5.5c1,0,1.8.9,1.8,2Z"/>
          <line class="st28" x1="119.9" y1="404.9" x2="103.3" y2="404.9"/>
        </g>
      </g>
    </g>
    <rect class="st23" x="327.8" y="309.8" width="114.7" height="30" rx="12" ry="12"/>
  </g>
  <g id="DESIGNED_BY_FREEPIK">
    <text class="st26" transform="translate(211.6 171.9)"><tspan x="0" y="0">Code</tspan></text>
    <text class="st26" transform="translate(258.6 69)"><tspan x="0" y="0">Automation</tspan></text>
    <text class="st26" transform="translate(129.4 249.8)"><tspan x="0" y="0">Logic</tspan></text>
    <text class="st26" transform="translate(253 408.4)"><tspan x="0" y="0">Systems</tspan></text>
    <text class="st26" transform="translate(35.3 351.3)"><tspan x="0" y="0">Interface</tspan></text>
    <text class="st26" transform="translate(414.4 247.2)"><tspan x="0" y="0">Signals</tspan></text>
    <text class="st26" transform="translate(336.7 331.5)"><tspan x="0" y="0">Intelligence</tspan></text>
    <path class="st25" d="M291.1,292v2.4c0,.4.3.7.7.7h9.3c.4,0,.7-.3.7-.7v-2.3h2.6c1,0,1.9-.8,1.9-1.9v-3.3h1.5c.6,0,1-.7.7-1.2l-1.7-3.1c-.4-.7-.6-1.5-.6-2.3h0c0-5-4.1-9-9-9-5,0-8.9,4.1-8.9,9.1,0,1.4.4,2.8,1,4,1.2,2.4,1.9,5,1.9,7.7ZM292.1,278.1c0-.2.1-.3.3-.4l1-.4c.1,0,.2-.1.2-.2,0,0,0,0,0,0,0-.1,0-.2,0-.3l-.4-1c0-.2,0-.3,0-.5l.4-.4c.1-.1.3-.2.5,0l1,.4c.1,0,.2,0,.3,0,0,0,0,0,0,0,.1,0,.2-.1.2-.2l.4-1c0-.2.2-.3.4-.3h.6c.2,0,.3.1.4.3l.4,1c0,.1.1.2.2.2,0,0,0,0,0,0,.1,0,.2,0,.3,0l1-.4c.2,0,.3,0,.5,0l.4.4c.1.1.2.3,0,.5l-.4,1c0,.1,0,.2,0,.3,0,0,0,0,0,0,0,.1.1.2.2.2l1,.4c.2,0,.3.2.3.4v.6c0,.2-.1.3-.3.4l-1,.4c-.1,0-.2.1-.2.2h0c0,.1,0,.2,0,.3l.4,1c0,.2,0,.3,0,.5l-.4.4c-.1.1-.3.2-.5,0l-1-.4c-.1,0-.2,0-.3,0,0,0,0,0,0,0-.1,0-.2.1-.2.2l-.4,1c0,.2-.2.3-.4.3h-.6c-.2,0-.3-.1-.4-.3l-.4-1c0-.1-.1-.2-.2-.2,0,0,0,0,0,0-.1,0-.2,0-.3,0l-1,.4c-.2,0-.3,0-.5,0l-.4-.4c-.1-.1-.2-.3,0-.5l.4-1c0-.1,0-.2,0-.3,0,0,0,0,0,0,0-.1-.1-.2-.2-.2l-1-.4c-.2,0-.3-.2-.3-.4v-.6h0Z"/>
    <rect class="st33" x="-11" y="-11.1" width="524.8" height="524.8"/>
  </g>
</svg>